<svg xmlns="http://www.w3.org/2000/svg" viewBox="0 0 1272.96 1392.4"><defs><clipPath id="clip-path"><path fill="none" d="M0 0h1272.96v1392.4H0z"/></clipPath><style>.cls-5{fill:#0fa4d0}</style></defs><g style="isolation:isolate"><g style="mix-blend-mode:screen" opacity=".15" clip-path="url(#clip-path)" id="Layer_1" data-name="Layer 1"><path class="cls-5" d="M646.47 660.28a254.75 254.75 0 01-21.67 200.66 31.67 31.67 0 01-25 15.82q-4.34.39-8.67.39a111.09 111.09 0 01-92-49.71 147.37 147.37 0 00-46.24 116.28 170.31 170.31 0 00148.22 169.8c7.58.61 16.2 1 26 1.17a171.54 171.54 0 00164.72-169.41 292.73 292.73 0 00-145.36-285z"/><path class="cls-5" d="M987.29 494.64l-92.06 115a31.38 31.38 0 01-24.66 11.84 33.21 33.21 0 01-5.63-.52 31.53 31.53 0 01-24.4-21.28 596.59 596.59 0 01-1.73-365 540.83 540.83 0 00-392.74 273 31.54 31.54 0 01-23 16.12 29.42 29.42 0 01-4.77.39 31.52 31.52 0 01-22.15-9.14l-77-75.2C173.23 613.88 196 873.19 370 1019.08a410 410 0 0045.76 33.29 230.47 230.47 0 01-26-106.53 208.53 208.53 0 01108.35-195A31.57 31.57 0 01544.53 774a47 47 0 0033.81 38.35 188.27 188.27 0 00-28-197.63 31.6 31.6 0 0124.23-52l.22-.05a31.35 31.35 0 019.84 1.56A364.05 364.05 0 01854.71 947a234.75 234.75 0 01-38.14 125.29c203.34-101.14 286.17-348 185-551.3q-6.64-13.44-14.28-26.35z"/><path class="cls-5" d="M1214 306.81a696.41 696.41 0 00-1259.74 249 703.37 703.37 0 000 280.7 696.05 696.05 0 00541.91 541.91 703 703 0 00280.71 0 696.05 696.05 0 00541.91-541.91 703 703 0 000-280.7 692.51 692.51 0 00-104.79-249zm-309.26 786.43a474.18 474.18 0 01-266.07 85h-12.48l-3.38.26-.31-.26a230.68 230.68 0 01-27.3-1.74 467 467 0 01-293.15-133.78C115 859.5 112 559.37 295.16 372.35a.12.12 0 010-.05 31.58 31.58 0 0144.59-.48l71.86 70a603.4 603.4 0 01472.53-274.95h1.73a31.59 31.59 0 0129 43.77A534 534 0 00885 521.34l71.82-89.76a31.39 31.39 0 0124.65-11.83h15.48a31.61 31.61 0 0126 13.52c149.57 214.88 96.66 510.35-118.21 659.97z"/></g></g></svg>