<svg xmlns="http://www.w3.org/2000/svg" id="Layer_1" data-name="Layer 1" viewBox="0 0 42.04 300">
  <defs>
    <clipPath id="clip-path">
      <path d="M0 0h42.04v149.92H0z" class="cls-1"/>
    </clipPath>
    <clipPath id="clip-path-2">
      <path d="M0 150.08h42.04V300H0z" class="cls-1"/>
    </clipPath>
    <style>
      .cls-1{fill:none}.cls-3{opacity:.2}.cls-4{fill:#0ca3cf}
    </style>
  </defs>
  <g clip-path="url(#clip-path)">
    <g class="cls-3">
      <path d="M8.34 11.33h-.22A3.76 3.76 0 015.73 5a.26.26 0 01.35 0l.57.56a4.81 4.81 0 013.72-2.18.25.25 0 01.25.25v.1a4.21 4.21 0 00-.24 2.48l.62-.77a.28.28 0 01.19-.09h.13a.23.23 0 01.2.11 3.75 3.75 0 01-3 5.9h-.21zm-1-2.78a1.13 1.13 0 00-.34.92 1.34 1.34 0 001.18 1.34h.2A1.37 1.37 0 009.7 9.47a2.34 2.34 0 00-1.15-2.26 2.06 2.06 0 01-.2 1.59.22.22 0 01-.19.12h-.07a.86.86 0 01-.71-.37zM8 6.45h.07a2.87 2.87 0 012.14 3 1.83 1.83 0 01-.3 1 3.24 3.24 0 001.47-4.33l-.11-.21-.8.89a.21.21 0 01-.2.09.25.25 0 01-.27-.15 4.75 4.75 0 010-2.89A4.28 4.28 0 006.94 6a.23.23 0 01-.18.13.21.21 0 01-.17-.08l-.62-.62A3.25 3.25 0 006.32 10a3 3 0 00.35.27 1.93 1.93 0 01-.2-.85 1.65 1.65 0 01.89-1.52.24.24 0 01.35.1.12.12 0 010 .09.39.39 0 00.27.3 1.5 1.5 0 00-.22-1.57.24.24 0 010-.35.27.27 0 01.24-.02z" class="cls-4"/>
      <path d="M8.45 13.52a6.43 6.43 0 01-1.24-.12 6.32 6.32 0 01-2.13-.88A6.19 6.19 0 012.9 9.87a5.46 5.46 0 01-.34-1.13 6 6 0 019.28-6.2 6.07 6.07 0 012.5 3.78 6.16 6.16 0 010 2.42 6 6 0 01-5.89 4.8zM8.45 2a5.25 5.25 0 00-1.12.11 5.45 5.45 0 00-2 .83 5.52 5.52 0 00-2 2.43 6.14 6.14 0 00-.32 1 5.52 5.52 0 003.26 6.2 5.44 5.44 0 001 .32 5.19 5.19 0 002.22 0 5.32 5.32 0 002-.83 5.52 5.52 0 002.32-3.46 5.58 5.58 0 000-2.23A5.52 5.52 0 009.56 2.1 5.16 5.16 0 008.45 2zM8.6 122.91v.79l2.6 2.8H9.44l-.84-.84V128l3.85-1.25-3.85-3.84zM8.6 130.9l3.85-3.84-3.85 1.25v2.59zM4.46 126.75L8.3 128v-2.34l-.75.84H5.8l2.5-2.8v-.79l-3.84 3.84zM8.3 130.9v-2.59l-3.84-1.25 3.84 3.84zM13.18 122.07h-.59v.87h-.87v.6h.87v.87h.59v-.87h.88v-.6h-.88v-.87z" class="cls-4"/>
      <path d="M15.25 123.24a2.37 2.37 0 00-4-1.68 6 6 0 00-8.67 4.13 6.16 6.16 0 000 2.42 6 6 0 004.69 4.69 6.42 6.42 0 002.47 0 6 6 0 004.69-4.69 6.16 6.16 0 000-2.42c0-.17-.08-.34-.13-.51a2.35 2.35 0 00.95-1.94zm-1.38 2.55a5.48 5.48 0 01-2.33 5.69 5.39 5.39 0 01-2 .84 5.58 5.58 0 01-2.23 0 6.56 6.56 0 01-1-.32 5.53 5.53 0 01-.94-9.68 5.47 5.47 0 012-.81 5.53 5.53 0 012.22 0 5.44 5.44 0 011 .32l.41.17a2.27 2.27 0 00-.39 1.28 2.36 2.36 0 002.37 2.36 2.42 2.42 0 00.88-.17c-.04.07-.01.2.01.32zm.19-1.09a1.9 1.9 0 01-.43.26 1.85 1.85 0 01-2.29-2.77 2.35 2.35 0 01.33-.37 1.87 1.87 0 112.39 2.88zM8.47 65.83a1.58 1.58 0 10-1.57-1.58 1.57 1.57 0 001.57 1.58z" class="cls-4"/>
      <path d="M10.19 65.43a2.07 2.07 0 01-.81.69l-.77 2.32a2.8 2.8 0 00-.06.28c0 .12-.05.26-.07.42a2.49 2.49 0 00-.06-.42c0-.12-.05-.21-.07-.27l-.76-2.32a2.11 2.11 0 01-.83-.71.64.64 0 00-.62.55l-.7 4.39.56-.11a.63.63 0 00.53-.55l.27-2.24a6.36 6.36 0 00.06-.87v-.2L7 67c0 .14.05.22.06.25l.76 2.34a.63.63 0 00.62.43.64.64 0 00.62-.43l.77-2.32a2 2 0 00.11-.27c0-.15.07-.32.11-.52a.09.09 0 000 .07.24.24 0 000 .12 1.82 1.82 0 000 .33 3.12 3.12 0 000 .52l.27 2.23a.62.62 0 00.52.55l.59.11-.62-4.41a.6.6 0 00-.62-.57zM13.19 62.38h-.59v.87h-.87v.59h.87v.88h.59v-.88h.88v-.59h-.88v-.87z" class="cls-4"/>
      <path d="M15.26 63.55a2.35 2.35 0 00-4-1.68 6 6 0 00-4-.56 5.89 5.89 0 00-1.13.35A6.06 6.06 0 002.57 66a6.21 6.21 0 000 2.43 6.42 6.42 0 00.35 1.13 6 6 0 004.34 3.54 6.44 6.44 0 001.24.13 5.81 5.81 0 001.24-.13 6 6 0 004.68-7.1 4.6 4.6 0 00-.13-.5 2.37 2.37 0 00.97-1.95zm-1.38 4.77a5.66 5.66 0 01-.32 1 5.58 5.58 0 01-2 2.43 5.54 5.54 0 01-4.2.83 5.23 5.23 0 01-1-.32 5.54 5.54 0 01-3.27-6.2 5.7 5.7 0 01.33-1 5.55 5.55 0 012-2.42 5.22 5.22 0 012-.85 5.16 5.16 0 011.11-.11 5.32 5.32 0 011.12.11 5.66 5.66 0 011 .32l.31.15a2.2 2.2 0 00-.39 1.29 2.35 2.35 0 002.33 2.36 2.43 2.43 0 00.92-.18l.09.36a5.58 5.58 0 01-.03 2.23zm.19-3.32a1.67 1.67 0 01-.43.25 1.86 1.86 0 01-2.29-2.77 2.37 2.37 0 01.34-.37A1.87 1.87 0 0114.07 65zM10.08 99.84l.34.13.16-.32-.32-.18a2.53 2.53 0 00-.18.37zM10.47 99.14l.32.2L11 99l-.31-.21zM10.89 91.64a3.79 3.79 0 00-.34-.2c-.06.11-.12.22-.17.33l.31.18zM11.29 97.87l.33.18.17-.34-.33-.17zM10.19 91.26l-.37-.14c0 .12-.08.24-.11.36l.34.13zM11.71 93l.31-.2-.23-.33-.29.23zM11.61 97.2l.34.15.15-.35-.35-.14zM12 93.64l.35-.12a2.39 2.39 0 00-.15-.37l-.34.17zM12.18 94.33a1 1 0 00.37 0c0-.13-.05-.26-.08-.39l-.36.08c.02.08.05.19.07.31zM9.43 91H9v.37l.35.06a2.78 2.78 0 00.08-.43zM10.89 98.51l.31.21c.08-.12.15-.21.22-.33l-.32-.19zM11.24 92.41l.26-.27a2.18 2.18 0 00-.28-.25l-.24.28.14.12zM12.19 95.05a2.16 2.16 0 00.36 0 1.28 1.28 0 000-.39h-.36c.01.16-.01.27 0 .39z" class="cls-4"/>
      <path d="M12.18 95.43a.55.55 0 00-.36 0 .58.58 0 00-.34.33h-1.14a4.57 4.57 0 010-.74h.75a.17.17 0 00.14-.09.2.2 0 000-.11v-.76a.57.57 0 00.36-.66.55.55 0 00-.53-.44.56.56 0 00-.56.41.57.57 0 00.36.68v.62h-.55a.08.08 0 010-.07v-.28a.2.2 0 00-.18-.2h-.39v-1a.57.57 0 10-.74-.51.55.55 0 00.38.54v1h-.77v-3a.18.18 0 00-.17-.15 4.21 4.21 0 00-.62 0 4.55 4.55 0 00-.73.17 2.56 2.56 0 00-3.86 3.37 2.43 2.43 0 001.15.76 2.45 2.45 0 00.09.53 7.24 7.24 0 00.41 1.35 7 7 0 00.62 1.29c.15.24.31.47.47.7a4.63 4.63 0 01.43.71 3.8 3.8 0 01.16.51.42.42 0 00-.21.37.46.46 0 00.45.46h3.32a.46.46 0 00.45-.46.45.45 0 00-.45-.45H8.65v-3.56a2 2 0 01.35 0v.62a.18.18 0 00.19.12h.55v.22h-.07a.56.56 0 10.5 0 .09.09 0 01-.06-.09 1.71 1.71 0 000-.32.21.21 0 000-.11.17.17 0 00-.17-.09h-.55v-.38h.74a.18.18 0 00.19-.12v-.44h1.15a.56.56 0 101.06-.38.56.56 0 00-.37-.35zm-1.09-2.08a.2.2 0 01.18.18.18.18 0 01-.18.18.18.18 0 01-.21-.15.18.18 0 01.14-.21zm-3.2-2h.37v1.28h-.09a.21.21 0 00-.22.19H8V93a.07.07 0 01-.07.07h-.24v-.18a2.72 2.72 0 00-.39-1.36 3.51 3.51 0 01.58-.14zm-3.55 3.33A2 2 0 116 91a2 2 0 01.59.39 1.48 1.48 0 01.26.3 2 2 0 01.37 1.17v.1a2 2 0 01-2 1.94 2.7 2.7 0 01-.41 0 2.77 2.77 0 01-.41-.12zm3.92 5.57H7v-.08a2.8 2.8 0 00-.3-.76 8.13 8.13 0 00-.52-.78 7.69 7.69 0 01-1-1.93 8.06 8.06 0 01-.29-1.07 2.93 2.93 0 000-.29 2.22 2.22 0 00.37 0 2.73 2.73 0 00.5-.05v.39a.19.19 0 00.17.2h.17v.21l-.1.2a.19.19 0 00-.06.25 3.3 3.3 0 00.32.55.2.2 0 00.27.08l.22-.07c.11.09.11.09.06.21v.13a.18.18 0 00.07.24c.12.09.25.16.38.24l.18.09a.19.19 0 00.17-.01l.16-.18a.13.13 0 01.14.12v.15a.2.2 0 00.18.16h.13zm0-3.56a1.34 1.34 0 01-.58-.23 1.25 1.25 0 01-.51-.84 1.3 1.3 0 011.05-1.51zM10 98a.17.17 0 01.18.17.18.18 0 01-.17.19.19.19 0 01-.17-.18A.18.18 0 0110 98zm-.38-5.62a.18.18 0 010 .36.19.19 0 01-.18-.18.18.18 0 01.17-.17zm.37 3.92H8.65v-1.81h1.28zm2.01-.16a.18.18 0 11.18-.18.18.18 0 01-.18.16zM10.13 101.47H6.81a.45.45 0 100 .9h3.32a.45.45 0 100-.9zM8.47 103.86a1.19 1.19 0 001.19-1.19H7.27a1.19 1.19 0 001.19 1.2z" class="cls-4"/>
      <path d="M4.81 93.92v.17h.64v-.95h.95v-.65H5.45V91.54h-.64v.95h-.95v.65h.95v.78zM12.6 39.72v-.47H12.01v.87h-.88v.61h.88v.86h.59v-.86h.88v-.61h-.88v-.4z" class="cls-4"/>
      <path d="M12.8 38.12l.2-1.44a.52.52 0 00-.11-.36.46.46 0 00-.35-.16h-.2L13 34a.15.15 0 00-.06-.05l-.36-.1h-.08a.09.09 0 00-.06.06l-.06.23-.14.49-.14.49-.15.51-.13.49v.08h-.21l.18-.62.19-2.28a.11.11 0 000-.08.2.2 0 00-.08 0h-.5l-.31 3a.39.39 0 00-.28.15l-.31-2.75v-.25a.11.11 0 000-.08h-.39a.19.19 0 00-.09 0 .11.11 0 000 .08V34.26l.15 1.42.06.53.05.53.08.8A2.11 2.11 0 0110 38l-.2-1.85v-.84l-.07-.67a.12.12 0 00-.11-.1h-.49a.11.11 0 000 .08v.5h.1a.37.37 0 01.2.12.32.32 0 01.06.23L9.23 37l.08.81v.52a2 2 0 01-.53.16v-.36L9 37v-.42l.06-.41.09-.62a.11.11 0 00.06-.14.07.07 0 00-.07 0h-.35a.1.1 0 00-.14 0v.06l-.4 3.1H8l.41-3.1a.5.5 0 01.05-.13l.36-2.72a.1.1 0 00-.09-.12l-.37-.05a.11.11 0 00-.12.09l-.16 1.2h.17a.31.31 0 01.26.35l-.59 4.4-.19-.06.59-4.43a.11.11 0 000-.08.08.08 0 00-.06 0h-.44a.09.09 0 000 .06l-.26 2-.27 2v.18L7.05 38l.1-3.39a.11.11 0 000-.08h-.51a.09.09 0 000 .08v2.71a2.05 2.05 0 01-.18-.58l.06-2.13a.32.32 0 01.26-.3L7 31.15a.06.06 0 000-.08.08.08 0 00-.07 0h-.41a.11.11 0 00-.13.1l-.1 1.24a.31.31 0 01.06.19v3.95a.41.41 0 00-.19-.24v-3.76a.1.1 0 00-.08-.1h-.4a.11.11 0 00-.08 0 .11.11 0 000 .08v3.65h-.38l-.32-3a.06.06 0 000-.06.09.09 0 00-.07 0h-.35a.11.11 0 00-.1.13l.3 2.9h-.26a.48.48 0 00-.47.48l.94 6.62a.46.46 0 00.46.4h6.35a.45.45 0 00.45-.4l.08-.57h.09a2.36 2.36 0 00.5-4.66zm-1.09 5.17H5.33l-.93-6.66h1.43a2.38 2.38 0 00.11.53 2 2 0 00.21.47 3.28 3.28 0 00.2.31l.05.06.1.11.1.1a2 2 0 00.27.23 2.07 2.07 0 00.25.15h.18a1.48 1.48 0 00.27.1H8.4a1.82 1.82 0 00.33 0 2.67 2.67 0 00.62-.15 2.57 2.57 0 00.52-.27l.26-.2a1.69 1.69 0 00.19-.19 2.67 2.67 0 00.41-.62 2.58 2.58 0 00.25-.86h1.42l-.14 1.6h.07a2.36 2.36 0 00-.54 4.65zm.62-1h-.06a1.61 1.61 0 01-.44-.06 1.86 1.86 0 01.5-3.67 1.54 1.54 0 01.43 0 1.87 1.87 0 11-.43 3.71z" class="cls-4"/>
      <path d="M5 33a.45.45 0 01.12.21l.14 1.47v-2.17a.32.32 0 01.22-.29v-.33a.12.12 0 00-.11-.1H5a.12.12 0 00-.1.12L5 33zM12 33.07a.29.29 0 01.07.22L12 34.57l.15-.51.19-2a.11.11 0 000-.08.13.13 0 00-.07 0h-.38a.1.1 0 00-.11.1l-.13.91h.18a.3.3 0 01.17.08zM9.75 34.53v-.26l-.09-.87a.3.3 0 01.25-.33l.25-1.93a.06.06 0 000-.08h-.47a.14.14 0 000 .08l-.44 3.3h.26a.33.33 0 01.24.09zM7.33 34.59v1.46l.28-2.11a.3.3 0 01.12-.21l.15-1.81a.11.11 0 000-.08.09.09 0 00-.07 0h-.42a.09.09 0 00-.11.09l-.2 2.37a.3.3 0 01.19.1.31.31 0 01.06.19zM10.67 33.3l.24 2.35.18-2.44v-.06l.09-1a.12.12 0 00-.1-.12h-.37a.1.1 0 00-.12.09l-.08 1a.33.33 0 01.16.18zM9.07 38.18l.08.01-.03-.33-.05.32zM8.17 13.22h.54v25.55h-.54zM8.17 43.48h.54v17.95h-.54zM8.17 72.93h.54v27.73h-.54zM8.17 103.35h.54v17.78h-.54z" class="cls-4"/>
    </g>
    <g class="cls-3">
      <path d="M33.57 101.55h-.22A3.76 3.76 0 0131 95.17a.25.25 0 01.35 0l.57.56a4.75 4.75 0 013.72-2.18.25.25 0 01.25.25v.1a4.2 4.2 0 00-.24 2.48l.57-.72a.28.28 0 01.19-.09h.13a.23.23 0 01.2.11 3.75 3.75 0 01-.94 5.23 3.69 3.69 0 01-2.1.67h-.13zm-1-2.78a1.13 1.13 0 00-.37.92 1.34 1.34 0 001.19 1.31h.21a1.36 1.36 0 001.3-1.34 2.31 2.31 0 00-1.15-2.26 2 2 0 01-.17 1.6.24.24 0 01-.2.12h-.07a.88.88 0 01-.72-.37zm.62-2.1h.07a2.87 2.87 0 012.14 3 1.83 1.83 0 01-.3 1 3.25 3.25 0 001.47-4.36 2.12 2.12 0 00-.11-.21l-.72.91a.22.22 0 01-.2.09.25.25 0 01-.2-.16 4.78 4.78 0 010-2.9 4.25 4.25 0 00-3.09 2.17.29.29 0 01-.19.13.25.25 0 01-.18-.08l-.62-.62a3.26 3.26 0 00.41 4.59 2.42 2.42 0 00.36.27 1.89 1.89 0 01-.2-.84 1.65 1.65 0 01.85-1.55.25.25 0 01.34.09.11.11 0 010 .08.38.38 0 00.27.31 1.5 1.5 0 00-.29-1.54.26.26 0 010-.35.27.27 0 01.17-.06z" class="cls-4"/>
      <path d="M33.67 103.74a6.1 6.1 0 01-3.38-1 6 6 0 01-2.18-2.64 6.42 6.42 0 01-.35-1.13 6.21 6.21 0 010-2.43 6 6 0 013.55-4.33 5.51 5.51 0 011.13-.36 6.16 6.16 0 012.42 0 6 6 0 014.72 4.7 6.16 6.16 0 010 2.42 6 6 0 01-3.58 4.3 5.59 5.59 0 01-1.12.35 6.41 6.41 0 01-1.21.12zm0-11.53a5.22 5.22 0 00-1.11.11 5.28 5.28 0 00-2 .83 5.51 5.51 0 00.94 9.66 5.57 5.57 0 003.26.32 5.53 5.53 0 004.3-4.29 5.58 5.58 0 000-2.23 5.71 5.71 0 00-.83-2 5.52 5.52 0 00-2.43-2 5.3 5.3 0 00-2.15-.43zM33.83 213.13v.79l2.6 2.8h-1.76l-.84-.84v2.34l3.84-1.25h.01l-3.85-3.84zM33.83 221.12l3.84-3.85-3.84 1.26v2.59zM29.7 216.97l3.83 1.25v-2.34l-.74.84h-1.76l2.5-2.8v-.79l-3.84 3.84h.01zM33.53 221.12v-2.59l-3.83-1.26 3.83 3.85zM38.41 212.29h-.59v.88h-.87v.59h.87v.87h.59v-.87h.88v-.59h-.88v-.88z" class="cls-4"/>
      <path d="M40.48 213.46a2.35 2.35 0 00-4-1.68 6 6 0 00-5.12-.2 6 6 0 00-3.55 4.33 6.16 6.16 0 000 2.42 6.07 6.07 0 004.68 4.67 6.51 6.51 0 001.24.12A6.43 6.43 0 0035 223a6 6 0 003.78-2.53 6 6 0 00.83-4.58 4.7 4.7 0 00-.12-.51 2.35 2.35 0 00.99-1.92zM39.1 216a5.58 5.58 0 010 2.23 4.67 4.67 0 01-.33 1 5.51 5.51 0 01-6.2 3.27 7.79 7.79 0 01-1-.32 5.6 5.6 0 01-2.43-2 5.5 5.5 0 01-.83-2 5.58 5.58 0 010-2.23 5.51 5.51 0 014.3-4.29 5.58 5.58 0 012.23 0 5.34 5.34 0 011 .32l.31.14a2.36 2.36 0 002.85 3.53zm.19-1.08a1.9 1.9 0 01-.43.26 1.85 1.85 0 01-2.29-2.77 2 2 0 01.33-.38 1.88 1.88 0 012.64.26 1.86 1.86 0 01-.25 2.63zM33.7 156.05a1.58 1.58 0 10-1.55-1.6 1.56 1.56 0 001.55 1.6z" class="cls-4"/>
      <path d="M35.42 155.65a2.06 2.06 0 01-.8.69l-.79 2.33a2.68 2.68 0 00-.07.27 4 4 0 01-.06.43 1.67 1.67 0 00-.07-.42c0-.13-.05-.21-.06-.27l-.77-2.33a2 2 0 01-.81-.7.64.64 0 00-.62.55l-.67 4.38c.19 0 .39-.08.62-.11a.61.61 0 00.52-.54l.27-2.24a8.64 8.64 0 000-.88v-.15l.13.62a.56.56 0 00.06.24l.76 2.34a.61.61 0 00.62.43.6.6 0 00.62-.43l.77-2.33a2 2 0 00.09-.33 4.64 4.64 0 01.1-.52v.46l.06.52.27 2.24a.63.63 0 00.52.55l.62.1-.71-4.36a.66.66 0 00-.6-.54zM38.42 152.59h-.59V153.47h-.87v.59h.87v.88h.59v-.88h.88v-.59h-.88v-.88z" class="cls-4"/>
      <path d="M40.49 153.77a2.35 2.35 0 00-4-1.68 6 6 0 00-7.77 2 5.91 5.91 0 00-.9 2.13 6.47 6.47 0 000 2.48 5.71 5.71 0 00.36 1.13 6 6 0 004.33 3.55 5.85 5.85 0 002.43 0 6.69 6.69 0 001.13-.35 6.12 6.12 0 002.65-2.18 5.94 5.94 0 00.87-2.15 6.09 6.09 0 000-2.48 4.54 4.54 0 00-.12-.5 2.37 2.37 0 001.02-1.95zm-1.38 4.77a5.13 5.13 0 01-.32 1 5.55 5.55 0 01-2 2.44 5.68 5.68 0 01-2 .83 5.53 5.53 0 01-6.53-6.53 5.47 5.47 0 01.33-1 5.58 5.58 0 012-2.43 5.51 5.51 0 014.2-.83 5.34 5.34 0 011 .32l.31.15A2.36 2.36 0 0039 156l.09.36a5.58 5.58 0 010 2.23zm.19-3.31a1.67 1.67 0 01-.43.25 1.86 1.86 0 01-2.29-2.77 1.7 1.7 0 01.34-.37 1.87 1.87 0 012.38 2.89zM35.31 190.06l.34.14.16-.32-.32-.18a2 2 0 00-.18.36zM35.68 189.36l.32.2.21-.31-.3-.22zM36.12 181.86a3.79 3.79 0 00-.34-.2c-.06.11-.12.22-.17.33l.3.18zM36.51 188.09l.34.18.17-.34-.33-.17zM35.42 181.48l-.37-.14c0 .13-.08.24-.11.36l.34.13zM36.92 183.2l.32-.2a3.43 3.43 0 00-.24-.33l-.29.23zM36.84 187.42l.34.15c0-.13.1-.24.15-.36l-.35-.14zM37.24 183.84l.35-.12a2.32 2.32 0 00-.16-.36l-.33.16zM37.41 184.54a1.2 1.2 0 00.37 0c0-.13-.05-.26-.08-.39l-.36.08a3.09 3.09 0 00.07.31zM34.66 181.24l-.39-.07c0 .12 0 .25-.05.37l.36.06c.04-.12.04-.24.08-.36zM36.12 188.72l.31.22.22-.33-.32-.19zM36.48 182.62l.26-.26a2.35 2.35 0 00-.29-.26c-.07.1-.15.19-.23.29l.14.12a.43.43 0 00.12.11zM37.42 185.3h.36a2.54 2.54 0 000-.39h-.37c.02.09 0 .24.01.39z" class="cls-4"/>
      <path d="M37.41 185.65a.59.59 0 00-.37 0 .59.59 0 00-.33.33h-1.15a4.57 4.57 0 010-.74h.76a.15.15 0 00.13-.09.2.2 0 000-.11v-.76a.57.57 0 00.36-.66.57.57 0 00-.68-.42.59.59 0 00-.41.39.59.59 0 000 .37.56.56 0 00.33.31v.59h-.56v-.35a.18.18 0 00-.17-.2h-.39v-1a.57.57 0 00-.19-1.1.56.56 0 00-.54.41.57.57 0 00.34.69v1h-.74v-3a.18.18 0 00-.16-.21 4.3 4.3 0 00-.62 0 4.67 4.67 0 00-.74.17 2.56 2.56 0 10-3.86 3.37 2.59 2.59 0 001.16.76 3.23 3.23 0 00.08.53 8.11 8.11 0 00.42 1.35 6.87 6.87 0 00.62 1.28c.15.25.31.47.48.7s.29.47.42.72a2.91 2.91 0 01.16.5.45.45 0 00-.13.63.43.43 0 00.37.2h3.33a.45.45 0 00.45-.45.45.45 0 00-.45-.45h-1.4v-3.55h.36v.53a.11.11 0 000 .08.2.2 0 00.19.13H35v.22h-.07a.58.58 0 00-.24.76.57.57 0 001.07-.27.55.55 0 00-.33-.5.07.07 0 010-.09v-.33a.17.17 0 000-.1.17.17 0 00-.17-.09h-.56v-.38h.74a.17.17 0 00.18-.11.17.17 0 000-.1v-.34h1.15a.58.58 0 00.62.36.55.55 0 00.47-.52.57.57 0 00-.45-.46zm-1.11-2.08a.19.19 0 01.18.18.18.18 0 01-.21.15.17.17 0 01-.15-.15.18.18 0 01.16-.18zm-3.19-2h.37v1.24h-.09a.22.22 0 00-.23.19.36.36 0 010 .18c0 .07 0 .07-.07.07H33V183a2.72 2.72 0 00-.39-1.36 3.7 3.7 0 01.5-.06zm-3.56 3.34a2 2 0 112.85-1.86v.09a2 2 0 01-1.13 1.73 2 2 0 01-.89.21 1.68 1.68 0 01-.83-.19zm3.93 5.58h-1.31v-.09a3 3 0 00-.31-.76c-.15-.27-.33-.52-.51-.78a7.38 7.38 0 01-1-1.93 6.82 6.82 0 01-.3-1.07 1.6 1.6 0 00-.05-.29h.38a2.72 2.72 0 00.49-.05v.35a.2.2 0 00.18.2h.27v.13l-.2.18a.19.19 0 00-.05.25 2.54 2.54 0 00.32.55.22.22 0 00.27.08l.21-.08c.11.09.11.09.07.21v.13a.19.19 0 00.08.25l.38.24.18.08a.2.2 0 00.25 0l.16-.19c.09 0 .12.06.14.14a.43.43 0 000 .16.19.19 0 00.18.15h.13zm0-3.57a1.31 1.31 0 010-2.58zm1.69 1.34a.17.17 0 01.18.17.18.18 0 01-.36 0 .19.19 0 01.15-.2zm-.38-5.62a.19.19 0 01.15.22.17.17 0 01-.15.14.18.18 0 01-.15-.21.19.19 0 01.15-.14zm.37 3.92h-1.28a.06.06 0 010-.06v-1.83h1.28zm2.07-.19a.18.18 0 01-.18-.18.18.18 0 01.17-.18.19.19 0 01.18.18.18.18 0 01-.18.17zM35.36 191.68H32a.46.46 0 00-.45.46.45.45 0 00.45.45h3.33a.45.45 0 00.45-.45.46.46 0 00-.45-.46zM33.7 194.08a1.19 1.19 0 001.19-1.2H32.5a1.19 1.19 0 001.19 1.2z" class="cls-4"/>
      <path d="M30.04 184.14v.16h.63v-.94h.96v-.65H30.67V181.76h-.63v.95h-.96v.65h.96v.78zM37.83 129.94v-.47H37.24v.87h-.87v.6h.87v.87h.59v-.87h.88v-.6h-.88v-.4z" class="cls-4"/>
      <path d="M38 128.32l.19-1.43a.46.46 0 00-.41-.52h-.22l.61-2.13a.11.11 0 000-.08.06.06 0 00-.06 0l-.36-.11h-.11s-.05 0-.05.07l-.07.22-.14.49-.14.5-.14.51-.15.48v.09h-.2l.17-.62.2-2.28v-.08H36.66a.09.09 0 00-.07 0v.07l-.25 3a.42.42 0 00-.28.14l-.29-2.72v-.27a.12.12 0 000-.08H35.3a.11.11 0 000 .08l.05.42v.42l.15 1.42v.53l.05.52.09.81a2.15 2.15 0 01-.4.45l-.19-1.86v-.83l-.07-.67a.12.12 0 00-.11-.1h-.6a.11.11 0 000 .08v.48h.1a.37.37 0 01.2.12.32.32 0 01.06.23l-.19 1.46.08.81v.52a2 2 0 01-.53.16v-.35l.15-1.14.06-.42v-.41l.08-.65a.14.14 0 000-.09H34a.06.06 0 00-.06 0 .12.12 0 00-.05.07l-.41 3.1h-.19l.41-3.1a.29.29 0 01.05-.13l.36-2.71a.12.12 0 00-.09-.13h-.37a.13.13 0 00-.13.1l-.15 1.2h.16a.32.32 0 01.2.12.28.28 0 01.06.23l-.58 4.4-.19-.06.58-4.37a.11.11 0 000-.08.1.1 0 00-.07 0h-.36a.09.09 0 00-.07 0 .09.09 0 000 .06l-.26 2-.27 2v.18l-.2-.15.1-3.39a.11.11 0 000-.08.09.09 0 00-.07 0h-.44a.1.1 0 00-.05.08v.72l-.05 1.77v.21a2 2 0 01-.18-.58l.07-2.13a.29.29 0 01.26-.29l.26-3.13a.11.11 0 000-.08.12.12 0 00-.07 0h-.37a.12.12 0 00-.12.11l-.11 1.24a.4.4 0 01.07.18v4a.49.49 0 00-.2-.25v-3.71a.1.1 0 00-.07-.1h-.41a.12.12 0 00-.11.11v3.65h-.24l-.3-3a.16.16 0 000-.07h-.07l-.51.07a.11.11 0 00-.1.12l.3 2.91h-.2a.48.48 0 00-.35.16.47.47 0 00-.1.36l.92 6.66a.45.45 0 00.45.4h6.22a.46.46 0 00.46-.4l.08-.57h.1a2.36 2.36 0 00.49-4.66zm-1.11 5.18h-6.33l-.92-6.67h1.42a2.47 2.47 0 00.11.54 2.76 2.76 0 00.2.47c.07.11.13.21.2.3l.05.07.1.12.1.09a1.49 1.49 0 00.27.23l.25.16h.18l.27.1.21.06h1a2.57 2.57 0 00.62-.16 2.33 2.33 0 00.52-.27l.26-.2h.05l.18-.19a2.82 2.82 0 00.42-.62 2.71 2.71 0 00.25-.87h1.41l-.18 1.43a2.35 2.35 0 00-.54 4.65zm.62-1a1.72 1.72 0 01-.44-.06 1.86 1.86 0 01.48-3.67 2.1 2.1 0 01.43 0 1.86 1.86 0 01-.43 3.68z" class="cls-4"/>
      <path d="M30.23 123.18a.36.36 0 01.11.21l.15 1.48v-2.12a.32.32 0 01.22-.29v-.33a.1.1 0 00-.11-.1h-.37a.12.12 0 00-.1.12l.11 1zM37.26 123.29a.34.34 0 01.07.22l-.11 1.28.14-.51.18-2v-.08a.12.12 0 00-.08 0h-.37a.12.12 0 00-.12.1l-.08.94h.18a.3.3 0 01.19.05zM35 124.75v-.27l-.09-.86a.3.3 0 01.25-.33l.25-1.93a.11.11 0 000-.08.12.12 0 00-.07 0h-.43a.1.1 0 000 .07l-.48 3.35h.26a.31.31 0 01.31.05zM32.56 124.81l-.05 1.48.29-2.11a.28.28 0 01.12-.21l.15-1.81a.11.11 0 000-.08L33 122h-.37a.11.11 0 00-.11.1l-.21 2.38a.34.34 0 01.2.09.32.32 0 01.05.24zM35.9 123.52l.24 2.35.21-2.44a.06.06 0 010-.06l.08-1a.12.12 0 00-.09-.12h-.37a.09.09 0 00-.11.09l-.08 1a.33.33 0 01.12.18zM34.3 128.4l.08.01-.03-.33-.05.32zM33.4 103.44h.54v25.55h-.54zM33.4 133.7h.54v17.95h-.54zM33.4 163.15h.54v27.73h-.54zM33.4 193.57h.54v17.78h-.54z" class="cls-4"/>
    </g>
    <g class="cls-3">
      <path d="M33.83 63.2v.8l2.6 2.8h-1.76l-.84-.84v2.34l3.84-1.25h.01l-3.85-3.85zM33.83 71.19l3.84-3.83-3.84 1.25v2.58zM29.7 67.05l3.83 1.25v-2.34l-.74.84h-1.76l2.5-2.8v-.8l-3.84 3.85h.01zM33.53 71.19v-2.58l-3.83-1.25 3.83 3.83zM38.41 62.37h-.59v.87h-.87v.6h.87v.87h.59v-.87h.88v-.6h-.88v-.87z" class="cls-4"/>
      <path d="M40.48 63.54a2.37 2.37 0 00-2.36-2.36 2.35 2.35 0 00-1.66.68 6 6 0 00-5.12-.2 6.05 6.05 0 00-2.65 2.18 6 6 0 00-.88 2.16 6.16 6.16 0 000 2.42 5.51 5.51 0 00.36 1.13 6 6 0 004.33 3.55 6.21 6.21 0 002.43 0 6.42 6.42 0 001.13-.35 6.12 6.12 0 002.65-2.18 6 6 0 00.9-4.58 4.7 4.7 0 00-.12-.51 2.38 2.38 0 00.99-1.94zm-1.38 2.55a5.53 5.53 0 010 2.22 4.92 4.92 0 01-.33 1 5.52 5.52 0 01-4 3.23 5.58 5.58 0 01-2.23 0 5.44 5.44 0 01-1-.32 5.53 5.53 0 013.26-10.46 6.14 6.14 0 011 .32l.31.15A2.36 2.36 0 0039 65.7q.06.21.1.39zm.19-1.09a1.9 1.9 0 01-.43.26 1.85 1.85 0 01-2.29-2.77 1.68 1.68 0 01.33-.37A1.87 1.87 0 1139.29 65zM33.7 6.13a1.58 1.58 0 10-1.55-1.6 1.56 1.56 0 001.55 1.6z" class="cls-4"/>
      <path d="M35.42 5.7a2 2 0 01-.8.72l-.79 2.32a2.29 2.29 0 00-.07.28 4.22 4.22 0 01-.06.42 1.75 1.75 0 00-.07-.44c0-.12-.05-.21-.06-.28l-.77-2.29a2.11 2.11 0 01-.8-.73.64.64 0 00-.62.55l-.7 4.41.62-.11a.63.63 0 00.53-.55l.27-2.23c0-.3.06-.59.06-.88v-.15c.05.26.1.46.13.62a2.25 2.25 0 00.06.25L33.1 10a.64.64 0 00.62.43.63.63 0 00.62-.43l.75-2.39.09-.33a3.12 3.12 0 01.1-.52v1.08L35.6 10a.63.63 0 00.52.55l.62.1-.67-4.35a.62.62 0 00-.64-.6zM38.42 2.67h-.59v.88h-.87v.59h.87v.88h.59v-.88h.88v-.59h-.88v-.88z" class="cls-4"/>
      <path d="M40.49 3.85a2.35 2.35 0 00-4-1.68 6 6 0 00-4-.56 5.48 5.48 0 00-1.13.39 6.05 6.05 0 00-2.65 2.18 6 6 0 00-.9 2.18 6.16 6.16 0 000 2.42 6 6 0 004.67 4.69 6.62 6.62 0 002.43 0 5.71 5.71 0 001.09-.4 6.05 6.05 0 002.65-2.18 5.83 5.83 0 00.89-2.17 6.06 6.06 0 000-2.4 4.05 4.05 0 00-.12-.5 2.37 2.37 0 001.07-1.97zm-1.38 4.76a5.23 5.23 0 01-.32 1 5.53 5.53 0 01-9.68.94 5.68 5.68 0 01-.83-2 5.53 5.53 0 016.53-6.52 5.13 5.13 0 011 .32 1.77 1.77 0 01.31.15A2.36 2.36 0 0039 6l.09.36a5.53 5.53 0 01.02 2.25zm.19-3.3a2 2 0 01-.43.25 1.86 1.86 0 01-2.29-2.77 1.7 1.7 0 01.34-.37 1.87 1.87 0 012.38 2.89zM35.31 40.14l.34.14.16-.32-.32-.19a1.59 1.59 0 00-.18.37zM35.68 39.44l.32.2.21-.31-.3-.18zM36.12 31.94a2.33 2.33 0 00-.34-.2l-.17.32.3.19zM36.51 38.17l.34.18c.06-.12.12-.23.17-.35l-.33-.16zM35.42 31.56l-.37-.14c0 .13-.08.24-.11.36l.34.13zM36.92 33.28l.32-.2a3.43 3.43 0 00-.24-.33l-.29.23zM36.84 37.5l.34.15.15-.36-.33-.14zM37.24 33.93l.35-.13c-.05-.13-.1-.25-.16-.37l-.33.14c.05.14.09.24.14.36zM37.41 34.62a1.2 1.2 0 00.37 0 2.63 2.63 0 00-.06-.39l-.35.08a1 1 0 00.04.31zM34.66 31.32l-.39-.07c0 .12 0 .24-.05.37l.36.06c.04-.12.04-.24.08-.36zM36.12 38.81l.31.21.22-.33-.32-.16zM36.48 32.71l.26-.27a2.35 2.35 0 00-.29-.26l-.23.29.14.12zM37.42 35.35h.36a2.54 2.54 0 000-.39h-.37c.02.16 0 .27.01.39z" class="cls-4"/>
      <path d="M37.41 35.73a.59.59 0 00-.37 0 .59.59 0 00-.33.33h-1.15a4.7 4.7 0 010-.75h.76a.14.14 0 00.13-.08.24.24 0 000-.12v-.75a.53.53 0 10-.73-.29.55.55 0 00.33.32V35h-.56v-.36a.19.19 0 00-.19-.2h-.37v-1a.56.56 0 00.35-.71.57.57 0 00-.54-.38.56.56 0 00-.5.62.55.55 0 00.38.47v1h-.74v-3a.19.19 0 00-.16-.22c-.21 0-.41 0-.62.05a3.78 3.78 0 00-.74.17 2.56 2.56 0 10-3.86 3.37 2.59 2.59 0 001.16.76 2.36 2.36 0 00.09.52 7.33 7.33 0 00.41 1.36 6.58 6.58 0 00.62 1.28c.15.24.32.47.48.7a5.2 5.2 0 01.42.72 2.91 2.91 0 01.16.5.45.45 0 00-.21.38.45.45 0 00.45.45h3.33a.45.45 0 00.45-.45.45.45 0 00-.45-.45h-1.53V37a1.09 1.09 0 01.36 0v.53a.11.11 0 000 .08.18.18 0 00.19.13H35V38h-.07a.54.54 0 00-.29.57.56.56 0 00.59.54.56.56 0 00.54-.59.55.55 0 00-.33-.5.09.09 0 010-.09v-.32a.21.21 0 000-.11.19.19 0 00-.17-.1h-.57V37h.74a.17.17 0 00.18-.22v-.34h1.15a.58.58 0 00.62.36.56.56 0 00.46-.65.59.59 0 00-.38-.44zm-1.11-2.08a.19.19 0 01.18.18.18.18 0 01-.21.15.17.17 0 01-.15-.15.18.18 0 01.16-.18zm-3.19-2h.37v1.26h-.09a.21.21 0 00-.23.19.38.38 0 010 .18.1.1 0 01-.07.07H33v-.18a2.72 2.72 0 00-.39-1.36 5.41 5.41 0 01.5-.18zM29.55 35a2 2 0 011.62-3.73 2.24 2.24 0 01.59.39 2.55 2.55 0 01.26.3 2 2 0 01.37 1.17v.1a2 2 0 01-1.13 1.72 2.13 2.13 0 01-.9.22 3 3 0 01-.42 0 2.91 2.91 0 01-.39-.17zm3.93 5.57h-1.31v-.09a2.9 2.9 0 00-.31-.75 8 8 0 00-.51-.78 7.38 7.38 0 01-1-1.93 6.82 6.82 0 01-.3-1.07 1.47 1.47 0 00-.05-.29 2.43 2.43 0 00.38 0 2.72 2.72 0 00.49-.05V36a.2.2 0 00.18.2h.27a.18.18 0 000 .13l-.2.17a.19.19 0 00-.05.25 2.33 2.33 0 00.32.55.2.2 0 00.27.08l.21-.07c.11.09.11.09.07.21a1.26 1.26 0 000 .12.19.19 0 00.08.25l.38.24.18.09a.2.2 0 00.25-.06L33 38c.09 0 .12 0 .14.14a.38.38 0 000 .15.19.19 0 00.18.16h.13zm0-3.56a1.31 1.31 0 010-2.59zm1.69 1.34a.17.17 0 01.18.17.18.18 0 11-.36 0 .18.18 0 01.18-.17zm-.38-5.62a.16.16 0 01.18.16.17.17 0 01-.17.19.19.19 0 01-.15-.22.19.19 0 01.14-.15zm.37 3.92h-1.28a.06.06 0 010-.06v-1.78h1.28zm2.07-.19a.18.18 0 01-.18-.18.17.17 0 01.17-.18.18.18 0 01.18.17.19.19 0 01-.17.2zM35.36 41.77H32a.45.45 0 100 .9h3.33a.45.45 0 100-.9zM33.7 44.16A1.19 1.19 0 0034.89 43H32.5a1.2 1.2 0 001.18 1.2z" class="cls-4"/>
      <path d="M30.04 34.22v.16h.63V33.44h.96v-.65H30.67V31.84h-.63v.95h-.96v.65h.96v.78zM33.4-16.22h.54V1.73h-.54zM33.4 13.22h.54v27.73h-.54zM33.4 43.65h.54v17.78h-.54z" class="cls-4"/>
    </g>
    <g class="cls-3">
      <path d="M21 56.49h-.22a3.7 3.7 0 01-2.32-1.06 3.76 3.76 0 01-.05-5.32.26.26 0 01.35 0l.57.56a4.8 4.8 0 013.75-2.18.24.24 0 01.24.26.29.29 0 010 .09 4.26 4.26 0 00-.23 2.47l.57-.71a.23.23 0 01.19-.09H24a.24.24 0 01.21.11 3.77 3.77 0 01-.93 5.24 3.82 3.82 0 01-2.1.62zm-1-2.78a1.18 1.18 0 00-.39.92 1.36 1.36 0 001.2 1.37H21a1.37 1.37 0 001.31-1.35 2.34 2.34 0 00-1.15-2.25A2.06 2.06 0 0121 54a.26.26 0 01-.2.13h-.07a.87.87 0 01-.73-.41zm.62-2.1h.08a2.87 2.87 0 012.14 3 1.76 1.76 0 01-.31 1A3.25 3.25 0 0024 51.27a2.12 2.12 0 00-.11-.21l-.73.92a.28.28 0 01-.19.09.25.25 0 01-.19-.17 4.75 4.75 0 010-2.89 4.28 4.28 0 00-3.1 2.16.24.24 0 01-.18.13.26.26 0 01-.18-.07l-.62-.62a3.26 3.26 0 00.28 4.59l.07.06.35.26a1.88 1.88 0 01-.19-.84 1.67 1.67 0 01.79-1.56.26.26 0 01.34.1.11.11 0 010 .08.39.39 0 00.27.31 1.49 1.49 0 00-.23-1.61.24.24 0 010-.35.27.27 0 01.17-.06z" class="cls-4"/>
      <path d="M21.09 58.7a6.43 6.43 0 01-1.24-.12A6 6 0 0115.51 55a6.29 6.29 0 01-.34-1.12 6 6 0 013.55-6.75 5.59 5.59 0 011.12-.35 6 6 0 017.16 4.7 6.16 6.16 0 010 2.42 6 6 0 01-3.55 4.33 5.73 5.73 0 01-2.34.47zm0-11.53A5.48 5.48 0 0016 50.54a4.67 4.67 0 00-.33 1A5.53 5.53 0 0020 58.1a6 6 0 002.23 0 5.56 5.56 0 004-3.26 6.56 6.56 0 00.32-1 5.53 5.53 0 000-2.22 5.68 5.68 0 00-.83-2 5.51 5.51 0 00-3.46-2.32 5.19 5.19 0 00-1.11-.08zM21.25 168.08v.8l2.59 2.8h-1.76l-.83-.83v2.34l3.84-1.26-3.84-3.85zM21.25 176.08l3.84-3.84-3.84 1.25v2.59zM17.11 171.93l3.84 1.26v-2.34l-.75.83h-1.76l2.51-2.8v-.8l-3.85 3.85h.01zM20.95 176.08v-2.59l-3.84-1.25 3.84 3.84zM25.82 167.25h-.58V168.13H24.36v.6h.88v.86h.58v-.86h.88v-.6h-.88v-.88z" class="cls-4"/>
      <path d="M27.89 168.42a2.36 2.36 0 00-4-1.7 5.82 5.82 0 00-1.56-.56 6.16 6.16 0 00-2.42 0 6.53 6.53 0 00-1.14.35 6 6 0 00-2.64 2.18 6 6 0 1010 6.73 5.87 5.87 0 00.92-2.15 6.16 6.16 0 000-2.42c0-.17-.09-.35-.13-.51a2.36 2.36 0 00.97-1.92zM26.51 171a5.51 5.51 0 11-10.8 0 7.36 7.36 0 01.32-1 5.61 5.61 0 012-2.43 5.5 5.5 0 012-.83 5.57 5.57 0 013.26.32l.31.15a2.34 2.34 0 00.68 3.25 2.31 2.31 0 002.18.21c0 .06.03.18.05.33zm.19-1.08a1.93 1.93 0 01-2.9-.65 1.88 1.88 0 01.18-1.87 1.94 1.94 0 01.33-.37 1.88 1.88 0 112.39 2.89zM21.11 111a1.57 1.57 0 10-1.57-1.57 1.57 1.57 0 001.57 1.57z" class="cls-4"/>
      <path d="M22.86 110.61a2.18 2.18 0 01-.81.7l-.78 2.31a2.68 2.68 0 00-.07.27 3.41 3.41 0 01-.06.43 1.67 1.67 0 00-.07-.41 2.13 2.13 0 00-.06-.28l-.76-2.32a2.14 2.14 0 01-.82-.7.61.61 0 00-.62.54l-.68 4.39.59-.11a.63.63 0 00.53-.55l.27-2.24a8.47 8.47 0 00.07-.88v-.16c.05.26.1.47.13.62a2.11 2.11 0 00.06.26l.76 2.33a.62.62 0 00.62.44.61.61 0 00.61-.44l.78-2.33a1.68 1.68 0 01.09-.33c0-.14.06-.32.1-.52v.19a1.71 1.71 0 000 .32 3.28 3.28 0 00.06.52l.26 2.24a.63.63 0 00.53.55 3.69 3.69 0 01.62.11l-.73-4.4a.61.61 0 00-.62-.55zM25.84 107.55h-.6V108.43h-.87v.6h.87v.86h.6v-.86h.87v-.6h-.87v-.88z" class="cls-4"/>
      <path d="M27.9 108.72a2.35 2.35 0 00-2.34-2.36 2.32 2.32 0 00-1.67.69 5.89 5.89 0 00-1.57-.56 6.16 6.16 0 00-2.42 0 6 6 0 00-4.69 4.68 6.21 6.21 0 000 2.43 6.32 6.32 0 00.35 1.12 6.16 6.16 0 002.18 2.66 6 6 0 002.16.9 6.16 6.16 0 002.42 0 5.48 5.48 0 001.13-.35A6 6 0 0027 113.6a6.21 6.21 0 000-2.43c0-.17-.08-.34-.13-.5a2.36 2.36 0 001.03-1.95zm-1.38 4.78a5.44 5.44 0 01-.32 1 5.65 5.65 0 01-2 2.43 5.53 5.53 0 01-4.2.83 4.67 4.67 0 01-1-.33 5.52 5.52 0 01-1-9.63 5.54 5.54 0 014.2-.83 5.23 5.23 0 011 .32l.31.15a2.36 2.36 0 002.86 3.47 2.37 2.37 0 01.09.36 3.54 3.54 0 010 2.23zm.19-3.31a2.05 2.05 0 01-.43.26 1.86 1.86 0 01-2.28-2.78 2.37 2.37 0 01.34-.37 1.87 1.87 0 012.38 2.89zM22.72 145.05l.35.13.15-.33-.32-.18a2.64 2.64 0 00-.18.38zM23.1 144.32l.32.2.21-.31-.31-.21zM23.53 136.82a3.79 3.79 0 00-.34-.2 3.41 3.41 0 00-.19.38l.31.18a2 2 0 00.22-.36zM23.93 143.06l.33.17.17-.35-.33-.16zM22.86 136.44l-.37-.14a2.92 2.92 0 00-.11.36l.34.12a.75.75 0 01.14-.34zM24.34 138.16l.31-.2a3.71 3.71 0 00-.23-.32l-.29.23zM24.25 142.38l.34.15.15-.36-.35-.13zM24.65 138.81l.35-.12a2.5 2.5 0 00-.15-.38l-.34.16zM24.82 139.5h.37a1.35 1.35 0 00-.08-.4l-.36.09c.03.08.05.2.07.31zM22.07 136.2l-.39-.07v.38l.35.06c-.03-.13.02-.24.04-.37zM23.54 143.69l.3.21.22-.32-.32-.21zM23.88 137.61l.26-.26a3.45 3.45 0 00-.28-.26l-.24.28.14.13zM24.83 140.23h.37a2.41 2.41 0 000-.38h-.36c.01.15-.02.24-.01.38z" class="cls-4"/>
      <path d="M24.82 140.61a.56.56 0 00-.7.35H23a4.7 4.7 0 010-.75h.75a.18.18 0 00.17-.19v-.78a.57.57 0 00.36-.62.55.55 0 00-.53-.44.56.56 0 00-.58.54.67.67 0 000 .24.66.66 0 00.33.31v.62H23v-.42a.18.18 0 00-.17-.2h-.39v-1a.57.57 0 00.36-.66.56.56 0 10-.74.66v1h-.74v-3a.2.2 0 00-.19-.21 3.18 3.18 0 00-.62 0 4.55 4.55 0 00-.73.17 2.57 2.57 0 10-2.7 4.13 4.34 4.34 0 00.08.52 7.11 7.11 0 00.41 1.36 7 7 0 00.62 1.29c.15.23.32.46.47.7a4.25 4.25 0 01.43.7 5 5 0 01.16.51.47.47 0 00-.21.39.45.45 0 00.45.45h3.32a.46.46 0 00.4-.51.45.45 0 00-.4-.4h-1.52v-3.47a1 1 0 01.35 0v.61a.21.21 0 00.19.13h.55v.21h-.07a.56.56 0 00.33 1.06.56.56 0 00.45-.57.53.53 0 00-.32-.49.09.09 0 01-.06-.09 1.82 1.82 0 000-.33.2.2 0 000-.11.15.15 0 00-.16-.09H22v-.38h.74a.18.18 0 00.19-.12v-.44h1.17a.55.55 0 00.71.35.56.56 0 000-1.07zm-1.1-2.08a.18.18 0 01.17.18.18.18 0 01-.18.18.18.18 0 01-.18-.17.19.19 0 01.19-.19zm-3.2-2h.37v1.29h-.09a.22.22 0 00-.23.19v.18a.07.07 0 01-.07.07h-.07V138a2.56 2.56 0 00-.39-1.35 2.91 2.91 0 01.48-.13zM17 139.86a2 2 0 011.48-3.79 2.17 2.17 0 01.69.45 1.48 1.48 0 01.26.3 2 2 0 01.38 1.17v.09a2 2 0 01-1.13 1.73 2 2 0 01-.89.21 2 2 0 01-.43 0 2.17 2.17 0 01-.36-.16zm3.92 5.57h-1.34v-.09a2.34 2.34 0 00-.31-.75 8.18 8.18 0 00-.51-.79 7.38 7.38 0 01-1-1.93 10 10 0 01-.3-1.07 1.26 1.26 0 00-.05-.28h.38a2.83 2.83 0 00.5-.05v.38a.2.2 0 00.18.21h.26v.12l-.18.18a.18.18 0 00-.06.24 2.43 2.43 0 00.33.56.2.2 0 00.26.08l.22-.07c.1.08.1.08.07.2a.69.69 0 000 .13.18.18 0 00.08.24 3 3 0 00.38.24.76.76 0 00.18.09.2.2 0 00.25 0l.16-.18c.08 0 .12 0 .13.14a.38.38 0 000 .15.19.19 0 00.18.16h.13zm0-3.57a1.13 1.13 0 01-.58-.23 1.26 1.26 0 01-.52-.83 1.3 1.3 0 011.07-1.51zm1.69 1.35a.17.17 0 01.18.15.17.17 0 01-.17.18.17.17 0 01-.18-.17.17.17 0 01.17-.16zm-.34-5.6a.18.18 0 11-.18.18.18.18 0 01.17-.18zm.36 3.92h-1.34v-1.85h1.28zm2.07-.18a.2.2 0 01-.15-.22.23.23 0 01.15-.15.18.18 0 01.18.18.17.17 0 01-.19.17zM22.77 146.65h-3.32a.45.45 0 100 .9h3.32a.45.45 0 000-.9zM21.11 149a1.19 1.19 0 001.19-1.18h-2.39a1.19 1.19 0 001.18 1.2z" class="cls-4"/>
      <path d="M17.45 139.1v.17h.64v-.95h.95v-.65H18.09V136.72h-.64v.95h-.95v.65h.95v.78zM25.24 84.9v-.46H24.65v.87h-.88v.59h.88v.88h.59v-.88h.88v-.59h-.88v-.41z" class="cls-4"/>
      <path d="M25.44 83.3l.19-1.44a.46.46 0 00-.4-.51H25l.62-2.13a.06.06 0 000-.08.1.1 0 00-.06 0l-.36-.1h-.05a.13.13 0 00-.06.07l-.06.22-.14.5-.14.48-.15.51-.13.5v.08h-.21l.18-.62.19-2.28a.11.11 0 000-.08.12.12 0 00-.08 0H24a.05.05 0 000 .05l-.25 2.94a.42.42 0 00-.28.14l-.28-2.72v-.27-.07a.09.09 0 00-.07 0h-.38a.09.09 0 00-.08 0 .09.09 0 000 .07l.05.42v.42l.14 1.43.06.53.05.52.08.81a2.11 2.11 0 01-.39.45l-.2-1.86v-.84l-.1-.64a.12.12 0 00-.11-.1h-.41a.11.11 0 000 .08v.54h.1a.28.28 0 01.21.12.27.27 0 010 .23l-.19 1.46.08.8v.53a2.46 2.46 0 01-.53.15v-.35l.15-1.14.05-.41.06-.42.08-.62a.11.11 0 000-.08h-.54a.11.11 0 000 .08l-.41 3.09h-.2l.41-3.06a.21.21 0 01.05-.13l.36-2.72a.12.12 0 00-.09-.13L21 77.6a.11.11 0 00-.12.1l-.17 1.24h.17a.36.36 0 01.21.11.38.38 0 01.06.23l-.59 4.4-.19-.06.63-4.33a.11.11 0 000-.08.15.15 0 00-.07 0h-.44v.06l-.26 2-.27 2v.17a1.3 1.3 0 01-.2-.15l.1-3.39a.09.09 0 000-.07h-.51a.11.11 0 00-.05.09v.71l-.06 1.73v.21a2.12 2.12 0 01-.18-.62L19 79.71a.37.37 0 01.1-.22.38.38 0 01.17-.08l.22-3.11a.07.07 0 00-.07-.11h-.37a.09.09 0 00-.11.09l-.11 1.23a.31.31 0 01.06.19v4a.44.44 0 00-.19-.25V77.7a.11.11 0 00-.08-.1h-.49a.1.1 0 000 .08v3.65h-.23l-.31-3a.07.07 0 000-.06h-.43a.12.12 0 00-.1.12l.3 2.91h-.21a.46.46 0 00-.35.16.44.44 0 00-.11.36l.91 6.67a.47.47 0 00.46.39h6.32a.45.45 0 00.45-.4l.08-.56H25a2.36 2.36 0 00.49-4.67zm-1.11 5.17H18l-1-6.67h1.41a2.36 2.36 0 00.12.54 2.55 2.55 0 00.2.48 1.57 1.57 0 00.2.3l.05.06.1.12.1.09.27.22.25.16h.05l.1.05H20l.27.11h1.05a2.57 2.57 0 001.16-.44 2.48 2.48 0 00.26-.19l.05-.05.18-.18a2.64 2.64 0 00.67-1.5H25L24.82 83h-.07a2.35 2.35 0 00-.53 4.65zm.62-1l-.44-.06a1.86 1.86 0 01.49-3.67 2.1 2.1 0 01.43.05 1.86 1.86 0 01-.43 3.68z" class="cls-4"/>
      <path d="M17.64 78.16a.35.35 0 01.12.21l.14 1.47v-2.13a.32.32 0 01.22-.29v-.34A.12.12 0 0018 77h-.37a.1.1 0 00-.1.11l.1 1zM24.67 78.25a.3.3 0 01.07.23l-.11 1.27.15-.51.17-2a.11.11 0 000-.08h-.44a.12.12 0 00-.13.1l-.1.94h.18a.29.29 0 01.21.05zM22.39 79.72v-.27l-.09-.87a.31.31 0 01.25-.33l.28-2a.11.11 0 000-.08.12.12 0 00-.08 0l-.36-.05h-.07a.1.1 0 000 .07l-.44 3.31h.26a.3.3 0 01.25.22zM20 79.77v1.49l.28-2.11a.3.3 0 01.12-.21l.15-1.81a.11.11 0 000-.08.11.11 0 00-.07 0H20a.1.1 0 00-.12.09l-.2 2.39a.28.28 0 01.19.09.28.28 0 01.13.15zM23.31 78.48l.24 2.36.21-2.45v-.06l.08-1a.11.11 0 00-.1-.12h-.37a.12.12 0 00-.12.1l-.08 1a.3.3 0 01.14.17zM21.71 83.36l.08.01-.03-.33-.05.32zM20.81 58.4h.54v25.55h-.54zM20.81 88.66h.54v17.95h-.54zM20.81 118.11h.54v27.73h-.54zM20.81 148.54h.54v17.78h-.54z" class="cls-4"/>
    </g>
    <g class="cls-3">
      <path d="M21.25 18.27v.8l2.59 2.8h-1.76l-.83-.84v2.34l3.84-1.25-3.84-3.85zM21.25 26.27l3.84-3.84-3.84 1.25v2.59zM17.11 22.12l3.84 1.25v-2.34l-.75.84h-1.76l2.51-2.8v-.8l-3.85 3.85h.01zM20.95 26.27v-2.59l-3.84-1.25 3.84 3.84zM25.82 17.44h-.58v.88H24.36v.59h.88v.87h.58v-.87h.88v-.59h-.88v-.88z" class="cls-4"/>
      <path d="M27.89 18.62a2.37 2.37 0 00-4-1.69 5.95 5.95 0 00-4-.56 6.05 6.05 0 00-4.69 4.69 6.16 6.16 0 000 2.42 6 6 0 004.69 4.69 6.16 6.16 0 002.42 0 6 6 0 003.77-2.53 5.84 5.84 0 00.92-2.16 6.16 6.16 0 000-2.42c0-.17-.09-.34-.13-.51a2.33 2.33 0 001.02-1.93zm-1.38 2.57a5.53 5.53 0 010 2.22 5.44 5.44 0 01-.32 1 5.53 5.53 0 01-6.19 3.3 5.56 5.56 0 01-4.31-6.55 6.4 6.4 0 01.31-1.05 5.59 5.59 0 014-3.26 5.73 5.73 0 012.26 0 5.44 5.44 0 011 .32l.31.15a2.36 2.36 0 002.86 3.47 2.57 2.57 0 01.08.4zm.19-1.09a2.34 2.34 0 01-.43.26 1.86 1.86 0 01-2.45-.95 1.69 1.69 0 01-.16-.77 1.81 1.81 0 01.34-1.06 2.28 2.28 0 01.33-.36 1.9 1.9 0 011.24-.46 1.86 1.86 0 011.17 3.34z" class="cls-4"/>
      <path d="M20.81-1.27h.54v17.78h-.54z" class="cls-4"/>
    </g>
  </g>
  <g clip-path="url(#clip-path-2)">
    <g class="cls-3">
      <path d="M8.34 161.41h-.22a3.69 3.69 0 01-2.32-1.07 3.75 3.75 0 01-.07-5.3.24.24 0 01.35 0l.57.55a4.83 4.83 0 013.72-2.18.25.25 0 01.25.25v.1a4.18 4.18 0 00-.24 2.47l.57-.71a.25.25 0 01.19-.09h.13a.26.26 0 01.2.1 3.75 3.75 0 01-3 5.91h-.16zm-1-2.78a1.13 1.13 0 00-.37.92 1.34 1.34 0 001.18 1.34h.2a1.37 1.37 0 001.31-1.34 2.35 2.35 0 00-1.15-2.26 2 2 0 01-.18 1.59.23.23 0 01-.2.12h-.02a.9.9 0 01-.73-.37zm.62-2.1h.07a2.87 2.87 0 012.14 3 1.83 1.83 0 01-.3 1 3.24 3.24 0 001.43-4.36l-.11-.21-.76.92a.25.25 0 01-.2.09.25.25 0 01-.19-.17 4.75 4.75 0 010-2.89 4.28 4.28 0 00-3.1 2.16.24.24 0 01-.18.13.21.21 0 01-.17-.08l-.62-.62a3.26 3.26 0 00.39 4.59 2.42 2.42 0 00.36.27 1.78 1.78 0 01-.21-.85 1.66 1.66 0 01.9-1.48.25.25 0 01.33.09.16.16 0 010 .09.39.39 0 00.27.3 1.5 1.5 0 00-.22-1.51.24.24 0 010-.35.27.27 0 01.17-.06z" class="cls-4"/>
      <path d="M8.45 163.62a5.73 5.73 0 01-1.24-.12 6 6 0 01-2.13-.93 6.16 6.16 0 01-2.18-2.66 5.46 5.46 0 01-.34-1.13A6 6 0 016.14 152a6.29 6.29 0 011.12-.34 6.21 6.21 0 012.43 0 5.83 5.83 0 012.15.9 5.92 5.92 0 012.16 2.69 5.62 5.62 0 01.36 1.12 6.21 6.21 0 010 2.43 6.06 6.06 0 01-3.55 4.34 6.65 6.65 0 01-1.13.34 5.82 5.82 0 01-1.23.14zm0-11.53a6 6 0 00-1.12.11 5.53 5.53 0 00-4 3.26 6.22 6.22 0 00-.32 1 5.52 5.52 0 003.26 6.2 5.44 5.44 0 003.26.32 5.32 5.32 0 002-.83 5.52 5.52 0 002.32-3.46 5.58 5.58 0 000-2.23 5.59 5.59 0 00-3.26-4 4.45 4.45 0 00-1-.32 5.2 5.2 0 00-1.11-.09zM8.6 272.99v.79l2.6 2.8H9.44l-.84-.84v2.34l3.85-1.25-3.85-3.84zM8.6 280.98l3.85-3.84-3.85 1.25v2.59zM4.46 276.83l3.84 1.25v-2.34l-.75.84H5.8l2.5-2.8v-.79l-3.84 3.84zM8.3 280.98v-2.59l-3.84-1.25 3.84 3.84zM13.18 272.15h-.59v.87h-.87v.6h.87v.87h.59v-.87h.88v-.6h-.88v-.87z" class="cls-4"/>
      <path d="M15.25 273.32a2.36 2.36 0 00-4-1.68 6 6 0 00-8.67 4.13 6 6 0 00.35 3.55 6 6 0 004.34 3.56 6.16 6.16 0 002.42 0 5.48 5.48 0 001.13-.35 6.09 6.09 0 003.56-4.34 6.16 6.16 0 000-2.42c0-.17-.09-.34-.13-.5a2.38 2.38 0 001-1.95zm-1.38 2.55a5.58 5.58 0 010 2.23 5.34 5.34 0 01-.32 1 5.54 5.54 0 01-2 2.43 5.28 5.28 0 01-2 .83 5.24 5.24 0 01-2.23 0 5 5 0 01-1-.32 5.52 5.52 0 01-3.26-4 5.54 5.54 0 012.32-5.7 5.68 5.68 0 014.24-.83 5.44 5.44 0 011 .32l.38.17a2.28 2.28 0 00-.39 1.29 2.37 2.37 0 002.37 2.36 2.42 2.42 0 00.88-.17c-.04.14-.01.27.01.39zm.19-1.09a1.59 1.59 0 01-.43.26 1.85 1.85 0 01-2.29-2.77 2.35 2.35 0 01.33-.37 1.87 1.87 0 112.39 2.88zM8.47 215.91a1.58 1.58 0 10-1.57-1.58 1.57 1.57 0 001.57 1.58z" class="cls-4"/>
      <path d="M10.19 215.51a2.07 2.07 0 01-.81.69l-.77 2.32c0 .06 0 .15-.06.28a3.51 3.51 0 00-.07.43 2.47 2.47 0 00-.06-.43c0-.12-.05-.21-.07-.27l-.76-2.32a2.11 2.11 0 01-.83-.71.64.64 0 00-.62.55l-.67 4.38.59-.1a.62.62 0 00.52-.55l.28-2.24c0-.29 0-.58.06-.88v-.15c0 .27.1.47.13.62a1.22 1.22 0 00.06.26l.76 2.33a.59.59 0 00.61.43.6.6 0 00.62-.43l.75-2.36a2 2 0 00.09-.33l.11-.52a.09.09 0 000 .07.24.24 0 000 .12 1.82 1.82 0 000 .33 3.12 3.12 0 000 .52l.27 2.23a.61.61 0 00.52.55l.59.11-.67-4.39a.62.62 0 00-.57-.54zM13.19 212.46h-.59v.87h-.87v.59h.87v.88h.59v-.88h.88v-.59h-.88v-.87z" class="cls-4"/>
      <path d="M15.26 213.63a2.35 2.35 0 00-4-1.7 6.37 6.37 0 00-1.57-.55 5.85 5.85 0 00-2.43 0 5.26 5.26 0 00-1.13.35 6.06 6.06 0 00-3.55 4.33 6.16 6.16 0 000 2.42 6 6 0 004.68 4.69 6.47 6.47 0 002.48 0 6 6 0 004.68-7.11 4.7 4.7 0 00-.12-.51 2.32 2.32 0 00.96-1.92zm-1.38 4.77a5.66 5.66 0 01-.32 1 5.53 5.53 0 01-6.2 3.26 5.23 5.23 0 01-1-.32 5.54 5.54 0 01-3.27-6.2 5.7 5.7 0 01.33-1 5.56 5.56 0 014-3.27 5.16 5.16 0 011.11-.11 5.32 5.32 0 011.12.11 5.66 5.66 0 011 .32l.31.15a2.2 2.2 0 00-.39 1.29 2.36 2.36 0 002.37 2.37 2.42 2.42 0 00.88-.17c0 .12.07.24.09.36a5.58 5.58 0 01-.03 2.21zm.19-3.31a2 2 0 01-.43.25 1.85 1.85 0 01-2.64-1.71 1.89 1.89 0 01.32-1.06 2 2 0 01.34-.37 1.87 1.87 0 012.38 2.89zM10.08 249.92l.34.14.16-.32-.32-.18a3 3 0 00-.18.36zM10.47 249.22l.32.2.21-.31-.31-.21zM10.89 241.72a2.77 2.77 0 00-.34-.2l-.17.32.31.19zM11.29 248l.33.18.17-.35-.33-.16zM10.19 241.34l-.37-.14c0 .12-.08.24-.11.36l.34.13zM11.71 243.06l.31-.2a3.71 3.71 0 00-.23-.32l-.29.22zM11.61 247.28l.34.15.15-.36-.35-.14zM12 243.71l.35-.13a2.39 2.39 0 00-.15-.37l-.34.16zM12.18 244.41a1 1 0 00.37 0c0-.13-.05-.26-.08-.39l-.36.08c.02.07.05.19.07.31zM9.43 241.1L9 241v.37l.35.06c.03-.09.06-.21.08-.33zM10.89 248.59l.31.21.22-.33-.32-.19zM11.24 242.49l.26-.27a2.18 2.18 0 00-.28-.25l-.24.28.14.12zM12.19 245.13a2.19 2.19 0 00.36 0 1.27 1.27 0 000-.39h-.36c.01.16-.01.26 0 .39z" class="cls-4"/>
      <path d="M12.18 245.51a.55.55 0 00-.36 0 .58.58 0 00-.34.33h-1.14a4.7 4.7 0 010-.75h.75a.16.16 0 00.14-.08.24.24 0 000-.12v-.76a.57.57 0 00.36-.65.56.56 0 00-1.11.09.56.56 0 00.38.56v.62h-.55a.08.08 0 010-.07v-.28a.21.21 0 00-.18-.21h-.39v-1a.56.56 0 00.34-.72.56.56 0 00-.72-.34.57.57 0 00-.34.72.55.55 0 00.34.34v1h-.75v-3a.2.2 0 00-.19-.22H7.8a3.53 3.53 0 00-.73.17 2.56 2.56 0 10-3.8 3.44 2.49 2.49 0 001.11.72 2.27 2.27 0 00.09.52 6.92 6.92 0 00.41 1.34 7.61 7.61 0 00.61 1.29l.48.7a4.63 4.63 0 01.43.71 4.16 4.16 0 01.16.5.45.45 0 00.24.84h3.3a.46.46 0 000-.91H8.65v-3.55H9v.62a.18.18 0 00.19.12h.55v.22h-.07a.54.54 0 00-.3.56.56.56 0 00.63.49h.05a.55.55 0 00.44-.56.54.54 0 00-.32-.5.08.08 0 01-.06-.08 1.82 1.82 0 000-.33.21.21 0 000-.11.19.19 0 00-.17-.1h-.55v-.37h.74a.18.18 0 00.19-.12v-.44h1.15a.55.55 0 00.62.36.56.56 0 00.45-.65.59.59 0 00-.38-.44zm-1.09-2.08a.2.2 0 01.18.18.18.18 0 01-.18.18.18.18 0 01-.21-.15.18.18 0 01.14-.21zm-3.2-2h.37v1.29h-.09a.2.2 0 00-.22.19H8a1.16 1.16 0 000 .18.08.08 0 01-.07.07h-.1v-.18a2.56 2.56 0 00-.39-1.35 3.4 3.4 0 01.57-.15zm-3.57 3.34A2 2 0 015.94 241a2.52 2.52 0 01.59.39 2.55 2.55 0 01.26.3 2.09 2.09 0 01.37 1.18v.13a2 2 0 01-2 1.94 3 3 0 01-.42 0 3 3 0 01-.42-.19zm3.93 5.58H6.94v-.09a2.65 2.65 0 00-.31-.76 6.52 6.52 0 00-.51-.78 7.69 7.69 0 01-1-1.93 10 10 0 01-.3-1.07 1.37 1.37 0 00-.05-.28h.38a2.92 2.92 0 00.5 0v.37a.19.19 0 00.17.21h.31v.13l-.18.16a.2.2 0 00-.06.26 3 3 0 00.32.55.21.21 0 00.27.08l.22-.08c.1.09.1.09.06.21v.13a.19.19 0 00.08.25l.38.23.18.09a.19.19 0 00.2-.03l.16-.18a.14.14 0 01.14.13.32.32 0 000 .14.18.18 0 00.18.16h.13zm0-3.56a1.35 1.35 0 01-.58-.24 1.3 1.3 0 01-.52-.84 1.31 1.31 0 011.07-1.51zm1.69 1.33a.17.17 0 01.18.17.18.18 0 01-.18.18.17.17 0 01-.17-.18.17.17 0 01.17-.17zm-.38-5.62a.19.19 0 01.19.17.21.21 0 01-.19.19.19.19 0 01-.17-.19.17.17 0 01.18-.17zm.37 3.92H8.65v-1.83h1.28zm2.07-.19a.18.18 0 11.18-.18.19.19 0 01-.17.2zM10.13 251.56H6.81a.47.47 0 00-.46.46.45.45 0 00.45.45h3.33a.45.45 0 00.45-.45.47.47 0 00-.45-.46zM8.47 253.94a1.19 1.19 0 001.19-1.19H7.27a1.2 1.2 0 001.18 1.2z" class="cls-4"/>
      <path d="M4.81 244v.16h.64v-.94h.95v-.65H5.45V241.62h-.64v.95h-.95v.65h.95v.78zM12.6 189.8v-.47H12.01V190.21h-.88v.6h.88v.86h.59v-.86h.88v-.6h-.88v-.41z" class="cls-4"/>
      <path d="M12.8 188.2l.19-1.44a.52.52 0 00-.11-.36.46.46 0 00-.35-.16h-.2l.62-2.12a.14.14 0 000-.09.15.15 0 00-.06-.05l-.36-.1h-.08a.09.09 0 00-.06.06l-.06.22-.14.5-.14.49-.15.51-.13.49v.08h-.21l.18-.62.19-2.28a.11.11 0 000-.08.2.2 0 00-.08 0h-.37a.11.11 0 00-.08 0l-.25 2.94a.39.39 0 00-.28.15l-.28-2.73v-.27a.12.12 0 000-.08h-.39a.14.14 0 00-.08 0 .11.11 0 000 .08v.41l.05.42.15 1.43.05.53.06.52.08.81a2.15 2.15 0 01-.4.45l-.19-1.86v-.84l-.06-.67a.12.12 0 00-.12-.1h-.4a.11.11 0 000 .08v.5h.09a.37.37 0 01.2.12.24.24 0 01.06.23l-.34 1.62.08.8v.53a2 2 0 01-.53.16v-.35l.1-1.03v-.42l.06-.42.09-.62a.11.11 0 000-.08.09.09 0 00-.08 0h-.31a.08.08 0 00-.07 0 .16.16 0 000 .07l-.4 3.1h-.2l.41-3.1a.29.29 0 010-.13l.36-2.72a.11.11 0 00-.09-.12l-.37-.05a.11.11 0 00-.12.1l-.16 1.21h.16a.29.29 0 01.21.11.28.28 0 01.05.23L8 188.62l-.19-.06.58-4.37a.11.11 0 000-.08.1.1 0 00-.07 0h-.46a.1.1 0 000 .05l-.26 2-.27 2v.18l-.2-.15.1-3.39a.11.11 0 000-.08h-.55a.12.12 0 000 .09v.72l-.16 1.71v.21a2.05 2.05 0 01-.18-.58l.06-2.13a.3.3 0 01.1-.21.29.29 0 01.16-.09l.27-3.14a.11.11 0 000-.08.11.11 0 00-.07 0h-.37a.11.11 0 00-.12.1l-.11 1.23a.28.28 0 01.07.19v3.94a.55.55 0 00-.2-.25v-3.71a.1.1 0 00-.07-.1H5.6a.11.11 0 00-.07 0 .2.2 0 000 .08v3.65h-.31l-.32-3a.08.08 0 000-.06.09.09 0 00-.07 0h-.35a.12.12 0 00-.1.13l.3 2.9h-.26a.45.45 0 00-.35.16.44.44 0 00-.11.36l.94 6.64a.46.46 0 00.46.39h6.35a.45.45 0 00.45-.39l.08-.57h.09a2.36 2.36 0 00.5-4.67zm-1.09 5.15H5.33l-.93-6.64h1.43a2.38 2.38 0 00.11.53 2.06 2.06 0 00.21.48 1.87 1.87 0 00.2.29.18.18 0 00.05.07l.1.12.1.09a2 2 0 00.27.23l.25.15h.18l.27.11h1.08a2.69 2.69 0 00.62-.16 2 2 0 00.52-.28 1.64 1.64 0 00.26-.2l.19-.2a2.77 2.77 0 00.72-1.46h1.42l-.19 1.43a2.36 2.36 0 00-.54 4.66zm.62-1h-.06a1.61 1.61 0 01-.44-.06 1.85 1.85 0 01.47-3.66 1.54 1.54 0 01.43.05 1.85 1.85 0 01-.43 3.68z" class="cls-4"/>
      <path d="M5 183.05a.28.28 0 01.12.21l.14 1.46v-2.13a.32.32 0 01.22-.29v-.3a.1.1 0 00-.11-.09H5a.12.12 0 00-.1.12l.1 1zM12 183.15a.29.29 0 01.07.22l-.07 1.31.15-.51.19-2a.11.11 0 000-.08.13.13 0 00-.07 0h-.38a.1.1 0 00-.11.1l-.08.94h.18a.29.29 0 01.12.02zM9.75 184.61v-.26l-.09-.87a.32.32 0 01.25-.34l.25-1.92a.06.06 0 000-.08h-.44a.06.06 0 00-.06 0v.07l-.44 3.31h.26a.31.31 0 01.27.09zM7.33 184.68v1.48l.28-2.11a.3.3 0 01.12-.21l.15-1.8a.11.11 0 000-.08.15.15 0 00-.07-.05h-.38a.11.11 0 00-.11.11l-.2 2.37a.3.3 0 01.19.1.29.29 0 01.02.19zM10.67 183.38l.24 2.35.21-2.44v-.06l.08-1a.11.11 0 00-.1-.12h-.37a.09.09 0 00-.11.09l-.08 1a.3.3 0 01.13.18zM9.07 188.26l.08.01-.03-.33-.05.32zM8.17 163.3h.54v25.55h-.54zM8.17 193.56h.54v17.95h-.54zM8.17 223h.54v27.73h-.54zM8.17 253.44h.54v17.78h-.54z" class="cls-4"/>
    </g>
    <g class="cls-3">
      <path d="M33.57 251.63h-.22a3.76 3.76 0 01-2.35-6.38.24.24 0 01.35 0l.57.55a4.81 4.81 0 013.72-2.18.27.27 0 01.25.25v.1a4.18 4.18 0 00-.24 2.47l.57-.71a.25.25 0 01.19-.09h.13a.26.26 0 01.2.1 3.75 3.75 0 01-3 5.91h-.13zm-1-2.78a1.13 1.13 0 00-.37.92 1.33 1.33 0 001.17 1.34h.21a1.36 1.36 0 001.3-1.34 2.31 2.31 0 00-1.15-2.26 2 2 0 01-.17 1.59.24.24 0 01-.2.12h-.07a.88.88 0 01-.72-.37zm.62-2.1h.07a2.87 2.87 0 012.14 3 1.83 1.83 0 01-.3 1 3.25 3.25 0 001.47-4.36l-.12-.21-.72.91a.27.27 0 01-.2.09.25.25 0 01-.19-.17 4.78 4.78 0 010-2.9 4.31 4.31 0 00-3.09 2.17.22.22 0 01-.19.12.19.19 0 01-.17-.07l-.62-.62a3.25 3.25 0 00.4 4.59 3.18 3.18 0 00.37.27 1.84 1.84 0 01-.21-.85 1.65 1.65 0 01.86-1.54.25.25 0 01.34.09.14.14 0 010 .09.36.36 0 00.27.31 1.49 1.49 0 00-.23-1.57.26.26 0 010-.35.21.21 0 01.16-.07z" class="cls-4"/>
      <path d="M33.67 253.82a6.51 6.51 0 01-1.24-.12 6 6 0 01-4.32-3.54 5.65 5.65 0 01-.3-3.55 6 6 0 013.56-4.33 5.62 5.62 0 011.12-.36 6.21 6.21 0 012.43 0 5.9 5.9 0 012.14.91 6 6 0 012.52 3.78 6.21 6.21 0 010 2.43 6 6 0 01-3.58 4.33 5.44 5.44 0 01-2.35.45zm0-11.53a6 6 0 00-1.11.11 5.28 5.28 0 00-2 .83 5.52 5.52 0 00-2.33 5.69 5.63 5.63 0 00.83 2 5.54 5.54 0 005.7 2.32 5.35 5.35 0 002-.83 5.5 5.5 0 00-.94-9.63 6.58 6.58 0 00-2.15-.47zM37.83 280.01v-.46H37.24v.87h-.87v.6h.87v.87h.59v-.87h.88v-.6h-.88v-.41z" class="cls-4"/>
      <path d="M38 278.42l.19-1.44a.52.52 0 00-.11-.36.48.48 0 00-.35-.16h-.17l.61-2.12a.14.14 0 000-.09.06.06 0 00-.06-.05l-.36-.11h-.11s-.05 0-.05.07l-.07.22-.14.5-.14.48-.14.52-.15.49v.08h-.2l.17-.62.2-2.28v-.08h-.53v.05l-.25 2.94a.39.39 0 00-.28.15l-.29-2.73v-.27a.12.12 0 000-.08h-.39a.14.14 0 00-.08.05.11.11 0 000 .08v.05l.05.41v.42l.15 1.43v.53l.05.52.09.81a1.9 1.9 0 01-.4.45l-.19-1.86v-.84l-.07-.67a.12.12 0 00-.11-.1h-.6a.11.11 0 000 .08v.5h.1a.37.37 0 01.2.12.32.32 0 01.06.23l-.19 1.46.08.8v.53a2 2 0 01-.53.16v-.36l.15-1.13.06-.42v-.41l.08-.66a.06.06 0 000-.08.08.08 0 00-.07 0H34a.14.14 0 00-.05.08l-.41 3.09h-.19l.41-3.09a.19.19 0 01.05-.13l.36-2.72a.13.13 0 00-.09-.13l-.37-.05a.13.13 0 00-.13.1l-.15 1.21h.16a.31.31 0 01.26.34l-.62 4.53-.19-.05.58-4.37a.11.11 0 000-.08.14.14 0 00-.08-.05h-.42v.06l-.26 2-.27 2v.18l-.2-.15.1-3.39a.11.11 0 000-.08h-.52a.12.12 0 000 .08v.72l-.05 1.78v.16a2.11 2.11 0 01-.18-.59l.06-2.13a.3.3 0 01.1-.21.3.3 0 01.16-.08l.27-3.13a.11.11 0 000-.08l-.08-.05h-.37a.11.11 0 00-.15 0 .11.11 0 000 .15l-.11 1.24a.4.4 0 01.07.19v3.95a.43.43 0 00-.2-.24v-3.89a.1.1 0 00-.07-.1h-.41a.13.13 0 00-.11.11v3.65h-.24l-.3-3v-.06h-.42a.12.12 0 00-.1.13l.3 2.9h-.23a.52.52 0 00-.35.16.47.47 0 00-.1.36l.88 6.63a.46.46 0 00.46.4h6.1a.46.46 0 00.46-.4l.08-.57h.1a2.36 2.36 0 00.49-4.66zm-1.11 5.17h-6.33l-.93-6.59h1.42a1.93 1.93 0 00.11.53 2.55 2.55 0 00.2.48c.07.11.13.21.2.3l.05.06.1.12.09.09a2.26 2.26 0 00.31.23l.25.16h.05l.09.05h.08l.28.1.21.05H34a3.12 3.12 0 00.62-.15 2.87 2.87 0 00.52-.28l.26-.2.18-.19a2.42 2.42 0 00.42-.62 2.62 2.62 0 00.24-.87h1.46l-.18 1.43A2.36 2.36 0 0037 283zm.62-1a1.72 1.72 0 01-.44-.06 1.86 1.86 0 01.48-3.67 2.1 2.1 0 01.43.05 1.87 1.87 0 01-.43 3.72z" class="cls-4"/>
      <path d="M30.23 273.24a.33.33 0 01.11.21l.15 1.47v-2.13a.31.31 0 01.22-.29v-.33a.1.1 0 00-.11-.1h-.37a.12.12 0 00-.1.12l.11 1zM37.26 273.37a.34.34 0 01.07.22l-.11 1.28.14-.51.18-2v-.08a.12.12 0 00-.08 0h-.37a.12.12 0 00-.12.1l-.1.93h.18a.39.39 0 01.21.06zM35 274.83v-.26l-.09-.87a.32.32 0 01.25-.34l.25-1.92a.11.11 0 000-.08.18.18 0 00-.07-.05l-.37-.05h-.06a.12.12 0 000 .08l-.44 3.31h.26a.29.29 0 01.27.18zM32.56 274.89l-.05 1.48.29-2.11a.26.26 0 01.12-.21l.15-1.81a.11.11 0 000-.08.12.12 0 00-.08 0h-.37a.1.1 0 00-.11.1l-.21 2.38a.34.34 0 01.2.09.32.32 0 01.06.16zM35.9 273.6l.24 2.35.21-2.44a.06.06 0 010-.06l.08-1a.12.12 0 00-.09-.12h-.37a.09.09 0 00-.11.09l-.08 1a.33.33 0 01.12.18zM34.3 278.48l.08.01-.03-.33-.05.32zM33.4 253.52h.54v25.55h-.54zM33.4 283.78h.54v17.95h-.54z" class="cls-4"/>
    </g>
    <g class="cls-3">
      <path d="M33.57 101.69h-.22a3.68 3.68 0 01-2.35-1.06 3.76 3.76 0 010-5.31.25.25 0 01.35 0l.57.55a4.78 4.78 0 013.72-2.18.25.25 0 01.25.25V94a4.22 4.22 0 00-.24 2.48l.57-.71a.23.23 0 01.19-.09h.13a.22.22 0 01.2.1 3.75 3.75 0 01-3 5.88zm-1-2.78a1.17 1.17 0 00-.37.93 1.34 1.34 0 001.17 1.34h.21a1.35 1.35 0 001.3-1.34 2.3 2.3 0 00-1.15-2.26 2 2 0 01-.17 1.59.24.24 0 01-.2.12h-.07a.86.86 0 01-.72-.36zm.62-2.1h.07a2.89 2.89 0 012.14 3 1.83 1.83 0 01-.3 1 3.26 3.26 0 001.47-4.37l-.12-.21-.72.91a.28.28 0 01-.2.1.27.27 0 01-.19-.18 4.75 4.75 0 010-2.89 4.25 4.25 0 00-3.09 2.17.25.25 0 01-.19.12.28.28 0 01-.17-.07l-.62-.62a3.25 3.25 0 00.4 4.59 3.09 3.09 0 00.37.26 1.77 1.77 0 01-.21-.84 1.68 1.68 0 01.86-1.55.26.26 0 01.34.1v.08a.36.36 0 00.27.31 1.48 1.48 0 00-.3-1.53.27.27 0 010-.36.25.25 0 01.16-.06z" class="cls-4"/>
      <path d="M33.67 103.9a6 6 0 01-5.54-3.67 6.43 6.43 0 01-.32-1.14 6.16 6.16 0 010-2.42 6 6 0 013.56-4.33 6.32 6.32 0 011.12-.34 6 6 0 014.57.9 6.07 6.07 0 012.52 3.78 6.21 6.21 0 010 2.43 6 6 0 01-.91 2.15 5.92 5.92 0 01-2.67 2.16 5.62 5.62 0 01-1.12.36 6.41 6.41 0 01-1.21.12zm0-11.54a6 6 0 00-1.11.11 5.56 5.56 0 00-4.3 6.53 5.68 5.68 0 00.83 2 5.6 5.6 0 002.44 2 5.23 5.23 0 001 .32 5.53 5.53 0 002.22 0 5.32 5.32 0 002-.83 5.62 5.62 0 002-2.42 5.55 5.55 0 00-2.94-7.24 6.25 6.25 0 00-1-.32 5.26 5.26 0 00-1.14-.15zM33.83 213.29v.78l2.6 2.81h-1.76l-.84-.84v2.34l3.84-1.25h.01l-3.85-3.84zM33.83 221.28l3.84-3.84-3.84 1.25v2.59zM29.7 217.13l3.83 1.25v-2.34l-.74.84h-1.76l2.5-2.81v-.78l-3.84 3.84h.01zM33.53 221.28v-2.59l-3.83-1.25 3.83 3.84zM38.41 212.45h-.59v.87h-.87v.6h.87v.87h.59v-.87h.88v-.6h-.88v-.87z" class="cls-4"/>
      <path d="M40.48 213.62a2.35 2.35 0 00-4-1.69 6 6 0 00-8.67 4.13 6.21 6.21 0 000 2.43 6.69 6.69 0 00.35 1.13 6 6 0 004.33 3.55 5.85 5.85 0 002.43 0 6.17 6.17 0 001.13-.35 5.94 5.94 0 002.65-2.18 6 6 0 00.88-4.57 4.7 4.7 0 00-.12-.51 2.37 2.37 0 001.02-1.94zm-1.38 2.55a5.58 5.58 0 010 2.23 4.75 4.75 0 01-.33 1 5.48 5.48 0 01-4 3.26 5.58 5.58 0 01-2.23 0 5.51 5.51 0 01-4.3-4.29 5.58 5.58 0 010-2.23 5.51 5.51 0 014.3-4.3 5.58 5.58 0 012.23 0 5.34 5.34 0 011 .32l.31.14a2.36 2.36 0 002.92 3.51q.06.19.1.36zm.19-1.09a1.59 1.59 0 01-.43.26 1.85 1.85 0 01-2.29-2.77 1.68 1.68 0 01.33-.37 1.87 1.87 0 112.39 2.88zM33.7 156.19a1.57 1.57 0 10-1.55-1.59 1.57 1.57 0 001.55 1.59z" class="cls-4"/>
      <path d="M35.42 155.81a2.14 2.14 0 01-.8.69l-.77 2.32a2.29 2.29 0 00-.07.28 4.22 4.22 0 01-.06.42 1.75 1.75 0 00-.07-.42 2.26 2.26 0 00-.07-.28l-.76-2.32a1.89 1.89 0 01-.81-.7.64.64 0 00-.62.55l-.67 4.38.62-.1a.62.62 0 00.52-.55l.27-2.24a6.4 6.4 0 00.06-.88v-.15c.06.27.1.47.13.62s.06.22.06.26l.76 2.32a.62.62 0 00.62.44.6.6 0 00.62-.43l.78-2.33c0-.11.06-.22.08-.33a4.64 4.64 0 01.1-.52.08.08 0 010 .07v.45l.06.51.27 2.24a.64.64 0 00.52.55l.62.11-.67-4.39a.62.62 0 00-.65-.58zM38.42 152.75h-.59v.88h-.87v.59h.87v.87h.59v-.87h.88v-.59h-.88v-.88z" class="cls-4"/>
      <path d="M40.49 153.92a2.36 2.36 0 00-4-1.68 6 6 0 00-5.12-.2 6 6 0 00-3.55 4.33 6.16 6.16 0 000 2.42 6.07 6.07 0 004.68 4.69 6.51 6.51 0 001.24.12 6.43 6.43 0 001.24-.12 6 6 0 003.77-2.48 6 6 0 00.83-2.16 6.16 6.16 0 000-2.42 4.7 4.7 0 00-.12-.51 2.34 2.34 0 001.03-1.99zm-1.38 4.75a5.23 5.23 0 01-.32 1 5.61 5.61 0 01-4 3.3 6 6 0 01-2.23 0 6.18 6.18 0 01-1-.33 5.55 5.55 0 01-2.44-2 5.64 5.64 0 01-.83-2 5.53 5.53 0 010-2.22 5.25 5.25 0 01.33-1 5.48 5.48 0 012-2.44 5.42 5.42 0 015.25-.49l.31.14a2.37 2.37 0 00.69 3.27 2.34 2.34 0 002.18.2l.09.37a5.67 5.67 0 01-.03 2.2zm.19-3.31a2.05 2.05 0 01-.43.26 1.86 1.86 0 01-2.29-2.78 2 2 0 01.34-.37 1.87 1.87 0 012.38 2.89zM35.31 190.25l.34.14.16-.32-.32-.18a2.42 2.42 0 00-.18.36zM35.68 189.52l.32.2.21-.31-.3-.21zM36.12 182a3.79 3.79 0 00-.34-.2c-.06.11-.12.21-.17.32l.3.19zM36.51 188.25l.34.18.17-.35-.33-.16zM35.42 181.64l-.37-.14c0 .13-.08.24-.11.36l.34.13zM36.92 183.36l.32-.2a2.43 2.43 0 00-.24-.32l-.29.22zM36.84 187.58l.34.15.15-.37-.35-.13zM37.24 184l.35-.13c-.05-.12-.1-.25-.16-.37l-.33.16zM37.41 184.68a1.2 1.2 0 00.37 0c0-.13-.05-.27-.08-.39l-.36.08a2.15 2.15 0 00.07.31zM34.66 181.4l-.39-.07c0 .12 0 .24-.05.37l.36.06c.04-.12.04-.24.08-.36zM36.12 188.89l.31.21.22-.33-.32-.19zM36.48 182.79l.26-.27a2.26 2.26 0 00-.29-.25l-.23.28.14.12zM37.42 185.43h.36a2.54 2.54 0 000-.39h-.37c.02.15 0 .26.01.39z" class="cls-4"/>
      <path d="M37.41 185.81a.48.48 0 00-.37 0 .59.59 0 00-.33.33h-1.15a4.7 4.7 0 010-.75h.76a.15.15 0 00.16-.09.24.24 0 000-.12v-.75a.57.57 0 00.36-.66.56.56 0 00-.65-.45.57.57 0 00-.44.42.55.55 0 000 .36.55.55 0 00.33.32v.58h-.56v-.33a.18.18 0 00-.18-.2H35v-1a.56.56 0 00.35-.71.55.55 0 10-.69.71v1h-.74v-3a.19.19 0 00-.17-.21c-.21 0-.41 0-.62.05a3.78 3.78 0 00-.74.17 2.56 2.56 0 10-3.86 3.37 2.51 2.51 0 001.16.76 2.36 2.36 0 00.09.52 7.33 7.33 0 00.41 1.36 7 7 0 00.62 1.29c.15.23.32.46.48.69a5.2 5.2 0 01.42.72 2.91 2.91 0 01.16.5.45.45 0 00-.21.38.45.45 0 00.45.45h3.33a.44.44 0 00.45-.45.45.45 0 00-.45-.45h-1.56v-3.52a1.09 1.09 0 01.36 0v.52a.19.19 0 00.19.21H35v.22h-.06a.55.55 0 00-.24.76.56.56 0 00.76.24.57.57 0 00.3-.51.55.55 0 00-.33-.5.09.09 0 010-.08v-.33a.2.2 0 000-.11.17.17 0 00-.17-.09h-.57v-.38h.74a.17.17 0 00.18-.11.17.17 0 000-.1v-.33h1.15a.56.56 0 001.08-.29.6.6 0 00-.38-.44zm-1.11-2.08a.18.18 0 01.21.15.18.18 0 01-.14.21h-.07a.19.19 0 01-.18-.17.18.18 0 01.18-.18zm-3.19-2h.37V183h-.09a.21.21 0 00-.23.19.38.38 0 010 .18.08.08 0 01-.07.07H33v-.18a2.72 2.72 0 00-.39-1.36 4.91 4.91 0 01.5-.19zm-3.56 3.35a2 2 0 112.21-3.34 2.55 2.55 0 01.26.3 2 2 0 01.37 1.17v.1a2 2 0 01-2 1.93 2 2 0 01-.42 0 2.91 2.91 0 01-.42-.18zm3.93 5.57h-1.31v-.08a2.82 2.82 0 00-.31-.76 8 8 0 00-.51-.78 7.38 7.38 0 01-1-1.93 6.82 6.82 0 01-.3-1.07 1.35 1.35 0 00-.05-.29 2.43 2.43 0 00.38 0 2.72 2.72 0 00.49-.05v.38a.21.21 0 00.18.21h.27a.17.17 0 000 .13l-.2.17a.19.19 0 00-.05.25 2.54 2.54 0 00.32.55.2.2 0 00.27.08l.21-.07c.11.09.11.09.07.21v.12a.19.19 0 00.06.28l.38.24a.75.75 0 00.18.08.19.19 0 00.25-.05l.16-.18a.14.14 0 01.14.14.38.38 0 000 .15.19.19 0 00.18.16h.13zm0-3.57a1.21 1.21 0 01-.58-.22 1.31 1.31 0 01.58-2.36zm1.7 1.34a.18.18 0 01.18.16.21.21 0 01-.18.19.19.19 0 01-.18-.19.16.16 0 01.17-.17zm-.38-5.58a.18.18 0 01.2.16.18.18 0 01-.36 0 .19.19 0 01.16-.18zm.36 3.92h-1.28v-1.87h1.28zm2.07-.18a.19.19 0 01-.15-.22.21.21 0 01.15-.15.18.18 0 01.18.18.17.17 0 01-.18.17zM35.36 191.85H32a.45.45 0 000 .9h3.33a.45.45 0 000-.9zM33.7 194.24a1.19 1.19 0 001.19-1.2H32.5a1.2 1.2 0 001.18 1.2z" class="cls-4"/>
      <path d="M30.04 184.3v.16h.63V183.52h.96v-.65H30.67V181.92h-.63v.95h-.96v.65h.96v.78zM37.83 130.1v-.47H37.24v.87h-.87v.6h.87v.87h.59v-.87h.88v-.6h-.88v-.4z" class="cls-4"/>
      <path d="M38 128.5l.19-1.44a.52.52 0 00-.11-.36.48.48 0 00-.35-.16h-.17l.61-2.13a.11.11 0 00-.08-.14l-.35-.09h-.1a.06.06 0 00-.05.06l-.07.22-.14.5-.14.48-.14.51-.15.5v.08h-.2l.17-.62.2-2.28v-.08H36.66a.09.09 0 00-.07 0l-.25 2.94a.39.39 0 00-.28.15l-.29-2.73v-.27a.12.12 0 000-.08h-.52a.12.12 0 00-.07.05.11.11 0 000 .08v.84l.15 1.43.05.52v.53l.09.81a2.43 2.43 0 01-.4.45l-.07-1.81v-.84l-.07-.67a.1.1 0 00-.11-.1h-.47a.11.11 0 000 .08v.5h.1a.37.37 0 01.2.12.32.32 0 01.06.23l-.19 1.46.08.8v.53a2 2 0 01-.53.16v-.35l.15-1.14.06-.42v-.42l.08-.62a.09.09 0 00-.07-.12h-.39v.07l-.4 3.1h-.2l.41-3.1a.29.29 0 010-.13l.36-2.72a.1.1 0 00-.09-.12l-.37-.05a.12.12 0 00-.13.1l-.15 1.21h.16a.23.23 0 01.2.11.33.33 0 01.07.23l-.59 4.39-.19-.05.58-4.37a.11.11 0 000-.08.1.1 0 00-.07 0h-.39a.1.1 0 000 .05l-.26 2-.27 2v.18c-.07 0-.13-.1-.2-.15l.1-3.38a.11.11 0 000-.08.09.09 0 00-.07 0h-.44a.11.11 0 00-.05.09v.72l-.05 1.77v.21a2 2 0 01-.26-.53l.06-2.13a.31.31 0 01.09-.21.4.4 0 01.17-.09l.27-3.13v-.08h-.45a.12.12 0 00-.12.1l-.1 1.24a.31.31 0 01.06.19v4a.41.41 0 00-.19-.24v-3.88a.12.12 0 00-.08-.11h-.47a.12.12 0 000 .09v3.65h-.24l-.31-3a.11.11 0 000-.07h-.42a.11.11 0 00-.1.12l.29 2.91h-.25a.48.48 0 00-.35.16.47.47 0 00-.1.36l.92 6.66a.45.45 0 00.45.4h6.17a.46.46 0 00.46-.4l.08-.57h.1a2.36 2.36 0 00.49-4.66zm-1.11 5.16h-6.33l-.92-6.66h1.42a2.5 2.5 0 00.11.53 2.76 2.76 0 00.2.47 2.23 2.23 0 00.2.3l.05.06.1.12.1.09a2 2 0 00.27.22l.25.16.1.05h.08l.27.1.21.05h1a2.1 2.1 0 00.62-.16 2.33 2.33 0 00.52-.27l.26-.2h.05l.18-.2a2.58 2.58 0 00.67-1.49h1.41l-.18 1.43A2.35 2.35 0 0037 133zm.62-1a2.36 2.36 0 01-.44-.07 1.86 1.86 0 01.48-3.66 2.1 2.1 0 01.45.07 1.86 1.86 0 01-.43 3.68z" class="cls-4"/>
      <path d="M30.23 123.37a.31.31 0 01.11.2l.15 1.48v-2.13a.31.31 0 01.22-.29v-.33a.1.1 0 00-.11-.1h-.37a.11.11 0 00-.1.11l.11 1zM37.26 123.45a.34.34 0 01.07.22l-.11 1.33.14-.51.18-2a.11.11 0 000-.08h-.45a.12.12 0 00-.12.1l-.08.94h.18a.3.3 0 01.19 0zM35 124.91v-.26l-.09-.87a.32.32 0 01.25-.34l.25-1.92a.11.11 0 000-.08.18.18 0 00-.07 0h-.43a.08.08 0 000 .07l-.44 3.31h.26a.28.28 0 01.27.09zM32.56 125l-.05 1.5.29-2.12a.28.28 0 01.12-.2l.15-1.8a.11.11 0 000-.08h-.45a.11.11 0 00-.11.11l-.21 2.38a.25.25 0 01.2.09.36.36 0 01.06.12zM35.9 123.67l.24 2.36.21-2.47a.06.06 0 010-.06l.08-1a.12.12 0 00-.09-.12H36a.09.09 0 00-.11.08l-.08 1a.38.38 0 01.09.21zM34.3 128.56l.08.01-.03-.33-.05.32zM33.4 103.6h.54v25.55h-.54zM33.4 133.86h.54v17.95h-.54zM33.4 163.3h.54v27.73h-.54zM33.4 193.73h.54v17.78h-.54z" class="cls-4"/>
    </g>
    <g class="cls-3">
      <path d="M21 206.59h-.22a3.76 3.76 0 01-2.37-6.38.26.26 0 01.35 0l.57.56a4.8 4.8 0 013.75-2.18.24.24 0 01.24.26.29.29 0 010 .09 4.26 4.26 0 00-.23 2.47l.57-.71a.23.23 0 01.19-.09H24a.25.25 0 01.21.1 3.75 3.75 0 01-.92 5.23 3.82 3.82 0 01-2.12.68H21zm-1-2.79a1.19 1.19 0 00-.36.93 1.35 1.35 0 001.17 1.35H21a1.37 1.37 0 001.31-1.35 2.34 2.34 0 00-1.15-2.26 2 2 0 01-.18 1.59.24.24 0 01-.2.13h-.06a.85.85 0 01-.72-.39zm.62-2.09h.08a2.89 2.89 0 012.14 3 1.76 1.76 0 01-.31 1A3.26 3.26 0 0024 201.4c0-.07-.08-.14-.11-.21l-.73.92a.29.29 0 01-.2.09.27.27 0 01-.2-.17 4.75 4.75 0 010-2.89 4.27 4.27 0 00-3.09 2.16.26.26 0 01-.18.13.24.24 0 01-.18-.07l-.62-.61a3.24 3.24 0 00.4 4.58l.36.26a1.81 1.81 0 01-.21-.85 1.67 1.67 0 01.76-1.54.26.26 0 01.34.1.11.11 0 010 .08.41.41 0 00.27.31 1.5 1.5 0 00-.22-1.57.25.25 0 010-.35.27.27 0 01.17-.06z" class="cls-4"/>
      <path d="M21.09 208.78a5.74 5.74 0 01-1.24-.13 5.83 5.83 0 01-2.15-.9 6.09 6.09 0 01-2.16-2.63 6.39 6.39 0 01-.34-1.12 6 6 0 01.9-4.57 5.94 5.94 0 012.65-2.18 6.32 6.32 0 011.12-.35 6.21 6.21 0 012.43 0 6 6 0 014.34 3.55A6 6 0 0127 204a5.85 5.85 0 01-.91 2.15 6 6 0 01-2.64 2.18 5.73 5.73 0 01-2.34.47zm0-11.53a5.25 5.25 0 00-1.12.11 5.5 5.5 0 00-4 3.26 5.23 5.23 0 00-.32 1 5.52 5.52 0 006.52 6.52 5.63 5.63 0 002-.83 5.48 5.48 0 002-2.44 5.4 5.4 0 00.32-3.25 5.32 5.32 0 00-.83-2 5.46 5.46 0 00-3.46-2.32 5.22 5.22 0 00-1.11-.05zM21.11 261.09a1.58 1.58 0 10-1.57-1.57 1.57 1.57 0 001.57 1.57z" class="cls-4"/>
      <path d="M22.86 260.69a2.07 2.07 0 01-.81.69l-.78 2.32a2.29 2.29 0 00-.07.28 4.22 4.22 0 01-.06.42 1.67 1.67 0 00-.07-.41 2.13 2.13 0 00-.06-.28l-.76-2.32a2.14 2.14 0 01-.82-.7.61.61 0 00-.62.54l-.68 4.39.59-.11a.64.64 0 00.53-.55l.27-2.24a8.28 8.28 0 00.07-.87v-.15c.05.26.1.47.13.62s.05.22.06.26l.76 2.32a.59.59 0 00.62.44.59.59 0 00.61-.43l.78-2.33a1.68 1.68 0 01.09-.33c0-.14.06-.32.1-.53v.52a3.28 3.28 0 00.06.52l.26 2.24a.63.63 0 00.53.55l.62.11-.73-4.42a.62.62 0 00-.62-.55zM25.84 257.63h-.6V258.51h-.87v.6h.87v.87h.6v-.87h.87v-.6h-.87v-.88z" class="cls-4"/>
      <path d="M27.9 258.8a2.36 2.36 0 00-2.36-2.35 2.33 2.33 0 00-1.65.69 5.89 5.89 0 00-1.57-.56 6.16 6.16 0 00-2.42 0 6 6 0 00-4.69 4.68 6.21 6.21 0 000 2.43 6.06 6.06 0 002.53 3.78 5.87 5.87 0 002.16.9 5.81 5.81 0 002.42 0 5.79 5.79 0 003.78-2.56 6 6 0 00.91-2.15 6.21 6.21 0 000-2.43c0-.16-.08-.33-.13-.5a2.39 2.39 0 001.02-1.93zm-1.38 4.78a5.51 5.51 0 01-2.32 3.47 5.66 5.66 0 01-2 .83 5.53 5.53 0 01-4.23-10 5.71 5.71 0 012-.83 5.58 5.58 0 012.23 0 5.66 5.66 0 011 .32l.31.15a2.36 2.36 0 002.91 3.48 2.37 2.37 0 01.09.36 5.58 5.58 0 01.01 2.22zm.19-3.31a2.05 2.05 0 01-.43.26 1.86 1.86 0 01-2.28-2.78 2.37 2.37 0 01.34-.37 1.87 1.87 0 012.38 2.89zM22.72 295.1l.35.14.15-.32-.32-.18a2.42 2.42 0 00-.18.36zM23.1 294.4l.32.2.21-.31-.31-.21zM23.53 286.9a3.79 3.79 0 00-.34-.2c-.06.12-.12.21-.17.33l.31.18zM23.93 293.14l.33.17.17-.35-.33-.16zM22.86 286.52l-.37-.14a2.92 2.92 0 00-.11.36l.34.12a.75.75 0 01.14-.34zM24.34 288.24l.31-.2a2.35 2.35 0 00-.23-.32l-.29.22zM24.25 292.44l.34.14.15-.36-.35-.13zM24.65 288.89l.35-.12a2.5 2.5 0 00-.15-.38l-.34.17zM24.82 289.58a1.2 1.2 0 00.37 0 1.36 1.36 0 00-.08-.39l-.36.08c.03.07.05.2.07.31zM22.07 286.28l-.39-.07v.38l.35.05c-.03-.12.02-.23.04-.36zM23.54 293.76l.3.22.22-.33-.32-.2zM23.88 287.67l.26-.27a3.45 3.45 0 00-.28-.26l-.24.29.14.12zM24.83 290.31h.37a2.41 2.41 0 000-.38h-.36c.01.15-.02.27-.01.38z" class="cls-4"/>
      <path d="M24.82 290.69a.56.56 0 00-.7.35H23a4.69 4.69 0 010-.75h.75a.19.19 0 00.14-.09.11.11 0 000-.11v-.75a.56.56 0 00.37-.65.57.57 0 00-.67-.44.59.59 0 00-.43.41.55.55 0 000 .36.58.58 0 00.33.32v.59h-.55v-.35a.19.19 0 00-.16-.21h-.4v-1a.56.56 0 00-.19-1.09.56.56 0 00-.19 1.09v.93h-.74v-3a.21.21 0 00-.19-.21h-.62a6 6 0 00-.73.17 2.57 2.57 0 10-2.7 4.14 4.67 4.67 0 00.08.52 7.33 7.33 0 00.41 1.36 7.18 7.18 0 00.62 1.28c.15.24.32.47.47.7a2.84 2.84 0 01.59 1.22.45.45 0 00-.13.62.48.48 0 00.37.21h3.27a.46.46 0 00.45-.46.45.45 0 00-.45-.45h-1.41V292a2 2 0 01.35 0v.62a.18.18 0 00.19.12h.55v.22h-.07a.57.57 0 00-.3.57.58.58 0 00.63.5.55.55 0 00.45-.57.54.54 0 00-.32-.49s-.06 0-.06-.09a1.82 1.82 0 000-.33.2.2 0 000-.11.15.15 0 00-.16-.09H22V292h.74a.18.18 0 00.19-.12v-.44h1.17a.56.56 0 10.69-.72zm-1.1-2.08a.19.19 0 01.17.18.18.18 0 01-.18.18.18.18 0 01-.18-.17.19.19 0 01.19-.19zm-3.2-2h.37v1.28h-.09a.21.21 0 00-.23.19v.18a.08.08 0 01-.07.08h-.11v-.19a2.56 2.56 0 00-.39-1.35 2.85 2.85 0 01.52-.2zM17 290a2 2 0 111.57-3.74 2 2 0 01.6.38 1.48 1.48 0 01.26.3 2 2 0 01.38 1.17v.1a2 2 0 01-1.13 1.72 1.85 1.85 0 01-.89.21 2 2 0 01-.81-.16zm3.92 5.57h-1.34v-.08a2.3 2.3 0 00-.31-.76q-.24-.4-.51-.78a7.6 7.6 0 01-1-1.94 9.38 9.38 0 01-.3-1.07 1.51 1.51 0 00-.05-.28h.38a2.81 2.81 0 00.5 0v.34a.19.19 0 00.18.21h.26v.13l-.18.17a.19.19 0 00-.06.25 2.06 2.06 0 00.33.55.18.18 0 00.25.08l.22-.07c.1.09.1.09.07.21a.5.5 0 000 .13.19.19 0 00.08.24c.12.09.25.16.38.24l.18.09a.2.2 0 00.25-.06l.16-.18c.08 0 .12.06.13.14a.43.43 0 000 .16.19.19 0 00.18.15h.13zm0-3.56a1.24 1.24 0 01-.58-.24 1.22 1.22 0 01-.52-.83 1.3 1.3 0 011.07-1.51zm1.69 1.34a.17.17 0 01.18.16.17.17 0 01-.17.18.16.16 0 01-.18-.16.16.16 0 01.14-.18zm-.37-5.62a.18.18 0 11-.18.18.17.17 0 01.14-.19zm.36 3.91h-1.31v-1.86h1.28zm2.07-.18a.18.18 0 01-.15-.21.19.19 0 01.15-.15.17.17 0 01.18.17.18.18 0 01-.17.18zM22.77 296.73h-3.32a.44.44 0 00-.45.45.45.45 0 00.45.45h3.32a.45.45 0 00.45-.45.45.45 0 00-.45-.45zM21.11 299.12a1.19 1.19 0 001.19-1.19h-2.39a1.19 1.19 0 001.2 1.19z" class="cls-4"/>
      <path d="M17.45 289.18v.17h.64v-.95h.95v-.65H18.09V286.8h-.64v.95h-.95v.65h.95v.78zM25.24 234.98v-.47H24.65v.88h-.88v.59h.88v.88h.59v-.88h.88v-.59h-.88v-.41z" class="cls-4"/>
      <path d="M25.44 233.38l.19-1.44a.46.46 0 00-.4-.51H25l.62-2.14a.06.06 0 000-.08.1.1 0 00-.06-.05l-.36-.1h-.05a.13.13 0 00-.06.07l-.06.22-.14.49-.14.5-.15.5-.13.5v.08h-.21l.18-.62.19-2.27a.11.11 0 000-.08.09.09 0 00-.08 0h-.43l-.25 2.94a.43.43 0 00-.28.15l-.28-2.73v-.27-.07h-.42a.09.09 0 00-.08 0 .09.09 0 000 .07v.85l.15 1.42.05.53-.01.66.08.81a2.15 2.15 0 01-.4.45l-.19-1.86v-.84l-.2-.65a.12.12 0 00-.11-.1H21.77a.11.11 0 000 .08v.5h.1a.28.28 0 01.21.12.25.25 0 010 .22l-.19 1.47.08.8v.57a2.49 2.49 0 01-.53.16v-.36l.15-1.14.05-.41.06-.42.08-.65a.06.06 0 000-.08l-.06-.05h-.4a.12.12 0 000 .08l-.41 3.09h-.19l.4-3.09a.5.5 0 01.05-.13l.36-2.72a.1.1 0 00-.08-.12l-.37-.05a.11.11 0 00-.12.09l-.17 1.23H21a.31.31 0 01.26.35l-.59 4.4-.19-.06.59-4.37v-.08a.12.12 0 00-.08 0h-.43v.06l-.27 2-.26 2v.17a1 1 0 01-.2-.15l.1-3.39a.09.09 0 000-.07.1.1 0 00-.07 0h-.38a.06.06 0 00-.06 0 .11.11 0 000 .09v.71l-.12 1.75v.21a3 3 0 01-.3-.62l.06-2.13a.37.37 0 01.1-.22.38.38 0 01.17-.08l.26-3.13a.11.11 0 000-.08.1.1 0 00-.07 0h-.37a.11.11 0 00-.12.09l-.11 1.24a.26.26 0 01.07.19v4a.39.39 0 00-.2-.25v-3.72a.11.11 0 00-.07-.1h-.47a.06.06 0 00-.06 0 .11.11 0 000 .09v3.64h-.23l-.31-3a.15.15 0 000-.07h-.43a.13.13 0 00-.1.13l.3 2.91h-.21a.45.45 0 00-.46.52l.91 6.66a.48.48 0 00.46.4h6.32a.46.46 0 00.45-.4l.08-.57H25a2.36 2.36 0 00.49-4.66zm-1.11 5.18H18l-1-6.68h1.41a2.36 2.36 0 00.12.54 2.55 2.55 0 00.2.48 1.57 1.57 0 00.2.3l.05.06v.05l.1.12.1.09.27.22.25.16H19.93l.27.1.2.06h.85a2.68 2.68 0 001.16-.43l.41-.13.05-.05.18-.18a2.78 2.78 0 00.67-1.5h1.41l-.13 1.58h-.06a2.35 2.35 0 00-.54 4.65zm.62-1a1.72 1.72 0 01-.44-.06 1.86 1.86 0 01.48-3.67 2.1 2.1 0 01.43 0 1.86 1.86 0 01-.43 3.68z" class="cls-4"/>
      <path d="M17.64 228.23a.32.32 0 01.12.2l.14 1.46v-2.13a.33.33 0 01.22-.3v-.33A.12.12 0 0018 227h-.37a.12.12 0 00-.1.12l.1 1zM24.67 228.33a.29.29 0 01.07.22l-.11 1.28.15-.51.17-2a.11.11 0 000-.08.12.12 0 00-.08 0h-.36a.12.12 0 00-.13.1l-.08.93h.19a.34.34 0 01.18.06zM22.39 229.8v-.28l-.09-.86a.31.31 0 01.25-.33l.26-1.93a.11.11 0 000-.08.1.1 0 00-.07 0l-.37-.05h-.07a.1.1 0 000 .07l-.44 3.32h.26a.31.31 0 01.27.14zM20 229.85v1.48l.28-2.12a.28.28 0 01.12-.2l.15-1.81a.11.11 0 000-.08h-.44a.11.11 0 00-.12.1l-.2 2.39a.25.25 0 01.19.09.29.29 0 01.02.15zM23.31 228.56l.24 2.35.21-2.44v-.06l.08-1a.1.1 0 00-.1-.11h-.37a.11.11 0 00-.12.09l-.08 1a.3.3 0 01.14.17zM21.71 233.44l.08.01-.03-.33-.05.32zM20.81 208.48h.54v25.55h-.54zM20.81 238.74h.54v17.95h-.54zM20.81 268.19h.54v27.73h-.54zM20.81 298.62h.54v17.78h-.54z" class="cls-4"/>
    </g>
    <g class="cls-3">
      <path d="M21 56.78h-.22a3.76 3.76 0 01-2.37-6.38.26.26 0 01.35 0l.57.56a4.8 4.8 0 013.75-2.18.25.25 0 01.24.25.17.17 0 010 .1 4.29 4.29 0 00-.23 2.48l.57-.72a.25.25 0 01.19-.09H24a.24.24 0 01.21.11 3.76 3.76 0 01-.94 5.23 3.67 3.67 0 01-2.1.67H21zM20 54a1.16 1.16 0 00-.37.92 1.36 1.36 0 001.18 1.35H21a1.36 1.36 0 001.31-1.35 2.32 2.32 0 00-1.15-2.26 2.05 2.05 0 01-.16 1.6.28.28 0 01-.2.13h-.07A.89.89 0 0120 54zm.62-2.1h.08a2.88 2.88 0 012.13 3 1.72 1.72 0 01-.3 1A3.24 3.24 0 0024 51.6l-.11-.21-.73.91a.25.25 0 01-.2.09h-.05a.28.28 0 01-.19-.16 4.78 4.78 0 010-2.9 4.27 4.27 0 00-3.09 2.16.26.26 0 01-.18.13.25.25 0 01-.18-.08l-.62-.62a3.26 3.26 0 00.35 4.59 4.22 4.22 0 00.36.27 1.92 1.92 0 01-.23-.84 1.65 1.65 0 01.87-1.55.25.25 0 01.34.09.14.14 0 010 .09.39.39 0 00.27.3 1.5 1.5 0 00-.22-1.57.24.24 0 010-.35.27.27 0 01.17-.06z" class="cls-4"/>
      <path d="M21.09 59a6.43 6.43 0 01-1.24-.12 6 6 0 01-2.15-.9 6 6 0 01-2.53-3.78 6 6 0 013.55-6.75 6 6 0 013.56-.35 6 6 0 012.15.9 6.1 6.1 0 012.17 2.65 6 6 0 01.4 3.51 5.83 5.83 0 01-.9 2.15 6 6 0 01-2.65 2.18 6.32 6.32 0 01-1.12.35 6 6 0 01-1.24.16zm0-11.53a6 6 0 00-1.12.11 5.54 5.54 0 00-4 3.26 5.23 5.23 0 00-.32 1A5.52 5.52 0 0018.94 58a4.75 4.75 0 001 .33 5.52 5.52 0 006.52-6.52 5.21 5.21 0 00-.83-2 5.51 5.51 0 00-3.46-2.33 6 6 0 00-1.11-.1zM21.25 168.36v.79l2.59 2.8h-1.76l-.83-.84v2.34l3.84-1.25-3.84-3.84zM21.25 176.35l3.84-3.85-3.84 1.26v2.59zM17.11 172.2l3.84 1.25v-2.34l-.75.84h-1.76l2.51-2.8v-.79l-3.85 3.84h.01zM20.95 176.35v-2.59l-3.84-1.26 3.84 3.85zM25.82 167.52h-.58v.87H24.36v.6h.88v.87h.58v-.87h.88v-.6h-.88v-.87z" class="cls-4"/>
      <path d="M27.89 168.69a2.37 2.37 0 00-4-1.68 5.95 5.95 0 00-4-.56 6.05 6.05 0 00-4.69 4.69 6.16 6.16 0 000 2.42 6 6 0 004.69 4.69 6.42 6.42 0 002.47 0 6 6 0 004.69-4.69 6.16 6.16 0 000-2.42c0-.17-.08-.34-.13-.51a2.35 2.35 0 00.97-1.94zm-1.38 2.55a5.58 5.58 0 010 2.23 5.66 5.66 0 01-.32 1 5.53 5.53 0 01-6.19 3.3 6.56 6.56 0 01-1-.32 5.53 5.53 0 01-3.26-6.21 6.25 6.25 0 01.32-1 5.54 5.54 0 012-2.43 5.35 5.35 0 012-.83 5.58 5.58 0 012.23 0 5.66 5.66 0 011 .32l.31.14a2.36 2.36 0 002.86 3.48 2.11 2.11 0 01.09.36zm.19-1.09a1.9 1.9 0 01-.43.26 1.85 1.85 0 01-2.27-2.77 2.35 2.35 0 01.33-.37 1.87 1.87 0 112.39 2.88zM21.11 111.28a1.58 1.58 0 10-1.57-1.58 1.57 1.57 0 001.57 1.58z" class="cls-4"/>
      <path d="M22.86 110.88a2.09 2.09 0 01-.84.72l-.78 2.33a2.68 2.68 0 00-.07.27c0 .12 0 .26-.06.43a1.76 1.76 0 00-.07-.43c0-.12-.05-.21-.06-.27l-.76-2.33a2.07 2.07 0 01-.82-.7.61.61 0 00-.62.55l-.68 4.38.59-.11a.63.63 0 00.53-.55l.27-2.23a8.69 8.69 0 00.07-.88v-.15c.05.26.1.46.13.62a1.82 1.82 0 00.06.24l.75 2.34a.61.61 0 00.62.43.6.6 0 00.62-.43l.78-2.33a2 2 0 00.08-.33c0-.15.07-.32.11-.52v.19a1.82 1.82 0 000 .33 3.55 3.55 0 00.06.52l.23 2.23a.63.63 0 00.53.55l.62.11-.7-4.43a.62.62 0 00-.59-.55zM25.84 107.83h-.6v.87h-.87v.59h.87v.88h.6v-.88h.87v-.59h-.87v-.87z" class="cls-4"/>
      <path d="M27.9 109a2.35 2.35 0 00-4-1.68 5.89 5.89 0 00-1.57-.56 6.09 6.09 0 00-3.56.35 6 6 0 00-3.55 4.33 6.21 6.21 0 000 2.43 6.06 6.06 0 002.53 3.78 6.12 6.12 0 002.16.9 5.81 5.81 0 002.42 0 6 6 0 004.67-4.68 6.21 6.21 0 000-2.43c0-.17-.08-.34-.13-.5A2.36 2.36 0 0027.9 109zm-1.38 4.77a5.51 5.51 0 01-2.32 3.47 5.66 5.66 0 01-2 .83 5.53 5.53 0 01-2.22 0 5.23 5.23 0 01-1-.32 5.53 5.53 0 01-3.27-6.21 5.44 5.44 0 01.32-1 5.67 5.67 0 012-2.43 5.52 5.52 0 012-.8 5.6 5.6 0 013.28.32l.31.15a2.35 2.35 0 002.86 3.47 2.37 2.37 0 01.09.36 5.43 5.43 0 01-.05 2.16zm.19-3.31a1.67 1.67 0 01-.43.25 1.86 1.86 0 01-2.28-2.77 2.37 2.37 0 01.34-.37 1.87 1.87 0 012.38 2.89zM22.72 145.29l.35.14.15-.32-.32-.18a2.42 2.42 0 00-.18.36zM23.1 144.59l.32.2.21-.31-.31-.21zM23.53 137.09a3.79 3.79 0 00-.34-.2c-.06.11-.12.22-.17.33l.31.18zM23.93 143.32l.33.18.17-.34-.33-.16zM22.86 136.71l-.37-.14a3.55 3.55 0 00-.11.36l.34.13a.74.74 0 01.14-.35zM24.34 138.43l.31-.2a3.71 3.71 0 00-.23-.32l-.29.22zM24.25 142.65l.34.15.15-.36-.35-.14zM24.65 139.08L25 139a2.28 2.28 0 00-.15-.36l-.34.16zM24.82 139.78a1 1 0 00.37-.05c0-.13-.05-.26-.08-.39l-.36.08c.03.13.05.24.07.36zM22.07 136.47l-.39-.09v.37l.35.06a2.84 2.84 0 00.04-.34zM23.54 144l.3.21c.08-.12.15-.21.22-.33l-.32-.19zM23.88 137.86l.26-.27a2.18 2.18 0 00-.28-.25l-.24.28.14.12zM24.83 140.5h.37a2.54 2.54 0 000-.39h-.36c.01.16-.02.27-.01.39z" class="cls-4"/>
      <path d="M24.82 140.88a.56.56 0 00-.7.33H23a4.57 4.57 0 010-.74h.75a.17.17 0 00.14-.09.11.11 0 000-.11v-.76a.58.58 0 00.37-.66.56.56 0 00-.53-.44.56.56 0 00-.21 1.09v.59h-.56v-.35a.18.18 0 00-.17-.2h-.39v-1a.57.57 0 10-.73-.35.6.6 0 00.35.35v1h-.74v-3a.2.2 0 00-.17-.22H21a4.4 4.4 0 00-.62 0 3.85 3.85 0 00-.73.17 2.56 2.56 0 10-2.65 4.22 3.23 3.23 0 00.08.53 7.24 7.24 0 00.41 1.35 8 8 0 00.61 1.29c.16.24.33.47.48.69a5.27 5.27 0 01.43.72 4.16 4.16 0 01.16.5.47.47 0 00-.21.38.45.45 0 00.45.45h3.32a.45.45 0 100-.9h-1.44v-3.55h.35v.62a.2.2 0 00.19.12h.55v.22h-.07a.56.56 0 00.33 1.06.55.55 0 00.45-.56.54.54 0 00-.27-.46.09.09 0 01-.06-.09 1.82 1.82 0 000-.33.17.17 0 000-.1.16.16 0 00-.16-.1h-.56v-.37h.74a.19.19 0 00.19-.11v-.44h1.13a.56.56 0 001.07-.3.59.59 0 00-.38-.44zm-1.1-2.08a.19.19 0 01.17.18.18.18 0 01-.17.18.19.19 0 01-.18-.17.18.18 0 01.18-.18zm-3.2-2h.37v1.28h-.09a.22.22 0 00-.23.19v.18a.07.07 0 01-.07.07h-.07v-.18a2.62 2.62 0 00-.39-1.36 3.51 3.51 0 01.48-.19zM17 140.13a2 2 0 111.5-3.78 2 2 0 01.67.44 1.48 1.48 0 01.26.3 2 2 0 01.38 1.17v.1a2 2 0 01-2.81 1.77zm3.92 5.57h-1.34v-.08a2.53 2.53 0 00-.31-.76 6.52 6.52 0 00-.51-.78 7.69 7.69 0 01-1-1.93 10 10 0 01-.3-1.07 1.47 1.47 0 00-.05-.29h.38a2.83 2.83 0 00.5 0v.39a.19.19 0 00.18.2h.26v.13l-.18.17a.19.19 0 00-.06.26 2.77 2.77 0 00.33.55.19.19 0 00.26.08l.22-.07c.1.08.1.08.07.21a.5.5 0 000 .13.19.19 0 00.08.24c.12.09.25.16.38.24l.18.09a.2.2 0 00.25-.06l.14-.17c.08 0 .12.05.13.14v.15a.2.2 0 00.18.16h.13zm0-3.56a1.34 1.34 0 01-.58-.23 1.3 1.3 0 01-.52-.84 1.31 1.31 0 011.06-1.51zm1.69 1.34a.17.17 0 01.18.17.18.18 0 01-.14.21.17.17 0 01-.21-.14.09.09 0 010-.07.18.18 0 01.18-.17zm-.34-5.62a.19.19 0 01.18.19.18.18 0 11-.36 0 .17.17 0 01.16-.19zm.36 3.92h-1.34v-1.86h1.28zm2.07-.18a.18.18 0 01-.17-.18.16.16 0 01.15-.18.17.17 0 01.18.17.18.18 0 01-.17.19zM22.77 146.9h-3.32a.47.47 0 00-.46.46.46.46 0 00.46.45h3.32a.45.45 0 00.45-.45.46.46 0 00-.45-.46zM21.11 149.31a1.19 1.19 0 001.19-1.17h-2.39a1.2 1.2 0 001.2 1.17z" class="cls-4"/>
      <path d="M17.45 139.37v.16h.64V138.59h.95v-.65H18.09V136.99h-.64v.95h-.95v.65h.95v.78zM25.24 85.17v-.47H24.65v.87h-.88v.6h.88v.87h.59v-.87h.88v-.6h-.88v-.4z" class="cls-4"/>
      <path d="M25.44 83.57l.19-1.44a.52.52 0 00-.11-.36.46.46 0 00-.35-.16H25l.62-2.12a.07.07 0 000-.09.1.1 0 00-.06-.05l-.36-.1h-.05a.09.09 0 00-.06.06l-.06.23-.14.49-.14.49-.15.51-.13.49v.08h-.21l.18-.62.19-2.28a.11.11 0 000-.08.2.2 0 00-.08 0H24l-.25 2.94a.39.39 0 00-.28.15L23.19 79v-.27-.07a.09.09 0 00-.07 0h-.42a.09.09 0 00-.08 0 .09.09 0 000 .07v.84l.15 1.43v.52l.06.53.17.95a2.49 2.49 0 01-.4.46l-.19-1.86v-.42l-.05-.42-.12-.64a.13.13 0 00-.11-.1h-.44a.14.14 0 000 .09v.5h.1a.33.33 0 01.21.11.28.28 0 010 .23l-.21 1.58.08.8v.53a2.41 2.41 0 01-.54.16v-.36l.15-1.13.06-.42.05-.42.21-.69a.11.11 0 000-.08.1.1 0 00-.07 0h-.3a.09.09 0 00-.07 0 .08.08 0 000 .06l-.41 3.1h-.19l.4-3.1a.69.69 0 01.05-.13l.36-2.71a.11.11 0 00-.09-.13h-.37A.11.11 0 0021 78l-.16 1.24H21a.28.28 0 01.2.12.31.31 0 01.06.23L20.63 84h-.19l.56-4.41v-.08a.14.14 0 00-.08-.05h-.43v.06l-.27 2-.26 2v.18l-.2-.14V80a.11.11 0 000-.08h-.51a.09.09 0 000 .08v2.69a3 3 0 01-.18-.58L19 80a.35.35 0 01.1-.21.38.38 0 01.17-.08l.26-3.13a.11.11 0 000-.08.1.1 0 00-.07 0h-.37a.11.11 0 00-.12.1l-.11 1.24a.26.26 0 01.07.18v4a.44.44 0 00-.2-.25v-3.83a.1.1 0 00-.07-.1h-.47a.07.07 0 00-.06 0 .1.1 0 000 .08v3.68h-.23l-.31-3a.21.21 0 000-.07h-.43a.12.12 0 00-.1.13l.3 2.9h-.21a.48.48 0 00-.47.48l.91 6.65a.47.47 0 00.46.4h6.32a.45.45 0 00.45-.4l.08-.57h.1a2.36 2.36 0 00.49-4.66zm-1.11 5.17H18l-1-6.66h1.41a2.4 2.4 0 00.12.53 2.22 2.22 0 00.2.47 3.28 3.28 0 00.2.31l.05.06.1.12.1.09a3 3 0 00.27.23l.25.15H19.93a1.48 1.48 0 00.27.1h.8a1.82 1.82 0 00.33 0 2.25 2.25 0 00.62-.15 2.29 2.29 0 00.51-.28 1.74 1.74 0 00.26-.19h.05a1.8 1.8 0 00.19-.2 2.42 2.42 0 00.42-.62 2.62 2.62 0 00.24-.87H25l-.18 1.43h-.06a2.36 2.36 0 00-.54 4.66zm.62-1a1.72 1.72 0 01-.44-.06A1.86 1.86 0 0125 84a2.1 2.1 0 01.43 0 1.86 1.86 0 01-.43 3.75z" class="cls-4"/>
      <path d="M17.64 78.42a.37.37 0 01.12.21l.14 1.46V78a.32.32 0 01.22-.29v-.33a.12.12 0 00-.11-.1h-.37a.12.12 0 00-.1.12l.1 1zM24.67 78.52a.29.29 0 01.07.22L24.63 80l.15-.51.17-2a.11.11 0 000-.08.12.12 0 00-.08 0h-.36a.12.12 0 00-.13.1l-.08.94h.19a.31.31 0 01.18.07zM22.39 80v-.26l-.09-.87a.32.32 0 01.25-.34l.26-1.92a.11.11 0 000-.08.15.15 0 00-.07-.05h-.44a.12.12 0 000 .08l-.44 3.3h.26a.33.33 0 01.27.14zM20 80v1.48l.28-2.11a.3.3 0 01.12-.21l.15-1.81a.11.11 0 000-.08.09.09 0 00-.07 0H20a.1.1 0 00-.12.08l-.2 2.37a.35.35 0 01.19.1.31.31 0 01.13.18zM23.31 78.78l.24 2.35.21-2.44v-.06l.08-1a.11.11 0 00-.1-.12h-.37a.12.12 0 00-.12.1l-.08 1a.3.3 0 01.14.17zM21.71 83.63l.08.01-.03-.33-.05.32zM20.81 58.67h.54v25.55h-.54zM20.81 88.93h.54v17.95h-.54zM20.81 118.38h.54v27.73h-.54zM20.81 148.8h.54v17.78h-.54z" class="cls-4"/>
    </g>
  </g>
</svg>
