<svg xmlns="http://www.w3.org/2000/svg" id="Layer_1" data-name="Layer 1" viewBox="0 0 100 17.19">
  <defs>
    <radialGradient id="radial-gradient" cx="-1389.99" cy="520.72" r=".2" gradientTransform="matrix(44 0 0 -44 61168.29 22920.1)" gradientUnits="userSpaceOnUse">
      <stop offset="0" stop-color="#ec1978"/>
      <stop offset="1" stop-color="#7b143e"/>
    </radialGradient>
    <style>
      .cls-2{fill:#fff}
    </style>
  </defs>
  <circle cx="8.6" cy="8.6" r="8.6" fill="url(#radial-gradient)"/>
  <path d="M8.47 12.94h-.25a4.27 4.27 0 01-2.7-7.25.28.28 0 01.4 0l.65.63a5.44 5.44 0 014.26-2.48.29.29 0 01.28.29.43.43 0 010 .11A4.79 4.79 0 0010.84 7l.64-.81a.3.3 0 01.23-.11h.14a.28.28 0 01.23.13 4.26 4.26 0 01-3.46 6.71h-.15zM7.36 9.78a1.33 1.33 0 00-.42 1.05 1.54 1.54 0 001.34 1.53h.23A1.54 1.54 0 0010 10.84a2.65 2.65 0 00-1.31-2.57 2.33 2.33 0 01-.2 1.81.27.27 0 01-.22.14h-.08a1 1 0 01-.83-.44zM8 7.39h.09a3.27 3.27 0 012.43 3.45 2.08 2.08 0 01-.3 1.16 3.71 3.71 0 001.67-5c0-.08-.08-.16-.13-.24l-.83 1a.3.3 0 01-.22.1h-.05a.27.27 0 01-.22-.19 5.36 5.36 0 010-3.29A4.84 4.84 0 006.88 6.9a.26.26 0 01-.21.1.25.25 0 01-.24 0l-.69-.67a3.71 3.71 0 00.45 5.22 3.19 3.19 0 00.42.3 2 2 0 01-.24-1 1.88 1.88 0 011-1.76.28.28 0 01.39.11v.1a.41.41 0 00.3.34 1.68 1.68 0 00-.25-1.78.28.28 0 010-.4.34.34 0 01.19-.07z" class="cls-2"/>
  <path d="M8.6 15.44a7 7 0 01-1.38-.14 6.82 6.82 0 01-4.92-4 6.63 6.63 0 01-.4-1.3 6.7 6.7 0 010-2.75 6.81 6.81 0 011-2.45 6.73 6.73 0 013-2.47 6.34 6.34 0 011.28-.4A6.75 6.75 0 0110 1.9a6.86 6.86 0 014.92 4 7 7 0 01.4 1.28 7.12 7.12 0 010 2.76 6.86 6.86 0 01-4 4.92 7 7 0 01-1.28.4 7.18 7.18 0 01-1.44.18zm0-13.12a6 6 0 00-1.27.13 6.15 6.15 0 00-2.24.94 6.33 6.33 0 00-2.28 2.76 6.18 6.18 0 00-.36 1.18 6.34 6.34 0 000 2.53 6.12 6.12 0 00.94 2.25 6.32 6.32 0 003.94 2.64 6.26 6.26 0 004.78-.95 6.24 6.24 0 002.27-2.8 6 6 0 00.37-1.18 6.34 6.34 0 000-2.53A6.34 6.34 0 0011 2.81a6 6 0 00-1.18-.36 5.92 5.92 0 00-1.22-.13z" style="isolation:isolate" fill="#fff"/>
  <path d="M26.1 11.34V6h3.47v.79h-2.49v1.5h2V9h-2v2.3zM39.28 11.43a2.77 2.77 0 01-1.4-.35 2.56 2.56 0 01-1-1 3.24 3.24 0 010-2.89 2.56 2.56 0 011-1 2.77 2.77 0 011.4-.35 2.81 2.81 0 011.41.35 2.46 2.46 0 01.94 1A3 3 0 0142 8.66a3 3 0 01-.34 1.44 2.46 2.46 0 01-.94 1 2.81 2.81 0 01-1.44.33zm0-.88a1.57 1.57 0 001.23-.55A2 2 0 0041 8.66a2 2 0 00-.45-1.39 1.57 1.57 0 00-1.23-.51 1.55 1.55 0 00-1.22.51 2 2 0 00-.46 1.39 2 2 0 00.42 1.34 1.55 1.55 0 001.22.55zM51.35 11.43a2.47 2.47 0 01-1.07-.23 1.79 1.79 0 01-.76-.71 2.43 2.43 0 01-.28-1.21V6h1v3.29a1.31 1.31 0 00.3.94 1.31 1.31 0 001.67 0 1.27 1.27 0 00.31-.94V6h1v3.28a2.24 2.24 0 01-.29 1.21 1.78 1.78 0 01-.78.71 2.5 2.5 0 01-1.1.23zM60.94 11.34V6h1l2.52 3.78V6h1v5.37h-1l-2.54-3.8v3.77zM72.91 11.34V6h1.83a3.1 3.1 0 011.55.34 2.1 2.1 0 01.91.93 3.13 3.13 0 01.29 1.42 3.12 3.12 0 01-.29 1.41 2.17 2.17 0 01-.91.94 3.21 3.21 0 01-1.55.33zm1-.84h.81a2.26 2.26 0 001.06-.22 1.27 1.27 0 00.56-.63 2.66 2.66 0 00.17-1 2.62 2.62 0 00-.17-1 1.25 1.25 0 00-.58-.65 2.14 2.14 0 00-1.06-.22h-.81zM84.8 11.34V6h2a2.2 2.2 0 011.06.22 1.5 1.5 0 01.63.59 1.64 1.64 0 01.21.82 1.66 1.66 0 01-.26.9 1.45 1.45 0 01-.8.59l1.11 2.25h-1.16l-1-2.12h-.82v2.12zm1-2.84h.93a1 1 0 00.72-.24.81.81 0 00.23-.62.86.86 0 00-.24-.64 1 1 0 00-.74-.23h-.92zM97.22 11.34V9.43L95.42 6h1.11l1.19 2.48L98.9 6h1.1l-1.79 3.43v1.91z" class="cls-2"/>
</svg>
