<svg id="b501d1e8-e6f9-4777-9ea8-0517c5edbd73" data-name="Layer 1" xmlns="http://www.w3.org/2000/svg" xmlns:xlink="http://www.w3.org/1999/xlink" viewBox="0 0 67.13307 496.6767"><defs><linearGradient id="b05b39fc-9475-4336-ac0f-58d57d35f1fb" y1="248.33835" x2="67.13307" y2="248.33835" gradientUnits="userSpaceOnUse"><stop offset="0.24372" stop-color="#0fa4d0"/><stop offset="0.76382" stop-color="#fff"/></linearGradient></defs><title>curly-bracket-connector copy</title><path d="M9.96952,123.241v.02a16.58547,16.58547,0,0,1,16.56642,16.56677v337.304a19.56684,19.56684,0,0,0,19.54487,19.545H67.13307V485.32031H46.08081a8.19774,8.19774,0,0,1-8.18866-8.18857v-337.304a27.86635,27.86635,0,0,0-11.11515-22.245A27.86578,27.86578,0,0,0,37.89215,95.33826V19.545a8.19775,8.19775,0,0,1,8.18866-8.18857H66.46613V0H46.08081A19.56684,19.56684,0,0,0,26.53594,19.545V95.33826a16.57612,16.57612,0,0,1-16.17226,16.54636H0V123.241Z" style="fill:url(#b05b39fc-9475-4336-ac0f-58d57d35f1fb)"/></svg>