<svg xmlns="http://www.w3.org/2000/svg" id="Layer_1" data-name="Layer 1" viewBox="0 0 81.82 15">
  <defs>
    <style>
      .cls-3{fill:#fff}
    </style>
  </defs>
  <path fill="#ec1978" d="M20 7.5A30.53 30.53 0 010 15h81.82V0H40.07A30.52 30.52 0 0020 7.5z"/>
  <g style="isolation:isolate">
    <path d="M37.63 10.26V4.51h2.17a1.93 1.93 0 011.35.42A1.35 1.35 0 0141.61 6a1.3 1.3 0 01-.29.88 1.58 1.58 0 01-.72.44 1.37 1.37 0 01.59.26 1.36 1.36 0 01.55 1.13 1.52 1.52 0 01-.21.8 1.55 1.55 0 01-.64.57 2.42 2.42 0 01-1 .2zM38.5 7h1.19a1.08 1.08 0 00.76-.23.81.81 0 00.27-.64.86.86 0 00-.26-.65 1.18 1.18 0 00-.79-.23H38.5zm0 2.58h1.25a1.27 1.27 0 00.82-.25.85.85 0 00.29-.69.84.84 0 00-.31-.7 1.22 1.22 0 00-.82-.26H38.5zM45.51 10.36a2.59 2.59 0 01-1.12-.24 1.76 1.76 0 01-.78-.75 2.41 2.41 0 01-.3-1.27V4.51h.88v3.6a1.51 1.51 0 00.36 1.11 1.52 1.52 0 001.94 0 1.47 1.47 0 00.37-1.11v-3.6h.87V8.1a2.41 2.41 0 01-.3 1.27 1.83 1.83 0 01-.81.75 2.54 2.54 0 01-1.11.24zM51 10.26V8.14l-1.9-3.63h1l1.3 2.78 1.35-2.78h1l-1.91 3.63v2.12zM57.83 10.26V4.51h3.61v.71h-2.73V7H61v.7h-2.29v2.53zM63 10.26V4.51h2a2.48 2.48 0 011.12.23 1.5 1.5 0 01.65.62 1.81 1.81 0 01.21.87 1.74 1.74 0 01-.28 1 1.53 1.53 0 01-.88.62L67 10.26h-1l-1.15-2.32h-1v2.32zm.88-3h1.06a1.14 1.14 0 00.81-.26 1 1 0 00.25-.75 1 1 0 00-.27-.73 1.18 1.18 0 00-.88-.28h-1zM69.86 10.26V8.14L68 4.51h1l1.35 2.78 1.35-2.78h1l-1.97 3.63v2.12z" class="cls-3"/>
  </g>
</svg>
