<svg xmlns="http://www.w3.org/2000/svg" id="Layer_1" data-name="Layer 1" viewBox="0 0 81.82 15">
  <defs>
    <style>
      .cls-3{fill:#fff}
    </style>
  </defs>
  <path fill="#ec1978" d="M20 7.5A30.53 30.53 0 010 15h81.82V0H40.07A30.52 30.52 0 0020 7.5z"/>
  <g style="isolation:isolate">
    <path d="M27.18 9.8a1.26 1.26 0 01-.57-.12.85.85 0 01-.38-.32.88.88 0 01-.13-.49.9.9 0 01.17-.55 1.14 1.14 0 01.51-.38 1 1 0 01-.2-.3.73.73 0 01-.06-.3.63.63 0 01.22-.5.81.81 0 01.6-.2 1 1 0 01.44.09.78.78 0 01.28.26.75.75 0 01.09.37h-.45a.31.31 0 00-.11-.27.38.38 0 00-.25-.09.37.37 0 00-.27.09.33.33 0 00-.1.24.45.45 0 00.07.25 1.56 1.56 0 00.22.28l.91.91c.07-.11.15-.24.23-.39l.12-.22H29l-.18.32a4.38 4.38 0 01-.35.59l.68.68h-.57l-.37-.37a1.51 1.51 0 01-.47.32 1.47 1.47 0 01-.56.1zm-.63-1a.55.55 0 00.17.41.67.67 0 00.47.16 1 1 0 00.39-.07 1.29 1.29 0 00.34-.26l-.87-.86a.78.78 0 00-.38.26.6.6 0 00-.12.4zM31.32 9.75V6.69h1.92v.38h-1.46V8H33v.4h-1.22v1.35zM35.19 9.8a1.25 1.25 0 01-.59-.13.93.93 0 01-.42-.39A1.29 1.29 0 0134 8.6V6.69h.46V8.6a.78.78 0 00.2.59.79.79 0 001 0 .78.78 0 00.19-.59V6.69h.47V8.6a1.39 1.39 0 01-.16.68 1 1 0 01-.43.39 1.31 1.31 0 01-.54.13zM38 9.75V7.07h-.91v-.38h2.27v.38h-.9v2.68zM41.32 9.8a1.32 1.32 0 01-.6-.13 1 1 0 01-.41-.39 1.29 1.29 0 01-.16-.68V6.69h.46V8.6a.78.78 0 00.2.59.79.79 0 001 0A.78.78 0 0042 8.6V6.69h.47V8.6a1.39 1.39 0 01-.16.68 1 1 0 01-.43.39 1.31 1.31 0 01-.56.13zM43.44 9.75V6.69h1.05a1.34 1.34 0 01.6.12.86.86 0 01.35.33 1 1 0 01.11.46 1 1 0 01-.15.52.88.88 0 01-.47.33l.65 1.3H45l-.59-1.23h-.51v1.23zm.46-1.58h.57a.59.59 0 00.46-.17.56.56 0 00.14-.39.49.49 0 00-.14-.39.63.63 0 00-.47-.15h-.56zM46.44 9.75V6.69h2v.38h-1.53V8h1.35v.37h-1.35v1h1.48v.38zM50.74 9.75V6.69h1.07a1.26 1.26 0 01.59.12.75.75 0 01.35.33.91.91 0 01.12.47 1 1 0 01-.11.45.8.8 0 01-.35.33 1.21 1.21 0 01-.6.13h-.61v1.23zm.46-1.61h.59a.63.63 0 00.47-.14.52.52 0 00.14-.38.57.57 0 00-.14-.4.68.68 0 00-.47-.14h-.59zM53.68 9.75V6.69h1a1.34 1.34 0 01.6.12.78.78 0 01.34.33.9.9 0 01.12.46 1 1 0 01-.15.52.88.88 0 01-.47.33l.65 1.3h-.54l-.59-1.23h-.55v1.23zm.46-1.58h.57a.6.6 0 00.46-.17.56.56 0 00.14-.39.53.53 0 00-.14-.39.63.63 0 00-.47-.15h-.56zM58.09 9.8a1.57 1.57 0 01-.79-.2 1.3 1.3 0 01-.53-.6 1.78 1.78 0 010-1.64 1.3 1.3 0 01.53-.56 1.68 1.68 0 011.59 0 1.36 1.36 0 01.53.56 1.66 1.66 0 01.19.82 1.66 1.66 0 01-.19.82 1.36 1.36 0 01-.53.56 1.58 1.58 0 01-.8.24zm0-.41a1.07 1.07 0 00.55-.14 1 1 0 00.36-.41 1.32 1.32 0 00.13-.62 1.39 1.39 0 00-.13-.63 1 1 0 00-.37-.4 1.07 1.07 0 00-.55-.14 1.12 1.12 0 00-.55.14 1.07 1.07 0 00-.36.4 1.39 1.39 0 00-.13.63 1.32 1.32 0 00.13.62 1 1 0 00.36.41 1.12 1.12 0 00.56.14zM60.48 9.75V6.69h1a1.77 1.77 0 01.88.19 1.21 1.21 0 01.52.53 1.86 1.86 0 01.17.81 1.8 1.8 0 01-.17.81 1.21 1.21 0 01-.52.53 1.77 1.77 0 01-.88.19zm.46-.39h.51a1.35 1.35 0 00.66-.14.83.83 0 00.35-.39 1.59 1.59 0 00.1-.61 1.63 1.63 0 00-.1-.61.83.83 0 00-.35-.39 1.35 1.35 0 00-.66-.14h-.51zM65 9.8a1.25 1.25 0 01-.59-.13.93.93 0 01-.41-.39 1.39 1.39 0 01-.16-.68V6.69h.47V8.6a.78.78 0 00.19.59.69.69 0 00.52.19.67.67 0 00.51-.19.78.78 0 00.2-.59V6.69h.46V8.6a1.29 1.29 0 01-.16.68 1 1 0 01-.43.39 1.28 1.28 0 01-.6.13zM68.53 9.8a1.52 1.52 0 01-.79-.2 1.35 1.35 0 01-.51-.55 1.81 1.81 0 01-.18-.83 1.77 1.77 0 01.18-.82 1.32 1.32 0 01.51-.56 1.52 1.52 0 01.79-.2 1.41 1.41 0 01.87.26 1.15 1.15 0 01.44.73h-.52a.77.77 0 00-.26-.42 1 1 0 00-1.26.16 1.24 1.24 0 00-.27.85 1.28 1.28 0 00.27.86.91.91 0 00.72.31.89.89 0 00.54-.15.71.71 0 00.26-.41h.52a1.13 1.13 0 01-.44.71 1.41 1.41 0 01-.87.26zM71.36 9.75V7.07h-.91v-.38h2.27v.38h-.9v2.68zM74.45 9.8a1.38 1.38 0 01-.59-.12 1 1 0 01-.39-.33 1 1 0 01-.15-.52h.49a.57.57 0 00.17.41.74.74 0 00.89 0A.4.4 0 0075 9a.42.42 0 00-.27-.42 1.1 1.1 0 00-.29-.12l-.34-.12a1.27 1.27 0 01-.53-.3.7.7 0 01-.18-.5.84.84 0 01.14-.54.91.91 0 01.35-.29 1.12 1.12 0 01.53-.11 1.08 1.08 0 01.52.11.79.79 0 01.35.3.77.77 0 01.13.45h-.48a.36.36 0 00-.07-.22.58.58 0 00-.17-.18.54.54 0 00-.29-.06.52.52 0 00-.36.11.37.37 0 00-.15.31.36.36 0 00.11.28.88.88 0 00.29.16l.42.15a2.1 2.1 0 01.4.18.75.75 0 01.29.27.81.81 0 01.11.43.8.8 0 01-.12.43.89.89 0 01-.36.33 1.25 1.25 0 01-.58.15z" class="cls-3"/>
  </g>
</svg>
