<svg xmlns="http://www.w3.org/2000/svg" id="Layer_1" data-name="Layer 1" viewBox="0 0 81.82 15">
  <defs>
    <style>
      .cls-2{isolation:isolate}.cls-3{fill:#fff}
    </style>
  </defs>
  <path fill="#ec1978" d="M34.67 7.5a30.55 30.55 0 01-20 7.5h67.15V0H54.71a30.48 30.48 0 00-20.04 7.5z"/>
  <g class="cls-2">
    <g class="cls-2">
      <path d="M45.84 9.8a1.37 1.37 0 01-.76-.2 1.34 1.34 0 01-.5-.55 1.77 1.77 0 01-.18-.82 1.84 1.84 0 01.18-.83 1.43 1.43 0 01.53-.56 1.56 1.56 0 01.8-.2 1.42 1.42 0 01.87.25 1.16 1.16 0 01.45.7h-.52a.7.7 0 00-.27-.38.89.89 0 00-.53-.14 1 1 0 00-.76.31 1.24 1.24 0 00-.27.85 1.22 1.22 0 00.27.85.9.9 0 00.72.31.87.87 0 00.68-.26 1.2 1.2 0 00.27-.68H46v-.36h1.3v1.66h-.43V9.3a1.12 1.12 0 01-.38.37 1.19 1.19 0 01-.65.13zM48.2 9.75V6.69h1.94v.38h-1.48V8H50v.37h-1.34v1h1.48v.38zM51.76 9.75V7.07h-.9v-.38h2.26v.38h-.9v2.68zM55.16 9.75l1.13-3.06h.5l1.12 3.06h-.49L57.16 9h-1.25l-.26.75zM56 8.63h1l-.5-1.39zM58.69 9.75V6.69h.46L60.68 9V6.69h.47v3.06h-.47l-1.53-2.3v2.3z" class="cls-3"/>
    </g>
    <g class="cls-2">
      <path d="M63.12 9.8a1.38 1.38 0 01-.59-.12 1 1 0 01-.39-.33 1 1 0 01-.14-.52h.49a.67.67 0 001.06.45.4.4 0 00.14-.28.42.42 0 00-.27-.42 1.1 1.1 0 00-.29-.12l-.34-.12a1.27 1.27 0 01-.53-.3.7.7 0 01-.18-.5.77.77 0 01.13-.54.81.81 0 01.34-.29 1.12 1.12 0 01.53-.11 1.08 1.08 0 01.52.11.79.79 0 01.35.3.85.85 0 01.14.45h-.49a.43.43 0 00-.06-.22.77.77 0 00-.18-.18.54.54 0 00-.29-.06.52.52 0 00-.36.11.37.37 0 00-.14.31.36.36 0 00.1.28.88.88 0 00.29.16l.42.15a2.1 2.1 0 01.4.18.75.75 0 01.29.27.81.81 0 01.11.43.8.8 0 01-.12.43.93.93 0 01-.35.33 1.32 1.32 0 01-.59.15z" class="cls-3"/>
    </g>
    <g class="cls-2">
      <path d="M65.6 9.75l-.82-3.06h.49l.61 2.53.7-2.53h.51l.68 2.53.6-2.53h.5L68 9.75h-.54l-.67-2.4-.69 2.4zM69.65 9.75V6.69h1.94v.38h-1.48V8h1.35v.37h-1.35v1h1.48v.38zM72.49 9.75V6.69h1.05a1.34 1.34 0 01.6.12.86.86 0 01.35.33 1 1 0 01.11.46 1 1 0 01-.15.52.88.88 0 01-.47.33l.65 1.3h-.54l-.59-1.23H73v1.23zM73 8.17h.57A.59.59 0 0074 8a.56.56 0 00.14-.39.49.49 0 00-.14-.38.63.63 0 00-.47-.15H73zM76.5 9.8a1.38 1.38 0 01-.59-.12 1 1 0 01-.39-.33 1 1 0 01-.15-.52h.49a.57.57 0 00.17.41.74.74 0 00.89 0 .4.4 0 00.15-.24.42.42 0 00-.27-.42 1.1 1.1 0 00-.29-.12l-.34-.12a1.27 1.27 0 01-.53-.3.7.7 0 01-.18-.5.84.84 0 01.12-.54.91.91 0 01.35-.29 1.12 1.12 0 01.53-.11 1.08 1.08 0 01.52.11.79.79 0 01.35.3.85.85 0 01.14.45H77a.36.36 0 00-.07-.22.58.58 0 00-.17-.18.54.54 0 00-.31-.06.52.52 0 00-.36.11.37.37 0 00-.15.31.36.36 0 00.11.28.88.88 0 00.29.16l.42.15a2.1 2.1 0 01.4.18.75.75 0 01.29.27.81.81 0 01.11.43.8.8 0 01-.12.43.89.89 0 01-.36.33 1.25 1.25 0 01-.58.15z" class="cls-3"/>
    </g>
  </g>
</svg>
