<svg xmlns="http://www.w3.org/2000/svg" id="Layer_1" data-name="Layer 1" viewBox="0 0 92.09 15">
  <defs>
    <style>
      .cls-3{fill:#fff}
    </style>
  </defs>
  <path fill="#12a5d1" d="M20 7.5A30.53 30.53 0 010 15h92.09V0h-52A30.52 30.52 0 0020 7.5z"/>
  <g style="isolation:isolate">
    <path d="M28.58 9.79V6.73h1.05a1.21 1.21 0 01.6.13.86.86 0 01.35.33 1 1 0 01.11.46.9.9 0 01-.15.51.78.78 0 01-.47.33l.65 1.3h-.54l-.59-1.23H29v1.23zM29 8.21h.57a.62.62 0 00.46-.15.59.59 0 00.14-.4.56.56 0 00-.14-.39.63.63 0 00-.47-.15H29zM31.58 9.79V6.73h2v.38h-1.53v1h1.35v.37h-1.35v1h1.48v.37zM34.23 9.79l1.13-3.06h.51L37 9.79h-.49L36.23 9H35l-.26.75zm.88-1.11h1l-.49-1.4zM37.76 9.79V6.73h1a1.92 1.92 0 01.89.19 1.19 1.19 0 01.51.53 1.74 1.74 0 01.17.82 1.73 1.73 0 01-.17.81 1.19 1.19 0 01-.51.53 1.93 1.93 0 01-.89.18zm.46-.39h.52a1.33 1.33 0 00.65-.14.78.78 0 00.35-.39 1.53 1.53 0 00.11-.6 1.58 1.58 0 00-.11-.61.77.77 0 00-.35-.4 1.33 1.33 0 00-.65-.14h-.52zM43.35 9.79V7.11h-.91v-.38h2.27v.38h-.9v2.68zM45.49 9.79V6.73H46V8h1.48V6.73h.46v3.06h-.46V8.42H46v1.37zM48.87 9.79V6.73h1.94v.38h-1.48v1h1.35v.37h-1.35v1h1.48v.37zM53.05 9.79v-.36l1.46-2.3h-1.44v-.4h2v.36L53.58 9.4h1.48v.39zM55.92 9.79V6.73h.46v3.06zM57.35 9.79V6.73h.54l1 2 1-2h.55v3.06H60V7.53l-.93 1.83h-.36l-.94-1.82v2.25zM61.48 9.79V6.73h1a1.88 1.88 0 01.88.19 1.21 1.21 0 01.52.53 2 2 0 010 1.63 1.21 1.21 0 01-.52.53 1.89 1.89 0 01-.88.18zm.46-.39h.51a1.35 1.35 0 00.66-.14.78.78 0 00.35-.39 1.54 1.54 0 00.1-.6 1.59 1.59 0 00-.1-.61.77.77 0 00-.35-.4 1.35 1.35 0 00-.66-.14h-.51zM64.49 9.79l1.13-3.06h.5l1.12 3.06h-.49L66.49 9h-1.25l-.24.79zm.88-1.11h1l-.49-1.4zM68 9.79V6.73h.46v3.06zM70.9 9.79V6.73H72a1.34 1.34 0 01.6.12.86.86 0 01.35.33.93.93 0 01.11.47.9.9 0 01-.11.46.78.78 0 01-.34.33 1.35 1.35 0 01-.61.12h-.6v1.23zm.47-1.61H72a.66.66 0 00.42-.18.52.52 0 00.14-.39.49.49 0 00-.14-.39.62.62 0 00-.42-.11h-.58zM73.29 9.79l1.13-3.06h.51L76 9.79h-.49L75.29 9H74l-.26.75zm.88-1.11h1l-.49-1.4zM76.82 9.79V6.73h1.07a1.34 1.34 0 01.6.12.86.86 0 01.35.33 1 1 0 01.11.47.9.9 0 01-.11.46.75.75 0 01-.35.33 1.28 1.28 0 01-.6.12h-.61v1.23zm.46-1.61h.59a.66.66 0 00.47-.18.56.56 0 00.14-.39.53.53 0 00-.14-.39.62.62 0 00-.47-.15h-.59zM79.76 9.79V6.73h1.95v.38h-1.49v1h1.35v.37h-1.35v1h1.49v.37zM82.61 9.79V6.73h1a1.15 1.15 0 01.59.13.75.75 0 01.35.33.88.88 0 01.12.46.84.84 0 01-.16.51.76.76 0 01-.47.33l.66 1.3h-.54l-.6-1.23h-.54v1.23zm.46-1.58h.56a.61.61 0 00.46-.15.55.55 0 00.15-.4.53.53 0 00-.15-.39.61.61 0 00-.46-.15h-.56z" class="cls-3"/>
  </g>
</svg>
