<svg xmlns="http://www.w3.org/2000/svg" id="Layer_1" data-name="Layer 1" viewBox="0 0 95.43 15">
  <defs>
    <style>
      .cls-3{fill:#fff}
    </style>
  </defs>
  <path fill="#12a5d1" d="M20 7.5A30.53 30.53 0 010 15h95.43V0H40.07A30.52 30.52 0 0020 7.5z"/>
  <g style="isolation:isolate">
    <path d="M26.87 9.75L26 6.69h.5l.61 2.53.7-2.53h.51L29 9.22l.6-2.53h.5l-.8 3.06h-.54l-.67-2.4-.69 2.4zM30.91 9.75V6.69h1.95v.38h-1.48V8h1.35v.37h-1.35v1h1.48v.38zM33.76 9.75V6.69h1.94v.38h-1.48V8h1.35v.37h-1.35v1h1.48v.38zM36.6 9.75V6.69h.46V8l1.21-1.31h.57l-1.13 1.22 1.16 1.84h-.56l-.93-1.49-.32.34v1.15zM39.62 9.75V6.69h.46v2.69h1.39v.37zM42.66 9.75V8.62l-1-1.93h.52l.72 1.48.72-1.48h.52l-1 1.93v1.13zM46.31 9.75V6.69h1.07a1.34 1.34 0 01.6.12.86.86 0 01.35.33.91.91 0 01.11.47.86.86 0 01-.11.45.78.78 0 01-.34.33 1.23 1.23 0 01-.61.13h-.6v1.23zm.47-1.61h.58a.62.62 0 00.47-.14.48.48 0 00.17-.39.53.53 0 00-.14-.4.66.66 0 00-.47-.14h-.58zM49.25 9.75V6.69h1.06a1.26 1.26 0 01.59.12.8.8 0 01.35.33 1 1 0 01.11.46 1 1 0 01-.15.52.88.88 0 01-.47.33l.65 1.3h-.53l-.6-1.23h-.54v1.23zm.47-1.58h.56a.59.59 0 00.46-.17.53.53 0 00.15-.39.5.5 0 00-.15-.39.62.62 0 00-.47-.15h-.55zM53.67 9.8a1.61 1.61 0 01-.8-.2 1.43 1.43 0 01-.53-.6 1.66 1.66 0 01-.19-.82 1.66 1.66 0 01.19-.82 1.43 1.43 0 01.53-.56 1.61 1.61 0 01.8-.2 1.54 1.54 0 01.79.2 1.3 1.3 0 01.54.6 1.66 1.66 0 01.19.82A1.66 1.66 0 0155 9a1.3 1.3 0 01-.53.56 1.54 1.54 0 01-.8.24zm0-.41a1.1 1.1 0 00.55-.14 1 1 0 00.36-.41 1.32 1.32 0 00.13-.62 1.39 1.39 0 00-.13-.63 1.07 1.07 0 00-.36-.4 1.15 1.15 0 00-1.1 0 1 1 0 00-.37.4 1.54 1.54 0 00-.13.63 1.46 1.46 0 00.13.62 1 1 0 00.37.41 1.1 1.1 0 00.55.14zM57.38 9.8a1.37 1.37 0 01-.76-.2 1.34 1.34 0 01-.5-.55 1.77 1.77 0 01-.18-.82 1.84 1.84 0 01.18-.83 1.43 1.43 0 01.53-.56 1.56 1.56 0 01.8-.2 1.42 1.42 0 01.87.25 1.18 1.18 0 01.46.7h-.53a.7.7 0 00-.25-.38.89.89 0 00-.53-.14 1 1 0 00-.76.31 1.24 1.24 0 00-.27.85 1.22 1.22 0 00.27.85.9.9 0 00.72.31.87.87 0 00.68-.26 1.2 1.2 0 00.27-.68h-.83v-.36h1.3v1.66h-.45V9.3a1.12 1.12 0 01-.38.37 1.19 1.19 0 01-.64.13zM59.74 9.75V6.69h1a1.34 1.34 0 01.6.12.8.8 0 01.35.33 1 1 0 01.11.46 1 1 0 01-.15.52.88.88 0 01-.47.33l.65 1.3h-.54l-.59-1.23h-.5v1.23zm.46-1.58h.57a.59.59 0 00.46-.17.52.52 0 00.14-.39.49.49 0 00-.14-.39.63.63 0 00-.47-.15h-.56zM62.75 9.75V6.69h1.94v.38h-1.48V8h1.35v.37h-1.35v1h1.48v.38zM66.6 9.8a1.35 1.35 0 01-.6-.12 1 1 0 01-.4-.33 1 1 0 01-.14-.52H66a.57.57 0 00.17.41.58.58 0 00.46.17.6.6 0 00.37-.13.4.4 0 00.16-.28.44.44 0 00-.07-.26.46.46 0 00-.2-.16 1.18 1.18 0 00-.28-.12l-.34-.12a1.16 1.16 0 01-.53-.3.7.7 0 01-.18-.5.76.76 0 01.44-.79 1.08 1.08 0 01.52-.11 1.12 1.12 0 01.53.11.81.81 0 01.48.75h-.49a.43.43 0 00-.04-.22.51.51 0 00-.46-.28.55.55 0 00-.36.11.4.4 0 00-.14.31.36.36 0 00.1.28.88.88 0 00.29.16l.42.15a2.2 2.2 0 01.41.18.76.76 0 01.39.7.8.8 0 01-.12.43.86.86 0 01-.35.33 1.28 1.28 0 01-.58.15zM69.52 9.8a1.35 1.35 0 01-.59-.12 1 1 0 01-.4-.33 1 1 0 01-.14-.52h.48a.61.61 0 00.17.41.62.62 0 00.47.17.6.6 0 00.42-.13.4.4 0 00.15-.28.44.44 0 00-.08-.31.53.53 0 00-.2-.16 1.18 1.18 0 00-.28-.12l-.35-.12a1.27 1.27 0 01-.53-.3.74.74 0 01-.17-.5.7.7 0 01.13-.49.84.84 0 01.4-.25 1.28 1.28 0 011 0 .88.88 0 01.36.3 1 1 0 01.13.45H70a.43.43 0 00-.06-.22.52.52 0 00-.18-.18.54.54 0 00-.3-.1.52.52 0 00-.36.11.37.37 0 00-.14.31.36.36 0 00.1.28.88.88 0 00.29.16l.42.15a2.2 2.2 0 01.41.18.73.73 0 01.28.27.81.81 0 01.11.43.8.8 0 01-.12.43.93.93 0 01-.35.33 1.28 1.28 0 01-.58.15zM72.88 9.75V6.69h1a1.77 1.77 0 01.88.19 1.16 1.16 0 01.52.53 1.86 1.86 0 01.17.81 1.8 1.8 0 01-.17.81 1.16 1.16 0 01-.52.53 1.77 1.77 0 01-.88.19zm.46-.39h.51a1.35 1.35 0 00.66-.14.78.78 0 00.35-.39 1.59 1.59 0 00.1-.61 1.63 1.63 0 00-.1-.61.78.78 0 00-.35-.39 1.35 1.35 0 00-.66-.14h-.51zM76.3 9.75V6.69h1.94v.38h-1.48V8h1.35v.37h-1.35v1h1.48v.38zM79.14 9.75V6.69h.55l1 2 1-2h.55v3.06h-.47V7.49l-.87 1.82h-.36l-.94-1.82v2.26zM84.68 9.8a1.61 1.61 0 01-.8-.2 1.43 1.43 0 01-.53-.6 1.66 1.66 0 01-.19-.82 1.66 1.66 0 01.19-.82 1.43 1.43 0 01.53-.56 1.61 1.61 0 01.8-.2 1.54 1.54 0 01.79.2 1.3 1.3 0 01.53.6 1.66 1.66 0 01.19.82A1.66 1.66 0 0186 9a1.3 1.3 0 01-.53.56 1.54 1.54 0 01-.79.24zm0-.41a1.1 1.1 0 00.55-.14 1 1 0 00.36-.41 1.32 1.32 0 00.13-.62 1.39 1.39 0 00-.13-.63 1.07 1.07 0 00-.36-.4 1.15 1.15 0 00-1.1 0 1 1 0 00-.37.4 1.54 1.54 0 00-.13.63 1.46 1.46 0 00.13.62 1 1 0 00.37.41 1.1 1.1 0 00.55.14zM88.07 9.8a1.35 1.35 0 01-.59-.12 1 1 0 01-.4-.33 1 1 0 01-.14-.52h.49a.57.57 0 00.17.41.58.58 0 00.46.17.6.6 0 00.42-.13.4.4 0 00.15-.28.44.44 0 00-.07-.26.46.46 0 00-.2-.16 1.18 1.18 0 00-.28-.12l-.34-.12a1.16 1.16 0 01-.53-.3.7.7 0 01-.18-.5.76.76 0 01.47-.74 1.08 1.08 0 01.5-.16 1.12 1.12 0 01.53.11.81.81 0 01.47.75h-.49a.43.43 0 00-.06-.22A.51.51 0 0088 7a.55.55 0 00-.36.11.4.4 0 00-.14.31.36.36 0 00.1.28.88.88 0 00.29.16l.42.15a2.2 2.2 0 01.41.18.76.76 0 01.39.7.8.8 0 01-.12.43.86.86 0 01-.35.33 1.28 1.28 0 01-.57.15z" class="cls-3"/>
  </g>
</svg>
