<?xml version="1.0"?>
<svg xmlns:rdf="http://www.w3.org/1999/02/22-rdf-syntax-ns#" xmlns="http://www.w3.org/2000/svg" xmlns:cc="http://web.resource.org/cc/" xmlns:dc="http://purl.org/dc/elements/1.1/" xmlns:svg="http://www.w3.org/2000/svg" id="svg2" viewBox="0 0 240 240" version="1.0">
  <path style="fill: #0ca3cf;" id="path2182" d="m103.68 235.46c-19.899-2.72-37.626-10.44-55.293-24.09-23.138-17.87-38.93-45.6-42.935-75.37-1.7685-13.14-1.7685-17.86-0.0004-31 6.9554-51.702 47.961-92.782 99.338-99.517 14.09-1.8468 17.33-1.8468 31.42 0.0001 20.97 2.7487 38.33 10.181 56.4 24.143 17.8 13.749 30.98 32.763 38.42 55.413 3.14 9.554 5.93 26.261 5.93 35.461 0 2.75-0.63 9.72-1.41 15.5-6.96 51.7-47.96 92.78-99.34 99.52-13.36 1.75-19.31 1.74-32.53-0.06zm13.32-3.75c0-0.16-1.37-4.55-3.05-9.75s-6.91-21.38-11.62-35.96c-4.704-14.58-8.87-26.84-9.255-27.26-0.384-0.42-18.114-0.65-39.4-0.5l-38.701 0.26 5.468 11c8.071 16.23 17.033 27.27 31.853 39.24 12.925 10.43 34.341 19.68 51.355 22.16 6.02 0.88 13.35 1.32 13.35 0.81zm32-3.37c12.92-3.34 30.02-11.78 39.7-19.6 14.83-11.97 23.79-23.01 31.86-39.24l5.47-11-38.7-0.26c-21.29-0.15-39.02 0.08-39.41 0.5-0.38 0.42-4.55 12.68-9.25 27.26-4.71 14.58-9.94 30.76-11.62 35.96s-3.05 9.64-3.05 9.87c0 1.02 16.43-1.27 25-3.49zm-20.53-25.84c3.72-11.55 8.28-25.49 10.14-30.99 1.87-5.49 3.39-10.77 3.39-11.75 0-1.63-1.62-1.76-21.5-1.76-19.08 0-21.5 0.18-21.5 1.61 0 0.88 2.75 9.99 6.11 20.25 3.36 10.25 7.88 24.04 10.03 30.64 2.16 6.6 4.15 12.64 4.43 13.42 0.91 2.6 2.09-0.24 8.9-21.42zm-37.47-50.52c0-0.57-2.954-10.03-6.564-21.02-4.607-14.04-6.917-19.78-7.75-19.27-3.231 2-55.686 40.49-55.686 40.87 0 0.24 15.75 0.44 35 0.44 23.234 0 35-0.34 35-1.02zm60.85-21.8c4.04-12.27 7.19-22.43 7-22.57-23.69-17.319-37.39-26.943-38.35-26.943-0.68 0-9.5 6.005-19.61 13.344-10.116 7.339-18.541 13.449-18.726 13.589-0.412 0.29 12.698 41.2 13.995 43.67 0.856 1.62 2.826 1.74 24.631 1.5l23.71-0.27 7.35-22.32zm68.15 22.38c0-0.38-52.46-38.87-55.69-40.87-0.83-0.51-3.14 5.23-7.75 19.27-3.61 10.99-6.56 20.45-6.56 21.02 0 0.68 11.77 1.02 35 1.02 19.25 0 35-0.2 35-0.44zm-174.31-24.13c16.397-11.92 29.977-21.82 30.178-22 0.202-0.18-0.83-4.06-2.292-8.63-1.463-4.565-6.429-20-11.036-34.3s-8.668-27.012-9.024-28.25c-0.863-2.994-1.761-2.848-6.161 1-19.929 17.428-33.844 42.832-37.286 68.07-2.5087 18.4 0.34 47.89 4.472 46.3 0.736-0.28 14.753-10.26 31.149-22.19zm183.18 19.32c2.98-9.4 3.94-29.65 2.06-43.43-3.44-25.238-17.35-50.642-37.28-68.07-4.4-3.848-5.3-3.994-6.16-1-0.36 1.238-4.42 13.95-9.03 28.25s-9.57 29.735-11.03 34.3c-1.47 4.57-2.5 8.45-2.3 8.63 2.14 1.93 61.43 44.57 61.98 44.57 0.4 0 1.2-1.46 1.76-3.25zm-129.65-58.246c9.094-6.598 16.334-12.448 16.094-13-0.71-1.605-55.348-40.799-55.989-40.159-0.318 0.319 2.236 9.259 5.676 19.867 10.548 32.53 14.033 43.232 14.525 44.608 0.26 0.73 1.077 1.18 1.817 1 0.74-0.17 8.785-5.718 17.877-12.316zm66.294-1.004c14.44-44.375 16.69-51.633 16.17-52.155-0.64-0.64-55.29 38.556-55.98 40.155-0.55 1.253 32.29 25.45 34.19 25.19 0.84-0.11 3.05-5.315 5.62-13.19zm-28.43-26.434c9.03-6.563 18.67-13.575 21.42-15.582 2.75-2.006 9.39-6.822 14.75-10.701s9.75-7.415 9.75-7.858c0-1.714-24.93-12.953-34.5-15.553-9.15-2.4851-11.54-2.7171-28-2.7171s-18.85 0.232-28 2.7171c-9.57 2.6-34.5 13.839-34.5 15.553 0 0.443 4.388 3.979 9.75 7.858s12 8.695 14.75 10.701c17.59 12.834 37.86 27.516 38 27.516 0.09 0 7.55-5.37 16.58-11.934z"/>
  <metadata>
    <rdf:RDF>
      <cc:Work>
        <dc:format>image/svg+xml</dc:format>
        <dc:type rdf:resource="http://purl.org/dc/dcmitype/StillImage"/>
        <cc:license rdf:resource="http://creativecommons.org/licenses/publicdomain/"/>
        <dc:publisher>
          <cc:Agent rdf:about="http://openclipart.org/">
            <dc:title>Openclipart</dc:title>
          </cc:Agent>
        </dc:publisher>
        <dc:title>pentagram</dc:title>
        <dc:date>2006-12-26T00:00:00</dc:date>
        <dc:description>Black and white pentagram.</dc:description>
        <dc:source>http://openclipart.org/detail/3463/-by--3463</dc:source>
        <dc:creator>
          <cc:Agent>
            <dc:title>kotik</dc:title>
          </cc:Agent>
        </dc:creator>
        <dc:subject>
          <rdf:Bag>
            <rdf:li>b_w</rdf:li>
            <rdf:li>clip art</rdf:li>
            <rdf:li>clipart</rdf:li>
            <rdf:li>magic</rdf:li>
            <rdf:li>pentagram</rdf:li>
            <rdf:li>sign</rdf:li>
            <rdf:li>symbol</rdf:li>
          </rdf:Bag>
        </dc:subject>
      </cc:Work>
      <cc:License rdf:about="http://creativecommons.org/licenses/publicdomain/">
        <cc:permits rdf:resource="http://creativecommons.org/ns#Reproduction"/>
        <cc:permits rdf:resource="http://creativecommons.org/ns#Distribution"/>
        <cc:permits rdf:resource="http://creativecommons.org/ns#DerivativeWorks"/>
      </cc:License>
    </rdf:RDF>
  </metadata>
</svg>
