<?xml version="1.0" standalone="no"?>
<!DOCTYPE svg PUBLIC "-//W3C//DTD SVG 20010904//EN"
 "http://www.w3.org/TR/2001/REC-SVG-20010904/DTD/svg10.dtd">
<svg version="1.0" xmlns="http://www.w3.org/2000/svg"
 width="700.000000pt" height="700.000000pt" viewBox="0 0 700.000000 700.000000"
 preserveAspectRatio="xMidYMid meet">
<metadata>
Created by potrace 1.11, written by Peter Selinger 2001-2013
</metadata>
<g transform="translate(0.000000,700.000000) scale(0.100000,-0.100000)"
fill="#000000" stroke="none">
<path d="M3220 6990 c-610 -57 -1137 -237 -1629 -557 -405 -263 -761 -620
-1024 -1024 -304 -469 -486 -982 -549 -1544 -17 -152 -16 -584 0 -730 81 -690
333 -1300 760 -1835 102 -127 332 -361 467 -475 526 -442 1148 -712 1850 -802
196 -25 614 -25 810 0 715 92 1348 371 1880 827 120 103 342 332 436 450 428
536 677 1137 761 1835 22 182 16 606 -10 805 -91 676 -357 1286 -789 1807
-105 127 -360 377 -490 480 -513 409 -1097 657 -1747 744 -173 23 -572 33
-726 19z m710 -738 c611 -101 1141 -376 1570 -818 406 -418 659 -932 757
-1539 26 -158 26 -632 0 -790 -72 -448 -224 -835 -465 -1185 -222 -323 -534
-614 -872 -814 -311 -184 -636 -300 -1017 -362 -155 -25 -545 -30 -718 -9
-565 67 -1069 287 -1494 651 -544 466 -891 1127 -962 1837 -15 154 -7 547 15
680 101 629 372 1158 812 1588 244 237 499 412 802 548 222 101 511 184 742
215 63 9 129 18 145 20 17 2 149 3 295 1 209 -2 291 -7 390 -23z"/>
<path d="M3317 6050 c-1089 -84 -1995 -829 -2282 -1875 -178 -651 -89 -1361
245 -1942 125 -215 238 -362 419 -543 815 -813 2074 -980 3071 -408 210 121
359 236 540 417 322 322 543 706 660 1144 348 1309 -388 2664 -1678 3087 -301
98 -669 144 -975 120z m1173 -637 c48 -43 49 -88 7 -198 -80 -211 -119 -429
-120 -675 0 -150 15 -326 32 -373 6 -16 33 13 144 152 75 93 146 175 156 181
35 18 104 22 146 8 51 -17 96 -77 179 -238 124 -242 183 -464 192 -735 42
-1136 -989 -2001 -2104 -1765 -337 71 -630 236 -882 496 -306 315 -470 702
-487 1149 -17 460 158 924 470 1248 50 51 59 57 97 57 22 0 53 -6 68 -14 15
-8 83 -71 152 -140 69 -69 127 -126 131 -126 3 0 32 37 64 82 155 217 353 406
585 561 307 205 744 350 1067 356 66 1 76 -2 103 -26z"/>
<path d="M4094 5165 c-279 -64 -557 -198 -789 -379 -160 -125 -340 -330 -463
-526 -67 -108 -105 -137 -162 -126 -27 5 -70 40 -190 156 l-155 149 -23 -27
c-13 -15 -47 -63 -76 -107 -299 -449 -334 -1017 -95 -1500 73 -147 162 -273
274 -387 75 -77 254 -223 262 -214 2 2 -6 25 -17 52 -66 153 -85 409 -42 565
53 194 182 364 353 467 84 50 166 15 194 -83 12 -38 27 -64 56 -89 21 -20 45
-36 53 -36 32 0 67 145 67 276 0 156 -41 283 -135 413 -57 81 -63 132 -18 181
41 47 87 49 201 11 593 -199 962 -764 911 -1396 -12 -154 -36 -247 -90 -356
-22 -43 -36 -79 -32 -79 19 0 197 119 282 189 459 378 649 1027 468 1601 -32
102 -126 310 -139 310 -5 0 -88 -99 -185 -220 -146 -183 -181 -221 -210 -229
-40 -11 -94 1 -117 27 -32 35 -82 216 -113 407 -25 150 -25 497 0 640 16 99
58 283 71 318 9 23 -13 22 -141 -8z"/>
<path d="M3542 3619 c39 -101 44 -346 10 -483 -28 -112 -90 -245 -128 -275
-26 -21 -37 -23 -114 -19 -109 5 -178 36 -261 115 l-60 57 -34 -39 c-47 -55
-91 -141 -110 -210 -19 -75 -19 -240 0 -322 43 -183 177 -345 350 -423 87 -39
145 -51 254 -51 169 -1 307 57 432 181 120 120 173 241 188 432 17 207 -14
394 -94 563 -60 129 -106 197 -202 296 -81 84 -243 209 -231 178z"/>
</g>
</svg>
