<svg data-name="Layer 1" xmlns="http://www.w3.org/2000/svg" xmlns:xlink="http://www.w3.org/1999/xlink" viewBox="0 0 100 100"><defs><linearGradient id="a" x1="21.22" y1="77.4" x2="80.31" y2="18.32" gradientUnits="userSpaceOnUse"><stop offset="0" stop-color="#233267"/><stop offset=".64" stop-color="#234080"/><stop offset="1" stop-color="#006b98"/></linearGradient><linearGradient id="b" x1="56.28" y1="57.05" x2="81.37" y2="31.96" xlink:href="#a"/></defs><circle cx="50" cy="50" r="49.5" fill="#fff"/><path d="M90.32 28.33L85 23a.69.69 0 00-1 0l-3.18 3.18-1.66 1.66a12.89 12.89 0 00-12.27-9H30.34a12.92 12.92 0 00-12.9 12.91v36.53a12.92 12.92 0 0012.9 12.91H66.9a12.92 12.92 0 0012.91-12.91V39.83l7.33-7.33 3.18-3.18a.71.71 0 000-.99zm-63.84 4.93h43.14a1.22 1.22 0 110 2.43H26.48a1.22 1.22 0 010-2.43zm0 10.49h36.79l-2.43 2.43H26.48a1.22 1.22 0 010-2.43zm0 10.49h26.29l-1.38 1.38v.05c0 .05-.08.08-.11.13l-.44.87H26.48a1.22 1.22 0 010-2.43zm16.73 12.92H26.48a1.22 1.22 0 010-2.43h16.73a1.22 1.22 0 110 2.43zM48 65.33l1.54-3 .74.75.75.75zm4.34-2.2L50.2 61l1.87-3.7 4 4zm4.87-2.67l-4.34-4.34 28.45-28.45L85.66 32z" fill="url(#a)"/><path d="M80.39 32L56.28 56.07a.68.68 0 000 1 .67.67 0 00.49.21.68.68 0 00.49-.21l24.11-24.13a.69.69 0 000-1 .68.68 0 00-.98.06z" fill="url(#b)"/></svg>