<?xml version="1.0" encoding="utf-8"?>
<!-- Generator: Adobe Illustrator 25.2.1, SVG Export Plug-In . SVG Version: 6.00 Build 0)  -->
<svg version="1.1" id="Layer_1" xmlns="http://www.w3.org/2000/svg" xmlns:xlink="http://www.w3.org/1999/xlink" x="0px" y="0px"
   viewBox="168.64 2.4 166.3 63.36" style="enable-background:new 0 0 337.27 68.15;" xml:space="preserve">
  <defs>
    <style type="text/css">
  .st0{fill:#EB1A78;}
  .st1{fill:#0FA4D0;}
  .st2{opacity:0.19;fill:#FFFFFF;}
  .st3{fill:#FFFFFF;}
</style>
  </defs>
  <path class="st0" d="M303.26,2.4H168.64v63.36h134.62c17.5,0,31.68-14.18,31.68-31.68l0,0C334.94,16.58,320.76,2.4,303.26,2.4z"></path>
  <path class="st2" d="M303.26,2.4H168.64v46.81h129.37c16.81,0,30.44-13.63,30.44-30.44c0-1.45-0.11-2.87-0.3-4.27
      C322.35,7.13,313.36,2.4,303.26,2.4z"></path>
  <path class="st3" d="M201,40.54v-15.7h6.3c1.63,0,2.87,0.38,3.73,1.13c0.86,0.75,1.29,1.72,1.29,2.9c0,0.99-0.27,1.78-0.8,2.37
      c-0.53,0.59-1.18,0.99-1.94,1.2c0.9,0.18,1.64,0.62,2.22,1.33c0.58,0.71,0.88,1.54,0.88,2.48c0,1.24-0.45,2.27-1.35,3.07
      c-0.9,0.81-2.17,1.21-3.81,1.21H201z M203.87,31.43h3c0.81,0,1.43-0.19,1.86-0.56c0.43-0.37,0.65-0.9,0.65-1.59
      c0-0.66-0.21-1.18-0.64-1.56c-0.43-0.38-1.07-0.57-1.92-0.57h-2.96V31.43z M203.87,38.2h3.21c0.85,0,1.51-0.2,1.99-0.59
      c0.47-0.4,0.71-0.95,0.71-1.67c0-0.73-0.25-1.31-0.74-1.73c-0.49-0.42-1.16-0.63-2-0.63h-3.16V38.2z"></path>
  <path class="st3" d="M223,40.81c-1.15,0-2.19-0.23-3.12-0.68c-0.93-0.46-1.66-1.15-2.21-2.07c-0.55-0.93-0.82-2.1-0.82-3.52v-9.69
      h2.87v9.71c0,1.23,0.29,2.14,0.89,2.74c0.59,0.6,1.41,0.9,2.46,0.9c1.03,0,1.85-0.3,2.44-0.9c0.6-0.6,0.9-1.51,0.9-2.74v-9.71
      h2.87v9.69c0,1.42-0.28,2.59-0.85,3.52c-0.57,0.93-1.33,1.62-2.28,2.07C225.2,40.58,224.15,40.81,223,40.81z"></path>
  <path class="st3" d="M238.07,40.54v-5.58l-5.27-10.12h3.25l3.48,7.24l3.45-7.24h3.21l-5.25,10.12v5.58H238.07z"></path>
  <path class="st3" d="M256.96,40.54v-15.7h10.14v2.31h-7.27v4.4h5.88v2.27h-5.88v6.73H256.96z"></path>
  <path class="st3" d="M271.11,40.54v-15.7h5.76c1.26,0,2.29,0.21,3.11,0.64c0.82,0.43,1.42,1,1.83,1.73
      c0.4,0.73,0.61,1.53,0.61,2.41c0,0.96-0.25,1.83-0.75,2.62c-0.5,0.79-1.28,1.37-2.34,1.73l3.25,6.57h-3.3l-2.92-6.19h-2.38v6.19
      H271.11z M273.98,32.24h2.71c0.96,0,1.66-0.23,2.11-0.7c0.45-0.46,0.67-1.08,0.67-1.84c0-0.75-0.22-1.35-0.66-1.79
      c-0.44-0.45-1.16-0.67-2.14-0.67h-2.69V32.24z"></path>
  <path class="st3" d="M290.4,40.54v-5.58l-5.27-10.12h3.25l3.48,7.24l3.45-7.24h3.21l-5.25,10.12v5.58H290.4z"></path>
</svg>