<svg id="Layer_1" data-name="Layer 1" xmlns="http://www.w3.org/2000/svg" viewBox="0 0 144.67 46.33"><defs><style>.cls-1,.cls-2{fill:#f4c119;}.cls-2{opacity:0.42;isolation:isolate;}.cls-3{fill:#11a4d0;}</style></defs><title>Open App icon</title><polygon class="cls-1" points="23.47 22.66 23.47 22.66 23.47 22.67 23.48 22.66 12.17 11.37 23.47 22.66 23.47 22.66"/><polygon class="cls-1" points="22.84 22.66 22.83 22.67 22.83 22.67 22.84 22.66 22.84 22.66"/><polygon class="cls-1" points="11.3 19.47 9.09 21.93 3.92 21.93 11.3 13.69 11.3 11.37 0 22.66 0.01 22.67 11.3 26.35 11.3 19.47"/><polygon class="cls-1" points="11.3 34.86 11.3 34.86 11.3 34.86 11.3 34.86 11.3 27.25 0.01 23.57 11.3 34.86 11.3 34.86"/><polygon class="cls-1" points="23.46 23.57 12.17 27.25 12.17 34.86 23.46 23.57"/><polygon class="cls-1" points="12.17 11.37 23.47 22.66 23.47 22.66 12.17 11.37 12.17 11.37 12.17 11.37"/><polygon class="cls-2" points="12.17 11.37 23.47 22.66 23.47 22.66 12.17 11.37 12.17 11.37 12.17 11.37"/><polygon class="cls-1" points="12.17 11.37 12.17 11.37 12.17 13.69 19.79 21.93 14.63 21.93 12.17 19.47 12.17 26.35 23.46 22.67 23.47 22.66 12.17 11.37"/><polygon class="cls-3" points="38.12 33.65 38.12 33.65 38.11 33.64 38.12 33.65"/><path class="cls-3" d="M48.49,43.93l-.09,0-.18-.09Z"/><path class="cls-3" d="M105,20.79c-.12-.95-.25-1.9-.46-2.83a22.54,22.54,0,0,0-1.66-4.8.05.05,0,0,1,0,0l-1.38-2.45c-.21-.33-.44-.66-.67-1a22.43,22.43,0,0,0-2.28-2.76c-.67-.67-1.41-1.26-2.13-1.88-.25-.22-.51-.42-.78-.62L93.13,2.87c-.16-.09-.32-.18-.49-.26A22.93,22.93,0,0,0,87.9.77,21,21,0,0,0,83.6.05a21.56,21.56,0,0,0-5.38.27c-.06,0-.14,0-.16.08s0,.13.07.17c.71.69,1.47,1.34,2.15,2.07a30.48,30.48,0,0,1,2.18,2.5,31.54,31.54,0,0,1,2.17,3.32A29.83,29.83,0,0,1,87,13.54,28.44,28.44,0,0,1,88.09,18a23.79,23.79,0,0,1,.4,3.47c0,.5.07,1,.13,1.5a.22.22,0,0,0,.15.17,2.68,2.68,0,0,0,.49,0h5.08a1.55,1.55,0,0,1,.21,0,1.06,1.06,0,0,1-.12.2L90.87,27h0l-4.22,4.21-1.13,1.14c-.28.27-.35.27-.63,0-.53-.55-1-1.12-1.57-1.67q-2.52-2.55-5.06-5.08c-.73-.72-1.45-1.45-2.17-2.17a1.83,1.83,0,0,1-.13-.16,1.14,1.14,0,0,1,.25-.06h4.11c.53,0,1.05,0,1.58-.06,0-.25,0-.49,0-.74h0c0-.29,0-.57,0-.86a1.22,1.22,0,0,0,0-.27c-.13-.79-.29-1.57-.38-2.36A15.51,15.51,0,0,0,81,16.56,21.8,21.8,0,0,0,79.06,12a20.66,20.66,0,0,0-2.83-4,22.44,22.44,0,0,0-5.6-4.67,24.57,24.57,0,0,0-3.87-1.86,27.53,27.53,0,0,0-3.66-1A16.78,16.78,0,0,0,60.39.06a23.52,23.52,0,0,0-4,.08c-.92.12-1.84.25-2.76.45a22.73,22.73,0,0,0-4.8,1.66l-.32.16L45.94,3.88h0c-.56.37-1.11.78-1.65,1.2a23.75,23.75,0,0,0-3.37,3.28q-.35.42-.66.87c-.26.36-.51.72-.76,1.09l-1.42,2.43a21.52,21.52,0,0,0-.89,2A23.22,23.22,0,0,0,36,18.9a18.34,18.34,0,0,0-.34,2.64,1.09,1.09,0,0,0,0,.24v2.77s.1,1.49.25,2.23a30.52,30.52,0,0,0,.67,3,22.77,22.77,0,0,0,1.53,3.89l1.42,2.42a26.12,26.12,0,0,0,2.55,3.2,22.9,22.9,0,0,0,2.27,2c.51.42,1.58,1.16,1.58,1.16l2.46,1.43a24.28,24.28,0,0,0,4.44,1.68,19.59,19.59,0,0,0,4.23.71A21.58,21.58,0,0,0,62.51,46a.25.25,0,0,0,.16-.09s0-.12-.08-.16-.2-.13-.28-.21A34.17,34.17,0,0,1,57.38,40a31,31,0,0,1-3.69-7.36,25.41,25.41,0,0,1-1-4.21,22.65,22.65,0,0,1-.41-3.47c0-.53-.07-1.05-.13-1.58,0-.06-.1-.15-.16-.16a4,4,0,0,0-.49,0h-5a2.09,2.09,0,0,1-.34,0c.07-.08.11-.17.19-.25l8.76-8.77.15-.15a.29.29,0,0,1,.48,0l.15.15L64.76,23s.09.1.14.15a1.31,1.31,0,0,1-.27.06H61.92c-.93,0-1.86,0-2.79,0-.33,0-.33,0-.34.35A20,20,0,0,0,59,26.6a22.43,22.43,0,0,0,.72,3.25,22.76,22.76,0,0,0,2,4.69,25.48,25.48,0,0,0,3.76,5c.32.33.71.59,1,.92a14.19,14.19,0,0,0,2.37,1.88,24.11,24.11,0,0,0,4.47,2.35,23,23,0,0,0,6.8,1.57,22,22,0,0,0,5.31-.21,23.7,23.7,0,0,0,2.92-.64,44.88,44.88,0,0,0,4.72-1.95l2.45-1.57a24.41,24.41,0,0,0,2.71-2.28,27.13,27.13,0,0,0,1.87-2.13,22.55,22.55,0,0,0,1.36-1.89h0l1.35-2.46a23.87,23.87,0,0,0,1.47-4,19.69,19.69,0,0,0,.71-4.23c0-.11,0-.33,0-.33V21.78S105,21.12,105,20.79Z"/><path class="cls-1" d="M144.67,31.31H123V20.11h21.68Zm-6.42-5.6a4.42,4.42,0,1,0-4.42,4.42A4.41,4.41,0,0,0,138.25,25.71Z"/><path class="cls-1" d="M123,19.45h4.09a4.42,4.42,0,0,1,8.83,0h6.8l-2.2-8.21-20.93,5.61,2.75,10.25v-7A.65.65,0,0,1,123,19.45Z"/><path class="cls-3" d="M16.71,10.15a13.31,13.31,0,0,0-3.53.49L16.5,14h.21a9.5,9.5,0,0,1,0,19,7.92,7.92,0,0,1-.85-.05L13,35.72a1.2,1.2,0,0,1-.6.31,13.15,13.15,0,0,0,4.27.72,13.31,13.31,0,0,0,13.15-11.4h11.2v-3.8H29.86A13.3,13.3,0,0,0,16.71,10.15Z"/><path class="cls-3" d="M124,33a9.5,9.5,0,1,1,0-19,10.31,10.31,0,0,1,1.58.14l6-1.59a13.27,13.27,0,0,0-20.68,9.05H99.65v3.8h11.2a13.26,13.26,0,0,0,22.93,7.07h-6.7A9.27,9.27,0,0,1,124,33Z"/></svg>