<svg id="Layer_1" data-name="Layer 1" xmlns="http://www.w3.org/2000/svg" viewBox="0 0 100 100"><defs><radialGradient id="radial-gradient" cx="50" cy="50" r="42.91" gradientUnits="userSpaceOnUse"><stop offset="0" stop-color="#ec1978"/><stop offset="1" stop-color="#7c143f"/></radialGradient><style>.cls-2{fill:#fff}</style></defs><path d="M81.62 13H18.38A16.47 16.47 0 001.93 29.41V53.5A16.47 16.47 0 0018.38 70h43.14l14.07 15a6.39 6.39 0 007 1.58 6.34 6.34 0 004-5.93V69.17A16.6 16.6 0 0098.07 53.5V29.41A16.47 16.47 0 0081.62 13z" fill="url(#radial-gradient)"/><path class="cls-2" d="M81.62 15.84H18.38A13.58 13.58 0 004.82 29.41V53.5a13.58 13.58 0 0013.56 13.57h44.39l14.93 16a3.48 3.48 0 002.55 1.11 3.39 3.39 0 001.28-.25 3.47 3.47 0 002.2-3.24V66.9a13.59 13.59 0 0011.45-13.4V29.41a13.58 13.58 0 00-13.56-13.57zM91.7 53.5a10.08 10.08 0 01-10.08 10.08h-1.37v17.09l-16-17.09H18.38A10.08 10.08 0 018.3 53.5V29.41a10.08 10.08 0 0110.08-10.08h63.24A10.08 10.08 0 0191.7 29.41z"/><path class="cls-2" d="M19.23 33.16h9.75v-3.09h-13.6v21.06h3.85V42.1h7.88v-3.04h-7.88v-5.9zM36 30.06l-7.7 21.07h4l1.71-4.88h8.22L44 51.13h4.1l-7.75-21.07zm-.9 13.19l3-8.76 3.06 8.76zM68.79 46A11.94 11.94 0 0070 40.6a11.75 11.75 0 00-1.32-5.67 9.63 9.63 0 00-3.7-3.84 11.64 11.64 0 00-11 0 9.7 9.7 0 00-3.7 3.84 11.54 11.54 0 00-1.34 5.67 11.54 11.54 0 001.34 5.67 9.7 9.7 0 003.7 3.84 10.75 10.75 0 005.52 1.38 12.37 12.37 0 002.89-.33L65.63 55h4.79l-4.88-5.23A9.42 9.42 0 0068.79 46zm-9.36 2a6.17 6.17 0 01-4.81-2 7.74 7.74 0 01-1.81-5.44 7.78 7.78 0 011.81-5.45 6.82 6.82 0 019.61 0A7.87 7.87 0 0166 40.6a7.82 7.82 0 01-1.77 5.4 6.12 6.12 0 01-4.8 2zM82.59 30.46a8.78 8.78 0 00-7.28.06 5.72 5.72 0 00-2.37 2.22 6.18 6.18 0 00-.78 3.26h3.64a3 3 0 01.85-2.24 3.69 3.69 0 014.66 0 3 3 0 01.87 2.24 3.17 3.17 0 01-.75 2.29 3.81 3.81 0 01-2 1 12.68 12.68 0 01-2.79.28h-1.41l.12 5h3.4l.09-2.41a9.78 9.78 0 003.66-.69 5.53 5.53 0 002.5-2 6 6 0 00.92-3.47 6.25 6.25 0 00-.92-3.39 5.92 5.92 0 00-2.41-2.15zM77.07 46.8a2.36 2.36 0 00-1.73.66 2.15 2.15 0 00-.68 1.62 2.12 2.12 0 00.68 1.6 2.36 2.36 0 001.73.66 2.31 2.31 0 001.71-.66 2.18 2.18 0 00.67-1.6 2.21 2.21 0 00-.67-1.62 2.31 2.31 0 00-1.71-.66z"/></svg>