<?xml version="1.0" encoding="utf-8"?>
<!-- Generator: Adobe Illustrator 25.2.1, SVG Export Plug-In . SVG Version: 6.00 Build 0)  -->
<svg version="1.1" id="Layer_1" xmlns="http://www.w3.org/2000/svg" xmlns:xlink="http://www.w3.org/1999/xlink" x="0px" y="0px"
   viewBox="2.34 2.4 166.3 63.36" style="enable-background:new 0 0 337.27 68.15;" xml:space="preserve">
  <defs>
    <style type="text/css">
  .st0{fill:#EB1A78;}
  .st1{fill:#0FA4D0;}
  .st2{opacity:0.19;fill:#FFFFFF;}
  .st3{fill:#FFFFFF;}
</style>
  </defs>
  <path class="st1" d="M34.02,2.4c-17.5,0-31.68,14.18-31.68,31.68l0,0c0,17.5,14.18,31.68,31.68,31.68h134.62V2.4H34.02z"></path>
  <path class="st2" d="M39.26,49.21h129.37V2.4H34.02c-10.1,0-19.09,4.73-24.89,12.1c-0.2,1.4-0.3,2.82-0.3,4.27
      C8.82,35.58,22.45,49.21,39.26,49.21z"></path>
  <path class="st3" d="M32.18,40.54v-15.7h10.14v2.31h-7.27v4.4h5.88v2.27h-5.88v6.73H32.18z"></path>
  <path class="st3" d="M43.61,40.54l5.74-15.7h3.23l5.74,15.7h-3.05l-1.26-3.63H47.9l-1.28,3.63H43.61z M48.68,34.66h4.55
      l-2.29-6.53L48.68,34.66z"></path>
  <path class="st3" d="M62.14,40.54v-15.7h5.76c1.26,0,2.29,0.21,3.11,0.64c0.82,0.43,1.42,1,1.83,1.73
      c0.4,0.73,0.61,1.53,0.61,2.41c0,0.96-0.25,1.83-0.75,2.62c-0.5,0.79-1.28,1.37-2.34,1.73l3.25,6.57h-3.3l-2.92-6.19h-2.38v6.19
      H62.14z M65.01,32.24h2.71c0.96,0,1.66-0.23,2.11-0.7c0.45-0.46,0.67-1.08,0.67-1.84c0-0.75-0.22-1.35-0.66-1.79
      c-0.44-0.45-1.16-0.67-2.14-0.67h-2.69V32.24z"></path>
  <path class="st3" d="M77.91,40.54v-15.7h3.41l5,9.96l4.93-9.96h3.41v15.7h-2.87V29.7l-4.37,8.59h-2.27l-4.37-8.59v10.83H77.91z"></path>
  <path class="st3" d="M106.64,40.54v-15.7h10.14v2.31h-7.27v4.4h5.88v2.27h-5.88v6.73H106.64z"></path>
  <path class="st3" d="M120.79,40.54v-15.7h5.76c1.26,0,2.29,0.21,3.11,0.64c0.82,0.43,1.42,1,1.83,1.73
      c0.4,0.73,0.61,1.53,0.61,2.41c0,0.96-0.25,1.83-0.75,2.62c-0.5,0.79-1.28,1.37-2.34,1.73l3.25,6.57h-3.3l-2.92-6.19h-2.38v6.19
      H120.79z M123.66,32.24h2.71c0.96,0,1.66-0.23,2.11-0.7c0.45-0.46,0.67-1.08,0.67-1.84c0-0.75-0.22-1.35-0.66-1.79
      c-0.44-0.45-1.16-0.67-2.14-0.67h-2.69V32.24z"></path>
  <path class="st3" d="M140.08,40.54v-5.58l-5.27-10.12h3.25l3.48,7.24l3.45-7.24h3.21l-5.25,10.12v5.58H140.08z"></path>
</svg>