<svg id="Layer_1" data-name="Layer 1" xmlns="http://www.w3.org/2000/svg" viewBox="0 0 100 100"><defs><radialGradient id="radial-gradient" cx="50" cy="50" r="47.9" gradientUnits="userSpaceOnUse"><stop offset="0" stop-color="#ec1978"/><stop offset="1" stop-color="#7c143f"/></radialGradient><style>.cls-2{fill:#fff}</style></defs><path d="M97.24 66.07l1.33-4.65a3.27 3.27 0 00-.28-2.51 3.23 3.23 0 00-2-1.56l-.16-.05.27-3.19a3.23 3.23 0 00-.76-2.4 3.57 3.57 0 00-.53-.5 3.07 3.07 0 00.06-.53A46.9 46.9 0 0074.5 11a46.33 46.33 0 00-16.81-7A47 47 0 009.25 23.72a46.45 46.45 0 00-7.08 16.81A47 47 0 0021.94 89a46.93 46.93 0 0026.28 8 46.08 46.08 0 0017.23-3.29 4.5 4.5 0 004.22 3h21.72a4.48 4.48 0 004.44-3.91L98.75 70a4.51 4.51 0 00-1.08-3.53 4.26 4.26 0 00-.43-.4z" fill="url(#radial-gradient)"/><path class="cls-2" d="M73.34 47.44a2 2 0 01.35 0l1.18.09a3.24 3.24 0 01.62.12 27.56 27.56 0 00-4.8-13 1.86 1.86 0 00-1.52-.78h-.9a1.83 1.83 0 00-1.43.69l-4.17 5.21a30.93 30.93 0 011.74-18.06 1.86 1.86 0 00.14-.7 1.84 1.84 0 00-1.83-1.84h-.1a35.06 35.06 0 00-27.47 16L31 31.14a1.83 1.83 0 00-2.59 0 27.56 27.56 0 00.4 39 27.13 27.13 0 0017 7.78 12.12 12.12 0 001.59.1H48.32a27.57 27.57 0 0014.47-4.28L62.31 70a2.53 2.53 0 010-.38 24.43 24.43 0 01-3.59 2.2 13.66 13.66 0 002.22-7.28 21.17 21.17 0 00-15.7-22.25 1.88 1.88 0 00-.57-.09 1.83 1.83 0 00-1.4 3 11 11 0 011.62 11.49 2.7 2.7 0 01-2-2.23 2.27 2.27 0 00-.21-.62 1.85 1.85 0 00-2.5-.73 12.13 12.13 0 00-6.29 11.34 13.27 13.27 0 001.51 6.2 23.93 23.93 0 01-5.63-35.55l4.48 4.37a1.81 1.81 0 001.29.53h.27a1.83 1.83 0 001.34-1A31.43 31.43 0 0160 23.17a34.71 34.71 0 00.1 21.22 1.85 1.85 0 001.42 1.24h.33a1.83 1.83 0 001.41-.63l5.36-6.69c.29.5.57 1 .83 1.53a24 24 0 012.36 8 3 3 0 011.53-.4zm-33.1 10.19a6.46 6.46 0 005.34 2.89h.51a1.87 1.87 0 001.45-.92 14.79 14.79 0 001.26-11.69 17 17 0 018.45 16.57 10 10 0 01-9.57 9.85c-.57 0-1.07 0-1.51-.07a9.9 9.9 0 01-8.62-9.87 8.56 8.56 0 012.69-6.76z"/><path class="cls-2" d="M64.64 87a39.62 39.62 0 01-8.26 2.66 40.77 40.77 0 01-16.32 0 39.81 39.81 0 01-7.6-2.36 40.5 40.5 0 017.6-77A40.53 40.53 0 0164 12.69a40.4 40.4 0 0124.69 36.52A3 3 0 0189 51l.66.06a3.4 3.4 0 01.46.08l.28-.16a3 3 0 011.47-.4h.4a44.82 44.82 0 00-.88-9.52 44 44 0 00-18.52-27.62A43.84 43.84 0 0057.11 6.8a44.72 44.72 0 00-17.78 0 45.26 45.26 0 00-8.27 2.57A44.2 44.2 0 005 41.11a44.67 44.67 0 000 17.77 43.63 43.63 0 002.57 8.28 44.25 44.25 0 0016 19.4 43.57 43.57 0 0015.76 6.63 44.25 44.25 0 008.89.9 45.05 45.05 0 008.89-.89 44.59 44.59 0 008-2.48l-.27-1.91z"/><path class="cls-2" d="M69.72 53l-1.25.13a.38.38 0 00-.34.41l.35 3.38.13.09a1 1 0 01.38.71l.38 3.66.14 1.37v-7.34a1.07 1.07 0 01.74-1l-.11-1.12a.38.38 0 00-.42-.29zM91.94 53.35a.38.38 0 00-.41.34l-.27 3.2h.61a1.06 1.06 0 01.72.37 1 1 0 01.24.77l-.37 4.35.5-1.74.58-6.83a.33.33 0 00-.09-.27.4.4 0 00-.26-.14l-1-.08zM85.46 57.3l.87-6.58a.36.36 0 00-.08-.28.41.41 0 00-.25-.15l-1.24-.16h-.06a.35.35 0 00-.22.08.37.37 0 00-.15.25l-1.5 11.31.89-.09a1.06 1.06 0 011.07.64l.12-.91-.3-3a1 1 0 01.85-1.11zM77.35 60.33a1 1 0 01.4-.69l.53-6.17a.39.39 0 00-.09-.28.38.38 0 00-.26-.13l-1.25-.11a.38.38 0 00-.41.35l-.69 8.13a1.14 1.14 0 01.67.32 1.07 1.07 0 01.28.76l-.14 5.06zM88.53 53.74h-.32a.37.37 0 00-.41.34l-.28 3.3a1.06 1.06 0 01.4.61v.13l.49 4.79.34 3.26.55-6.49.15-1.86a1.55 1.55 0 010-.21l.29-3.36a.39.39 0 00-.35-.41zM82.64 73.69l-.13.96-.02.13.26.03-.04-.44-.07-.68z"/><path class="cls-2" d="M94.31 67.88h-.61l2.08-7.27a.37.37 0 000-.29.33.33 0 00-.22-.18l-1.21-.34h-.11a.41.41 0 00-.18 0 .38.38 0 00-.18.23l-.22.75-.48 1.69-.48 1.68-.49 1.74-.48 1.68-.08.28h-.7l.59-2.08.62-7.77a.37.37 0 00-.09-.28.38.38 0 00-.25-.13h-1.26a.35.35 0 00-.24.08l-.1.15v.11l-.64 7.64-.28 2.33a1.46 1.46 0 00-1 .5v-.08l-.4-3.9-.43-4.42-.1-.88-.09-.93a.42.42 0 00-.14-.26.41.41 0 00-.24-.08h-.09l-.76.07H85.61a.37.37 0 00-.26.15.38.38 0 00-.08.27v.16l.17 1.5.15 1.44.34 3.32.16 1.55.19 1.8v.21l.16 1.58.18 1.76.11 1a7.7 7.7 0 01-1.36 1.54v-.39L85 70.7l-.3-2.86v-.28l-.12-1.16-.14-1.4-.24-2.29a.37.37 0 00-.37-.34l-1.05.11h-.21l-.14.05-.11.09a.4.4 0 00-.08.28l.06.61.11 1.09H82.82a1 1 0 01.69.41 1 1 0 01.21.77L83 70.66v.17l.27 2.69.12 1.22V75.33a7.37 7.37 0 01-1.82.54v-.15l.06-.4v-.67l.36-2.64.16-1.23.19-1.44.38-1.34.28-2.27a.36.36 0 00-.32-.42H81.44a.4.4 0 00-.23.08.35.35 0 00-.14.25l-1.33 10-.07.5H79.01l1.39-10.49a1 1 0 01.17-.44l1.23-9.29a.38.38 0 00-.32-.43l-1.25-.16a.38.38 0 00-.43.32l-.54 4.14.56.07a1 1 0 01.7.41 1.06 1.06 0 01.21.77l-2 15-.73-.42 2-14.94a.4.4 0 00-.07-.28.38.38 0 00-.26-.14l-.56-.08h-.73a.36.36 0 00-.23.08.34.34 0 00-.13.2v.05l-.9 6.78-.91 6.9v.61a6.94 6.94 0 01-.67-.51v-.15l.33-11.57a.34.34 0 00-.1-.27.37.37 0 00-.24-.12h-1.3a.33.33 0 00-.22.08.36.36 0 00-.16.29L73.78 65l-.18 6.07v.72a7.42 7.42 0 01-.61-2l.21-7.27a1.06 1.06 0 01.33-.74 1 1 0 01.56-.27l.21-2.4.7-8.31a.37.37 0 00-.09-.28.41.41 0 00-.26-.13l-1.25-.11a.39.39 0 00-.41.35l-.36 4.26a1 1 0 01.22.64v13.41a1.54 1.54 0 00-.67-.85V55.41a.37.37 0 00-.25-.35H70.52a.41.41 0 00-.38.38v12.44h-.81l-.57-5.5-.48-4.65a.34.34 0 00-.11-.23.36.36 0 00-.24-.09h-.09l-1.2.13a.37.37 0 00-.34.41L67 65l.3 2.87h-.75a1.58 1.58 0 00-1.18.54 1.56 1.56 0 00-.37 1.25l.31 2.28 1.9 13.81.26 1.85.27 1.94.34 2.53v.37a1.58 1.58 0 001.56 1.35h21.75A1.57 1.57 0 0093 92.42l2.92-22.77a1.57 1.57 0 00-1.56-1.77zm-2.47 24.4a.45.45 0 01-.45.39H69.7a.45.45 0 01-.45-.38l-.1-.74L68.8 89l-.27-2-.26-1.87-1.93-14.04-.22-1.58a.38.38 0 01.11-.35.41.41 0 01.33-.16h4.84a.4.4 0 01.34.21l.05.16a8.42 8.42 0 00.37 1.74 8.24 8.24 0 00.67 1.55v.08a7.85 7.85 0 00.64 1l.16.21.15.17.31.35.31.3a7.94 7.94 0 00.89.74 9.1 9.1 0 00.8.51l.19.11.28.15.28.12h.05a8.18 8.18 0 00.87.32l.59.16h.06l.28.06c.22 0 .44.07.66.1h.11a8.08 8.08 0 00.85 0h.16c.31 0 .62 0 .92-.07a8.7 8.7 0 001.86-.44l.24-.08a8.79 8.79 0 001.69-.89 10.61 10.61 0 00.85-.65l.15-.14a6 6 0 00.61-.62 8.26 8.26 0 001.35-2 8.71 8.71 0 00.82-2.84.38.38 0 01.12-.26.42.42 0 01.24-.09h4.85l.45.51z"/></svg>