<svg id="Layer_1" data-name="Layer 1" xmlns="http://www.w3.org/2000/svg" viewBox="0 0 100 100"><defs><radialGradient id="radial-gradient" cx="50" cy="50" r="41.38" gradientUnits="userSpaceOnUse"><stop offset="0" stop-color="#ec1978"/><stop offset="1" stop-color="#7c143f"/></radialGradient><style>.cls-2{fill:#fff}</style></defs><path d="M82.17 33a11.57 11.57 0 000-2.43 2.93 2.93 0 00-.42-1.19 3 3 0 00.25-1.85c0-.24-.07-.46-.11-.69a16.76 16.76 0 00-.51-2.47 3.19 3.19 0 00-.72-1.22 3.1 3.1 0 00-.1-1.62 22.67 22.67 0 00-1.28-3 3 3 0 00-1.05-1.16 3 3 0 00-.45-1.54 22.35 22.35 0 00-1.91-2.66 3 3 0 00-1.31-.89 3.14 3.14 0 00-.8-1.5 21.61 21.61 0 00-2.34-2.11 3.14 3.14 0 00-1.38-.6 3.22 3.22 0 00-1.12-1.28 24.35 24.35 0 00-2.72-1.6 3.11 3.11 0 00-1.35-.32h-.05a3.09 3.09 0 00-1.4-1.07l-2.64-1a3.06 3.06 0 00-1.07-.19 3 3 0 00-.67.08 3.14 3.14 0 00-1.53-.77l-2.75-.48a3.29 3.29 0 00-.54-.05 3.11 3.11 0 00-1.72.53 4.67 4.67 0 00-2.6-.77h-.12a39 39 0 00-4.76.37 33.13 33.13 0 00-8.66 2.38A30.67 30.67 0 0021.48 17a28.31 28.31 0 00-3.58 11.33 29.31 29.31 0 000 5.06 43.56 43.56 0 00.82 5.9 59.83 59.83 0 003.07 10.1A56.6 56.6 0 0026.54 59c.75 1.16 1.54 2.29 2.3 3.38q.57.82 1.16 1.62a33.39 33.39 0 012.75 4.58c.09.2.27.71.47 1.37a6.32 6.32 0 00-1.11 3.58 6.24 6.24 0 001.65 4.22 6.28 6.28 0 004.64 10.52h.24a11.55 11.55 0 0023 0h.24a6.28 6.28 0 004.65-10.52 6.24 6.24 0 001.65-4.22 6.32 6.32 0 00-1.39-3.94l1.08-2.26a2.87 2.87 0 00.27-1 3.06 3.06 0 00.87-.85l1.49-2.19a3.15 3.15 0 00.5-1.19 3.13 3.13 0 001.1-1l1.52-2.29a3 3 0 00.5-1.56 3.12 3.12 0 001.09-1.19l1.23-2.45a3.13 3.13 0 00.32-1.53 3.07 3.07 0 00.93-1.23l1-2.55a3.07 3.07 0 000-2.25 6.94 6.94 0 003.54-5.72A7 7 0 0081.05 36a3.1 3.1 0 001.07-2.24c.01-.25.03-.51.05-.76z" fill="url(#radial-gradient)"/><path class="cls-2" d="M61.54 67.36l2.43 1c.37-.79.73-1.52 1.09-2.28l-2.29-1.27a18.73 18.73 0 00-1.23 2.55zM64.2 62.37l2.23 1.43 1.48-2.19-2.17-1.51zM67.29 9.39A24.56 24.56 0 0064.86 8c-.41.81-.87 1.53-1.22 2.31l2.18 1.32zM70.06 53.45l2.34 1.23 1.24-2.45-2.39-1.15c-.41.83-.79 1.58-1.19 2.37zM62.32 6.7l-2.63-1c-.28.9-.59 1.69-.78 2.54l2.39.88c.35-.8.7-1.59 1.02-2.42zM73 18.85l2.21-1.4a18.86 18.86 0 00-1.65-2.3l-2.05 1.61zM72.34 48.68l2.43 1 1-2.55-2.48-.93zM75.19 23.43l2.45-.89a18.71 18.71 0 00-1.1-2.61l-2.35 1.14zM76.34 28.35a26.28 26.28 0 002.62-.3 20.71 20.71 0 00-.53-2.76l-2.53.58c.15.85.29 1.65.44 2.48zM57 5l-2.8-.49c-.12.88-.27 1.73-.33 2.63l2.52.43zM67.3 57.9l2.18 1.5L71 57.11l-2.23-1.41c-.51.75-.98 1.46-1.47 2.2zM69.72 14.81l1.83-1.89a18.76 18.76 0 00-2-1.81l-1.67 2 1 .87c.28.29.57.57.84.83zM76.49 31c0 .89-.13 1.71 0 2.54.87.09 1.71.19 2.59.2A19.55 19.55 0 0079.1 31z"/><path class="cls-2" d="M76.35 36.16a3.84 3.84 0 00-2.57.07 4.06 4.06 0 00-2.37 2.38h-8.09a44.17 44.17 0 010-5.28h5.32a1.24 1.24 0 001-.61 1.46 1.46 0 00.19-.82V26.53a4 4 0 002.57-4.62 4 4 0 10-7.55 2.35 4 4 0 002.32 2.24v4.16h-3.89v-.47-2a1.33 1.33 0 00-1.47-1.43h-2.53v-6.87a4 4 0 002.53-4.7 4 4 0 10-5.22 4.69v6.81h-5.25V6.22v-.46a1.38 1.38 0 00-1.5-1.5 41.05 41.05 0 00-4.43.32 30.42 30.42 0 00-7.84 2.16 27.53 27.53 0 00-13.4 11.79A25.22 25.22 0 0021 28.64a27.52 27.52 0 00-.05 4.54 44.05 44.05 0 00.77 5.48 57.21 57.21 0 002.91 9.58 53.93 53.93 0 004.54 9.09c1.08 1.69 2.26 3.31 3.39 5a36.32 36.32 0 013 5 27 27 0 011.14 3.56 3.19 3.19 0 001.71 5.89h23.45a3.2 3.2 0 100-6.39H51.39c-.09-1.49-.07-24.73 0-25.09a9.23 9.23 0 012.57.06V49.08a2 2 0 00.07.6 1.32 1.32 0 001.33.89h3.85v1.53l-.47.22a4 4 0 105.8 3.42 3.78 3.78 0 00-2.28-3.47.56.56 0 01-.38-.61v-2.33a2 2 0 00-.17-.77 1.24 1.24 0 00-1.21-.66h-3.85v-2.66h5.18a1.28 1.28 0 001.31-.83 2 2 0 00.11-.69v-2a3 3 0 010-.41h8.13a4 4 0 104.93-5.13zm-7.78-14.68a1.29 1.29 0 011.25 1.26A1.25 1.25 0 0168.53 24a1.23 1.23 0 01-1.27-1.27 1.25 1.25 0 011.31-1.25zm-20 48.81c-.42.1-8.78.11-9.26 0 0-.2-.08-.41-.13-.62A18.75 18.75 0 0037 64.33a57.69 57.69 0 00-3.63-5.52 52.85 52.85 0 01-7-13.66 53.11 53.11 0 01-2.1-7.55 39.26 39.26 0 01-.57-4 27.16 27.16 0 01-.05-4.23 21.89 21.89 0 011.29-6 23.21 23.21 0 016-9.1 26 26 0 0110-5.88 25.78 25.78 0 015-1.13c.73-.08 1.47-.14 2.2-.21h.42v9.05a4.55 4.55 0 01-.63.09 1.49 1.49 0 00-1.61 1.34c-.07.43-.19.85-.26 1.28a.53.53 0 01-.47.5 1.63 1.63 0 00-.3.07.35.35 0 01-.44-.12c-.34-.39-.69-.79-1.05-1.17a1.37 1.37 0 00-1.8-.35A20.36 20.36 0 0038.19 20a1.43 1.43 0 00-.58 1.85c.14.44.28.89.44 1.33a.38.38 0 01-.12.49 2.18 2.18 0 00-.21.22.51.51 0 01-.67.14c-.45-.17-.93-.3-1.39-.45a1.29 1.29 0 00-1.53.45 18.53 18.53 0 00-2.47 4.21 1.3 1.3 0 00.34 1.52c.45.43.92.84 1.41 1.27-.07.28-.14.57-.23.92l-1.34.29c-.21 0-.43.07-.64.12a1.37 1.37 0 00-1.14 1.19 3.39 3.39 0 000 .55v4.04a1.41 1.41 0 001.26 1.47c.32 0 .63.11.94.18l.94.21c.09.3.17.59.26.91l-1.34 1.21a1.34 1.34 0 00-.4 1.76A19.07 19.07 0 0034 47.79a1.44 1.44 0 001.86.57l1.56-.51c.76.6.76.6.47 1.46l-.3.91a1.34 1.34 0 00.56 1.72c.87.6 1.78 1.15 2.69 1.69a10.67 10.67 0 001.27.62 1.37 1.37 0 001.76-.4L45 52.57h.24c.62 0 .89.4.94 1a7.64 7.64 0 00.21 1.08 1.4 1.4 0 001.29 1.11l.91.11zm0-25.18a8.53 8.53 0 01-4.1-1.66 9 9 0 01-3.66-5.89 9.21 9.21 0 017.76-10.71zm12 9.48a1.21 1.21 0 011.26 1.22 1.29 1.29 0 01-1.25 1.3 1.26 1.26 0 01-1.26-1.29 1.2 1.2 0 011.27-1.23zm-2.64-39.75a1.28 1.28 0 110 2.56 1.28 1.28 0 010-2.56zm2.59 27.7h-9.08v-.4-12.56l.06-.11h9.08zm14.62-1.31A1.26 1.26 0 0173.9 40a1.24 1.24 0 011.25-1.3 1.28 1.28 0 011.27 1.24 1.27 1.27 0 01-1.28 1.29zM61.86 78.82H38.38a3.2 3.2 0 000 6.4h23.48a3.2 3.2 0 000-6.4zM50.12 95.74a8.46 8.46 0 008.46-8.46H41.67a8.45 8.45 0 008.45 8.46z"/></svg>