<svg data-name="Layer 1" xmlns="http://www.w3.org/2000/svg" xmlns:xlink="http://www.w3.org/1999/xlink" viewBox="0 0 100 100"><defs><linearGradient id="a" x1="30.97" y1="57.94" x2="69.03" y2="19.88" gradientUnits="userSpaceOnUse"><stop offset="0" stop-color="#233267"/><stop offset=".64" stop-color="#234080"/><stop offset="1" stop-color="#006b98"/></linearGradient><linearGradient id="b" x1="36.75" y1="35.81" x2="63.25" y2="35.81" xlink:href="#a"/><linearGradient id="c" x1="24.62" y1="84.58" x2="75.38" y2="84.58" xlink:href="#a"/></defs><circle cx="50" cy="50" r="49.5" fill="#fff"/><path d="M67.1 55.14a33.53 33.53 0 007-15.39 27.55 27.55 0 00.35-4.32 24.45 24.45 0 00-48.9 0 30 30 0 001.52 8.92 33.58 33.58 0 005.63 10.38L50 77zM33 34.88a17 17 0 1128 12.89 16.73 16.73 0 01-4.7 2.86 17.18 17.18 0 01-3.42 1 17.52 17.52 0 01-2.92.27c-.49 0-1 0-1.45-.08a16.59 16.59 0 01-4.13-.88 17 17 0 01-11.4-16z" fill="url(#a)"/><path d="M45.65 40.73a4.78 4.78 0 00-1.49 3.75A5.51 5.51 0 0048.94 50h.84a5.54 5.54 0 005.32-5.47 9.47 9.47 0 00-4.69-9.19 8.26 8.26 0 01-.7 6.47 1 1 0 01-.81.51h-.28a3.6 3.6 0 01-2.97-1.59zm2.45-8.54a1.12 1.12 0 01.31.05 11.75 11.75 0 018.71 12.35 7.52 7.52 0 01-1.23 4 13.26 13.26 0 006-17.78c-.14-.29-.3-.57-.46-.85l-3 3.71a1 1 0 01-.79.38h-.19a1 1 0 01-.78-.68 19.26 19.26 0 01-.06-11.78 17.49 17.49 0 00-12.67 8.81 1 1 0 01-.74.52h-.15a1 1 0 01-.72-.29l-2.48-2.43a13.27 13.27 0 001.64 18.69A12.83 12.83 0 0043 48a7.47 7.47 0 01-.84-3.44 6.76 6.76 0 013.5-6.29 1 1 0 011.38.41 1 1 0 01.12.34 1.52 1.52 0 001.09 1.24 6.1 6.1 0 00-.9-6.38 1 1 0 01.12-1.43 1 1 0 01.66-.24z" fill="url(#b)"/><path d="M69.75 84.59a2.82 2.82 0 012.81-2.83 2.82 2.82 0 012.82 2.83 2.82 2.82 0 01-2.82 2.82 2.82 2.82 0 01-2.81-2.82zm-11.28 0a2.82 2.82 0 012.83-2.83 2.81 2.81 0 012.8 2.83 2.81 2.81 0 01-2.8 2.82 2.82 2.82 0 01-2.83-2.82zm-11.29 0A2.83 2.83 0 0150 81.76a2.82 2.82 0 012.81 2.83A2.82 2.82 0 0150 87.41a2.83 2.83 0 01-2.82-2.82zm-11.28 0a2.82 2.82 0 012.83-2.83 2.83 2.83 0 012.82 2.83 2.83 2.83 0 01-2.82 2.82 2.82 2.82 0 01-2.83-2.82zm-11.28 0a2.83 2.83 0 012.82-2.83 2.83 2.83 0 012.83 2.83 2.83 2.83 0 01-2.83 2.82 2.83 2.83 0 01-2.82-2.82z" fill="url(#c)"/></svg>