<svg id="Layer_1" data-name="Layer 1" xmlns="http://www.w3.org/2000/svg" viewBox="0 0 100 100"><defs><radialGradient id="radial-gradient" cx="50" cy="50" r="46.96" gradientUnits="userSpaceOnUse"><stop offset="0" stop-color="#ec1978"/><stop offset="1" stop-color="#7c143f"/></radialGradient><style>.cls-2{fill:#fff}</style></defs><path d="M79.63 11.31c-7.88-6.29-16.76-10-23.76-10a16.86 16.86 0 00-2 .11 10.72 10.72 0 00-7.52 3.75c-2.08 2.61-2.63 6.25-1.58 10.51a1.5 1.5 0 01-.24 1.29l-7 9.22a4.15 4.15 0 00-2.58-.92 4.21 4.21 0 00-1.95.49c-2.66 1.39-5.56 2.62-8.36 3.8-9 3.78-18.29 7.7-19.67 17.81a3 3 0 004.73 2.8 16.2 16.2 0 016.1-2.78C10.17 53.57 4.71 64.56 7 73a3 3 0 002 2 3 3 0 00.92.15 3 3 0 001.9-.68A63.87 63.87 0 0117 70.7l-.61.56c-5.34 4.95-12 11.12-10 21.12a3 3 0 002.51 2.41 2.28 2.28 0 00.45 0A3 3 0 0012 93.22c3-5.63 8.31-8.25 14.5-11.29a77.75 77.75 0 008.66-4.72 39.69 39.69 0 01-3.37 4.65c-3.37 4.21-7.18 9-4.25 15.16a3 3 0 002.73 1.72h.06a3 3 0 002.72-1.84c1.6-3.78 4.83-5.28 9.31-7.37 1.16-.54 2.38-1.12 3.64-1.77l-.57.44a3 3 0 001.82 5.43 2.87 2.87 0 001-.18 48.19 48.19 0 0015.22-8.83c6.63-6 9.78-13.45 9.14-21.68a4.24 4.24 0 00-1.73-3.1l10.95-13a1.43 1.43 0 011-.51h.63a18.19 18.19 0 002-.11A10.66 10.66 0 0093 42.45c5.58-6.99-.29-20.67-13.37-31.14z" fill="url(#radial-gradient)"/><path class="cls-2" d="M62.06 13.9a1.61 1.61 0 10-2.24-.42 1.62 1.62 0 002.24.42zM83.45 36.46a1.6 1.6 0 10.42-2.24 1.6 1.6 0 00-.42 2.24zM56.64 12a1.19 1.19 0 10-1.64-.34 1.19 1.19 0 001.64.34zM83.71 30.76a1.19 1.19 0 10-1.65-.31 1.19 1.19 0 001.65.31zM40 39.9a1.73 1.73 0 102.44 0 1.73 1.73 0 00-2.44 0zM36.63 43.59a1.28 1.28 0 101.8 0 1.27 1.27 0 00-1.8 0z"/><path class="cls-2" d="M77.74 13.67c-8.07-6.45-17.11-10-23.58-9.3A7.81 7.81 0 0048.67 7c-1.86 2.34-1.58 5.58-1 7.89a4.51 4.51 0 01-.77 3.85L27.6 44.15a2.64 2.64 0 00.45 3.68l27.28 21.82a2.66 2.66 0 003.7-.36l20.54-24.41a4.49 4.49 0 013-1.57 4.28 4.28 0 01.62 0 16.09 16.09 0 002-.09 7.81 7.81 0 005.48-2.63c4.33-5.51-1.56-17.82-12.93-26.92zm11 25.39a5.52 5.52 0 01-3.86 1.74 12.13 12.13 0 01-1.38.07h-.45a7.09 7.09 0 00-.79 0 6.91 6.91 0 00-4.54 2.42L57.18 67.73a.19.19 0 01-.16.08l-.15-.06-27.31-21.81a.23.23 0 010-.33l19.3-25.4A6.94 6.94 0 0050 14.32c-.44-1.78-.7-4.23.55-5.8a5.53 5.53 0 013.87-1.75 13.36 13.36 0 011.44-.07c5.72 0 13.53 3.39 20.36 8.86 10.94 8.74 15.63 19.61 12.52 23.5z"/><path class="cls-2" d="M67.35 62.46l-6.7 8a4.87 4.87 0 01-2.77 1.7 4.62 4.62 0 01-3.78-.93L26.82 49.37A4.6 4.6 0 0126 43l9.78-12.87a1.14 1.14 0 00-1.44-1.7c-2.78 1.46-5.71 2.69-8.6 3.91-8.58 3.62-16.7 7-17.85 15.44a18.69 18.69 0 018.78-3.54c2.57-.29 4.84.14 5.66 1.07a.48.48 0 01.09.38.43.43 0 01-.23.31C16.65 48.7 7.39 62.92 10 72.14a72.64 72.64 0 018.37-5.82A43.61 43.61 0 0024.55 62a.43.43 0 01.24-.1h.19a.43.43 0 01.29.33c.83 4.21-2.87 7.64-6.79 11.28-5.05 4.68-10.74 10-9.13 18.33 3.42-6.49 9.46-9.46 15.83-12.59 4.79-2.35 9.74-4.78 13.52-8.86a.42.42 0 01.27-.14h.17a.43.43 0 01.31.34c1 5.33-2.2 9.31-5.28 13.16-3.21 4-6 7.51-3.88 12 2.05-4.84 6.13-6.75 10.81-8.93s9.9-4.64 14.2-10.6a.44.44 0 01.31-.18h.11a.42.42 0 01.35.29c1.87 5.34-5 11.4-8.8 14.28C54.05 88.15 71 80.24 69.64 63.17a1.3 1.3 0 00-2.29-.71zM22 42.4a4.34 4.34 0 01-1.14 0 21.12 21.12 0 00-5.59-.29c-.35 0-.69.1-1.06.17a.53.53 0 01-.53-.3.51.51 0 01.13-.59c2.86-2.6 7.31-4.59 12.86-6.93a1.13 1.13 0 01.35-.09 1.25 1.25 0 011.13 2l-3.32 4.46A4.08 4.08 0 0122 42.4zm30.25 33.65a53.73 53.73 0 01-12.17 8.64c-1.43.67-2.91 1.36-4.31 2.14l-.17.06a.46.46 0 01-.38-.15.45.45 0 010-.56l.78-1c3.09-3.86 6.92-8.67 5.76-15a2.77 2.77 0 00-2.82-2.27h-.2a3.13 3.13 0 00-1.88 1c-3.46 3.67-7.94 5.87-12.7 8.21a64.67 64.67 0 00-9.55 5.38.7.7 0 01-.24.09.51.51 0 01-.5-.25.5.5 0 010-.56 44.25 44.25 0 016.19-6.6c4.21-3.91 8.57-8 7.49-13.44a2.75 2.75 0 00-1-1.63 2.6 2.6 0 00-1.08-.53 2.46 2.46 0 00-.9-.06 3.09 3.09 0 00-1.65.73 43.64 43.64 0 01-5.87 4.09c-1.32.81-2.68 1.65-4.28 2.75a.65.65 0 01-.23.09.59.59 0 01-.44-.16.62.62 0 01-.13-.44c1.29-8 6.51-14 8.7-16.13a2.18 2.18 0 011.33-.64l30.1 23.45a1.87 1.87 0 01.67 1.37 1.85 1.85 0 01-.52 1.42zm14.66-6.57a21.69 21.69 0 01-7.76 11.92.66.66 0 01-.27.12.55.55 0 01-.45-.17.63.63 0 01-.11-.46 11.92 11.92 0 000-3.46 4.1 4.1 0 012.13-4 6.55 6.55 0 001.84-1.36l2.89-3.43a1 1 0 01.63-.34 1 1 0 01.85.32 1 1 0 01.25.86z"/><path class="cls-2" d="M64.3 28.92l7.5 6.03 2.25-2.8-18.41-14.77-2.24 2.8 7.43 5.95-2.42 3.02-2.33-1.87-2.25 2.8 2.33 1.86-8.35 10.4 3.47 2.79 8.36-10.4 1.62 1.3-13.02 16.21 3.48 2.79 13.02-16.21 7.5 6.02 2.25-2.79-12.61-10.12 2.42-3.01z"/></svg>