<svg data-name="Layer 1" xmlns="http://www.w3.org/2000/svg" viewBox="0 0 200 200"><defs><linearGradient id="a" x1="11" y1="100" x2="167" y2="100" gradientUnits="userSpaceOnUse"><stop offset="0" stop-color="#233267"/><stop offset=".63687" stop-color="#234080"/><stop offset="1" stop-color="#006b98"/></linearGradient></defs><circle cx="99.9999" cy="99.9999" r="100.00011" transform="rotate(-76.718 99.99989479 99.99989845)" fill="#fff"/><path d="M126.82127 146.45836l-.08751.05045a2.27274 2.27274 0 102.28126 3.93158l.08751-.05045a2.27274 2.27274 0 10-2.28126-3.93158z" fill="#fff"/><path d="M150.39211 70.92307a58.16778 58.16778 0 10-29.57117 83.42277 2.27282 2.27282 0 00-1.631-4.243 53.28555 53.28555 0 01-51.27668-7.04743l2.03648-10.62991.98119-.31865a7.07977 7.07977 0 004.54047-8.90981l-.72-2.216a2.51027 2.51027 0 01.00228-1.56736 7.07149 7.07149 0 00-5.36257-9.1439l-5.13029-1.00233-9.89872-7.5261a2.27354 2.27354 0 00-2.07807-.35252l-5.79532 1.8826a53.58782 53.58782 0 01-.008-6.206c.22865.213.37752.35775.46911.45276a2.3826 2.3826 0 002.22058 1.13847 33.02142 33.02142 0 004.0736-.46366c1.91761-.28343 3.825-.60276 3.84385-.60594a2.27273 2.27273 0 001.50215-3.5218l-2.787-4.08795 3.992-2.85447a2.27451 2.27451 0 00.65027-.71913l6.18784-10.80265 2.49422-2.67264a9.6013 9.6013 0 001.85283-10.18261 10.45366 10.45366 0 00-4.14068-4.87663 53.55929 53.55929 0 0132.54914-11.47176l-4.05886 5.09141-15.05083 5.27666a2.27236 2.27236 0 00-1.34916 1.278l-4.20342 10.18967a2.27349 2.27349 0 00.25115 2.18739l6.139 8.59934a21.60342 21.60342 0 00-2.75719 3.4211c-.44821.63617-.87141 1.23688-1.16393 1.57395-.25433.2932-.50889.57958-.76118.86323a21.26577 21.26577 0 00-3.65543 5.07392 13.54437 13.54437 0 001.12393 13.69256 12.75735 12.75735 0 0012.04521 5.1687 17.70022 17.70022 0 002.22034-.44753c1.94875-.48207 2.566-.53026 3.19109.05478.3041.28478.33206.33865.32593 1.30439a8.83627 8.83627 0 00.20273 2.2524 7.18107 7.18107 0 001.92125 3.13767 5.09337 5.09337 0 01.82413 1.05142c.70891 1.699.40025 2.63969-.27615 4.70139q-.08694.26457-.17637.54094c-1.02756 3.18109.4048 6.33649 1.66873 9.12028.41047.90391.798 1.75737 1.05187 2.5115 2.04375 6.0642 3.57566 7.45314 4.80527 8.01226a4.738 4.738 0 001.98375.42093c3.27654-.00023 6.69582-3.04243 8.26636-4.97118a6.98885 6.98885 0 001.40689-3.3095 3.62338 3.62338 0 01.2907-1.01551 5.95458 5.95458 0 01.7455-.95869 7.88794 7.88794 0 001.85919-3.08766 5.00094 5.00094 0 011.54258-2.42036c.15637-.16614.323-.34388.50185-.53844 3.02744-3.29427 2.24785-5.81077 1.42212-8.47524-.69482-2.24194.52048-3.67565 3.45905-6.41217a24.55144 24.55144 0 003.60883-3.88658c.44548-.645 1.801-2.60742.9621-4.55252-.82209-1.90715-2.91175-2.22762-4.59071-2.48491a7.53237 7.53237 0 01-1.984-.46389c-1.40644-.91937-2.26671-2.83834-3.09881-4.69434-.16569-.36934-.32911-.73391-.4948-1.08779-.29547-.6314-.59071-1.39553-.90323-2.20421a19.0668 19.0668 0 00-3.3595-6.25739c-1.43417-1.51963-4.1375-2.25149-6.52263-2.89743-.80209-.21706-1.5594-.42207-2.05876-.6064a2.27043 2.27043 0 00-1.306-.08069 5.89893 5.89893 0 00-2.42286 1.00279 2.82326 2.82326 0 00-.80913 1.08869 25.96128 25.96128 0 01-2.68061-1.63145l-.04386-.02932a3.223 3.223 0 00-.20251-2.18785c-1.26985-2.68583-5.48462-2.47559-6.316-2.4049-.4723.03954-1.06983.06068-1.70214.083-.99278.03523-2.09034.07477-3.17608.1966l.05591-.15592A5.81174 5.81174 0 0191.597 73.191h1.29211a2.27285 2.27285 0 100-4.5457H91.597a10.375 10.375 0 00-8.79844 4.90708l-3.39019-4.74912 3.33541-8.085 14.7074-5.15642a2.27371 2.27371 0 001.02529-.728l6.53785-8.20091a53.60248 53.60248 0 0141.44137 26.5626 53.03827 53.03827 0 015.356 13.01l-.96347.85914a6.07123 6.07123 0 00-2.02283 4.41637l-.00137.05478-1.56986-4.31706a5.678 5.678 0 00-1.02347-1.75578l-2.80015-3.27836a5.69656 5.69656 0 00-4.33729-1.99942h-3.42745a3.2919 3.2919 0 00-2.739 5.11823l.34684.52071a25.193 25.193 0 01-7.50428 4.45661l-4.69821-8.99959v-2.00783a2.2723 2.2723 0 00-.70344-1.644l-4.23092-4.03908a2.27572 2.27572 0 00-.816-.50026l-3.80861-1.33848a2.27288 2.27288 0 00-1.50714 4.28864l3.34678 1.1762 3.17359 3.02926v1.593a2.27332 2.27332 0 00.25819 1.05188l5.88191 11.26676a2.27167 2.27167 0 002.80107 1.08051l1.71282-.6314a29.744 29.744 0 0010.6656-6.8262 2.27274 2.27274 0 00.28387-2.86789l-.12091-.1816h1.08528a1.15689 1.15689 0 01.881.40616l2.80016 3.27836a1.15408 1.15408 0 01.20773.35639l3.09018 8.49728a2.27267 2.27267 0 003.74293.83027l1.471-1.471a7.09633 7.09633 0 001.87919-3.41723 53.82366 53.82366 0 01-19.98359 48.94951 2.27276 2.27276 0 102.80652 3.57565 58.186 58.186 0 0014.40376-74.813zm-97.8347 35.15671l9.37257 7.1263a2.27055 2.27055 0 00.93982.42139l5.64895 1.10369a2.52532 2.52532 0 011.91533 3.26563 7.0268 7.0268 0 00-.00614 4.38865l.72 2.2158a2.5286 2.5286 0 01-1.62168 3.18222l-2.25876.73391a2.27235 2.27235 0 00-1.52985 1.73395l-1.81806 9.48984a54.22465 54.22465 0 01-10.3542-12.915 53.35683 53.35683 0 01-6.60309-18.92877zm-5.93487-9.60758a2.31391 2.31391 0 00.03773.29343 2.19621 2.19621 0 01-.03773-.29343zm20.15475-31.99471a5.04473 5.04473 0 01-.97324 5.34961l-2.67378 2.86471a2.28176 2.28176 0 00-.3107.42116l-6.07192 10.60058-5.39644 3.85862a2.2729 2.2729 0 00-.55594 3.12926l2.0183 2.96039c-1.16325.17319-2.2074.31593-2.90153.39162-.13341-.128-.273-.25775-.41729-.39184-.54026-.50185-1.291-1.17211-2.41036-2.15171a53.725 53.725 0 0116.00974-30.4044 5.90991 5.90991 0 013.68316 3.372zM89.421 81.533c.68845-.02431 1.33916-.0475 1.9201-.09614a6.1824 6.1824 0 01.96824.00409 2.2727 2.2727 0 001.04551 2.82789c.42639.22819 1.01983.62389 1.64827 1.04278 1.77646 1.18416 3.79021 2.5265 5.68168 2.647a3.77078 3.77078 0 003.08744-1.28643c.03273-.03318.06364-.06637.09637-.0966a2.435 2.435 0 00.60822-.74481c.36343.10387.74526.20728 1.13665.31343 1.346.36433 3.85089 1.04255 4.40456 1.62918a16.133 16.133 0 012.42559 4.77594c.34161.88437.66436 1.71918 1.02642 2.49309.15546.33206.30842.67413.46388 1.02051 1.0487 2.33945 2.23763 4.99119 4.75958 6.63968a9.39566 9.39566 0 003.78226 1.15211c.14955.023.32092.04933.495.078a21.97947 21.97947 0 01-2.884 3.02607c-2.81379 2.62037-6.31557 5.88169-4.703 11.08448.76118 2.45672.79664 2.72219-.4273 4.05386-.16682.1816-.32229.34706-.468.50207a9.33984 9.33984 0 00-2.562 4.157 3.54974 3.54974 0 01-.92551 1.44508 10.15381 10.15381 0 00-1.27166 1.684 7.36634 7.36634 0 00-.82254 2.41467 2.78447 2.78447 0 01-.4748 1.33258 13.25074 13.25074 0 01-2.86947 2.53741 3.75025 3.75025 0 01-1.90465.75822c-.24251-.26-1.121-1.39849-2.44855-5.33847-.32729-.97187-.7814-1.97216-1.22052-2.93926-.968-2.13216-1.969-4.337-1.48213-5.84373q.08626-.26661.17024-.52116c.77777-2.37081 1.51213-4.60957.15183-7.86907a8.19365 8.19365 0 00-1.65487-2.35809 4.22475 4.22475 0 01-.868-1.153 4.91282 4.91282 0 01-.07455-1.14984 5.6375 5.6375 0 00-1.76465-4.653c-2.51536-2.35445-5.44848-1.62918-7.38972-1.14893a14.25151 14.25151 0 01-1.65873.34547 8.16581 8.16581 0 01-7.82384-3.30722 8.99871 8.99871 0 01-.705-9.09778 17.25954 17.25954 0 012.94267-3.99567c.26387-.29706.53025-.59662.79663-.90346.44321-.51094.931-1.20279 1.4469-1.93556a16.43276 16.43276 0 012.26058-2.81152c1.01377-.57057 3.36687-.65399 5.08487-.71487z" fill="#fff"/><path d="M126.83286 137.89675c2.31853-.37888 4.06158-2.7906 5.48575-7.59041l2.67356-9.01072a2.27343 2.27343 0 00.01772-1.22962l-1.09347-4.122a2.27292 2.27292 0 00-4.19477-.50093c-.24911.45911-.47344.94551-.69026 1.416a9.76972 9.76972 0 01-1.13461 2.06125 5.01624 5.01624 0 01-1.33439.79117c-1.30871.63141-3.10086 1.49645-3.78544 3.67884a6.65961 6.65961 0 00-.15046 3.20677 2.06924 2.06924 0 01-.05819 1.33963l-.02273.053c-.72345 1.69782-2.06965 4.85845-.18205 7.54542 1.34689 1.91761 2.76288 2.41058 3.86339 2.41058a3.68961 3.68961 0 00.60595-.04898zm-.74981-4.97414c-.43435-.61866.21478-2.14262.64435-3.15108l.023-.05319a6.39657 6.39657 0 00.37275-3.7868 2.383 2.383 0 01-.00909-1.17961c.08909-.28343.62162-.55844 1.42416-.94574.3557-.17183.74731-.3607 1.14257-.58935l-1.71987 5.79669a13.78955 13.78955 0 01-1.73919 4.09613c-.04273-.05454-.08914-.11636-.13868-.18705zM103.03564 68.77364a2.27285 2.27285 0 10-1.5044 4.28955l.1532.05364a2.27289 2.27289 0 101.50462-4.28956z" fill="#fff"/><path d="M18.26339 88.6l138.34785-53.34093c6.41886-2.32121 12.02687 1.56491 9.94853 11.27427l.01193-.012-23.55593 110.976c-1.74576 7.86792-6.42259 9.7826-12.96176 6.07508L94.182 137.13557l-17.30226 16.66927c-1.91466 1.91169-3.52966 3.52666-7.23418 3.52666l2.54616-36.50574 66.48355-60.06095c2.89292-2.5484-.6457-3.98179-4.46085-1.44832l-82.16034 51.72669-35.41614-11.04635C8.94863 97.556 8.782 92.30751 18.26339 88.6zm0 0" fill="url(#a)"/></svg>