<svg id="Layer_1" data-name="Layer 1" xmlns="http://www.w3.org/2000/svg" viewBox="0 0 100 100"><defs><radialGradient id="radial-gradient" cx="50" cy="50" r="49.06" gradientUnits="userSpaceOnUse"><stop offset="0" stop-color="#ec1978"/><stop offset="1" stop-color="#7c143f"/></radialGradient><style>.cls-2{fill:#fff}</style></defs><path d="M48.21 98.15C47 97.05 3.51 53.84 1.74 52.05c-1.25-1.26-1.22-2 0-3.42S47 3.24 48.1 2.13 50 .47 51.5 2l47 47.19c.85.85.83 1.62.09 2.72S52.9 97.14 52 98.15a2.63 2.63 0 01-3.79 0z" fill="url(#radial-gradient)"/><path class="cls-2" d="M48.87 54.74a1.21 1.21 0 00.25.36c.27.29.46.25.84-.19l.22-.25h-.65a1.52 1.52 0 00-.66.08zM51.18 55c.34.37.36.37.7 0l.27-.3h-1.24zM47.29 54.84l-.55.08.33.28.34.27.26-.31c.15-.18.24-.34.22-.37h-.06a3.75 3.75 0 00-.54.05zM50.56 54.82a.94.94 0 00-.37.25l-.33.3h.62c.61 0 .61 0 .45-.26s-.24-.3-.37-.29zM53.07 54.66h-.29l.27.35a2.57 2.57 0 00.31.36 1.59 1.59 0 00.37-.28l.33-.28-.36-.08a3.79 3.79 0 00-.63-.07zM54.43 54.87l-.36.31-.35.3.49.05.64.06c.22 0 .17-.15-.14-.45zM52.48 54.82c-.08 0-.17.06-.33.21l-.29.29.27.07a2.21 2.21 0 00.59.09c.27 0 .3 0 .21-.2a1.86 1.86 0 00-.3-.38zM55.74 54.9a3.83 3.83 0 01-.75-.08l-.28-.07.33.37a1.63 1.63 0 00.41.37 1.79 1.79 0 00.41-.3l.34-.29zM50.79 52a.85.85 0 00-.35.08 1 1 0 00-.07 1.66.94.94 0 001.35-.81.9.9 0 00-.93-.93zM48.35 54.82l-.35.38-.31.36h1.36l-.37-.34a3.18 3.18 0 00-.33-.4zM56 55.44h-.07c-.09 0-.17.11-.17.17s.2.13.27-.06.06-.12-.03-.11zM53.84 52.06a1 1 0 00-.35.08 1 1 0 00-.08 1.66.94.94 0 001.35-.8.9.9 0 00-.92-.94zM46.43 55a2.13 2.13 0 00-.53.41c-.32.31-.37.41-.2.37s.48-.08.79-.12l.56-.08-.26-.29a1 1 0 00-.36-.29zM47.49 57.18a1.34 1.34 0 00.34-.38c.17-.23.22-.32.16-.33h-.09a2.31 2.31 0 01-.61.08h-.42l.28.3a1.17 1.17 0 00.34.33zM45.9 56.7c-.33 0-.53.19-.44.42s.1.19.36-.07.35-.35.08-.35zM49.08 57.14l-.33-.29-.29-.27-.31.33-.3.33h.64a5.23 5.23 0 00.59-.1zM55.8 57.34v-.13c0-.01-.07 0-.14.09s-.14.19-.11.25.25.01.25-.21zM49.8 56.76l.27-.3h-1.23l.27.3c.33.37.35.37.69 0zM46.83 57.32c.2-.09.2-.1 0-.32s-.18-.17-.25-.16-.15.09-.3.25l-.31.33h.34a2 2 0 00.52-.1zM52.74 56.94l-.33-.36-.28.27-.28.27.39.07c.83.16.86.14.5-.25zM54.3 57.42h.47l-.21-.29c-.11-.16-.17-.23-.25-.22a.38.38 0 00-.18.08.68.68 0 00-.26.29c-.03.09.13.14.43.14zM55.14 57.43l.28-.28.28-.27-.49-.09a1.94 1.94 0 00-.47 0h-.06s.07.19.21.37zM53.74 57c.33-.31.26-.4-.33-.4h-.54l.28.3c.32.33.32.33.59.1z"/><path class="cls-2" d="M45.3 56.31c0 .14.1.17.54.11a34.09 34.09 0 016.49-.21c1.12.08 2.26.19 2.55.24.94.17 1 .16 1-.16s0-.3-.77-.39c-.43-.06-2.21-.1-4-.1-3.5 0-5.81.2-5.81.51z"/><path class="cls-2" d="M51.07 57.14a2.8 2.8 0 00-.33-.36l-.32-.32-.33.36-.34.36h.66a2.93 2.93 0 00.66-.04zM51.88 56.76l.27-.3h-1.24l.27.3c.34.37.36.37.7 0zM45.68 55h-.11a1.35 1.35 0 00-.35.06c-.2.08-.22.15-.14.39l.11.29.35-.35c.31-.27.33-.31.14-.39zM52.3 48c-.1 0-.16.06-.16.13a.19.19 0 00.17.11c.1 0 .2 0 .21-.11-.01-.13-.11-.13-.22-.13zM52.87 48c-.09 0-.16.07-.16.13s.09.13.2.13.2-.06.2-.13a.273.273 0 00-.24-.13zM52.3 49.08c.11 0 .2 0 .2-.13 0-.07-.1-.12-.21-.12-.09 0-.16.07-.15.13s.05.12.16.12zM53.13 48.49c-.1 0-.17.06-.17.13s.09.13.2.13.2-.06.2-.13a.19.19 0 00-.23-.13zM52 49.11c-.1 0-.16.07-.16.13a.18.18 0 00.17.12.2.2 0 00.22-.12c0-.07-.11-.12-.22-.11zM53.69 48.54c-.1 0-.17.07-.17.13a.18.18 0 00.19.13.2.2 0 00.21-.13.21.21 0 00-.23-.13zM53.48 48.15c-.09 0-.16.07-.16.13a.18.18 0 00.17.12c.11 0 .21 0 .22-.12-.03-.08-.12-.13-.23-.13zM44.26 59.76c0 .08.16.07.8-.07s.58-.17.53-.39l-.18-1c-.51-2.81-.83-3.65-1.43-3.66a1.47 1.47 0 01-.6-.25 1 1 0 00-.37-.17c0 .05.16.66.35 1.36.26 1.05.9 3.94.9 4.18zM55.54 59.92c.11 0 .14-.26.14-1v-1l-.37-.08a34.56 34.56 0 00-5.45-.36 25.85 25.85 0 00-3.06.15 10.12 10.12 0 00-1.13.19 4.45 4.45 0 00.1.87l.13.84.54-.1c.29-.06 1.39-.13 2.43-.18a21.87 21.87 0 015.55.42c.58.14 1.04.24 1.12.25z"/><path class="cls-2" d="M60.53 49.69c0-.24-11.17-9-11.56-9h-.09a4.57 4.57 0 00-2.26 1.45 6.77 6.77 0 00-1.84 2.67 5.68 5.68 0 000 3.11c.13.39.24.73.24.75s-.34.42-.74.88A4.7 4.7 0 0043 51.92a2.75 2.75 0 01-.29.83c-.21.3-.26.89-.09 1s.13-.2.17-.53c.08-.57.22-.83.35-.63a1.76 1.76 0 01-.06.62c-.08.38-.07.56 0 .66s.11.08.07 0a1.28 1.28 0 01.15-.64 2.41 2.41 0 00.22-.75c0-.42.32-.87 1.21-1.7.48-.45 1.24-1.25 1.69-1.78.75-.88.81-1 .75-1.36s.11-1.12.24-1a2.44 2.44 0 01.1.76c0 .64 0 .71-.53 1.35-.3.37-1.12 1.26-1.82 2-1.07 1.08-1.29 1.36-1.29 1.66a2 2 0 01-.25.8.92.92 0 00-.15.8c.09.35.1.35.14.06.07-.51.28-1.08.38-1.08s.07.31 0 .69c-.05.57 0 .66.09.54a.93.93 0 00.15-.57c0-.26.06-.42.16-.42s.19.57 0 1c-.09.24-.08.31 0 .31s.28-.12.42-.86a2.11 2.11 0 01.25-.78 5.33 5.33 0 011-.48 15.88 15.88 0 003-1.89 3.21 3.21 0 011.25-.53c1.15-.25 1.95-1.12 1.71-1.88-.1-.32-.23-.38-2.13-.94a17.18 17.18 0 01-2.27-.78 1.64 1.64 0 01-.46-1.49c.11-.39.68-1.07.68-.8a1.28 1.28 0 01-.23.46 1.17 1.17 0 000 1.42c.23.27 1 .53 6.37 2.1 3.37 1 6.21 1.79 6.32 1.79a.19.19 0 00.23-.19zM45 42.46l.06.95.29-.4a10.47 10.47 0 012.28-2.16c.53-.36.74-.57.74-.75s-.09-1.1-.24-2.1c-.4-2.69-.68-3.11-2.2-3.19h-.44a1.62 1.62 0 00-.85.21 2.93 2.93 0 01-1 .3c-.56.06-.95.3-1 .66 0 .19 0 .2.72.17.85-.05 1.15.09 1.21.4s.05.17-.16.22c-.56.14-.77 0-1 .18s.49.31 1 .49.7.41.63 2.4C45 40.74 45 42 45 42.46zm.43-7.18a.4.4 0 01.39.41.39.39 0 11-.42-.4z"/><path class="cls-2" d="M52.56 48.39c-.09 0-.16.07-.15.14s.08.13.19.13.2-.06.2-.13-.12-.12-.22-.11zM54 48.26c-.1 0-.16.07-.16.13s.09.13.19.13.2-.05.2-.13c-.01-.08-.1-.13-.23-.13zM53.06 48.94a.22.22 0 00-.23-.11c-.09 0-.16.07-.15.14s.08.13.19.13.19-.1.19-.16zM52.57 49.12c-.1 0-.17.07-.16.13a.18.18 0 00.17.12.23.23 0 00.22-.12.18.18 0 00-.23-.13z"/><path class="cls-2" d="M54.84 48.68l-.23.37c-.26.43-1 .61-2 .54a1.86 1.86 0 00-1.33.23 9.87 9.87 0 01-1.21.55l-.69.26 1.83.15a37.89 37.89 0 015 .69c1.08.24 1.15.24 1.36-.2.11-.21.34-.67.54-1l.34-.62-1.78-.51a15.09 15.09 0 00-1.83-.46zM56.31 54.52c0-.09.23-.7.46-1.35s.4-1.2.39-1.21-2.07-.42-3.21-.6a42.36 42.36 0 00-4.8-.36.64.64 0 00-.2 0l-.59.45a14.66 14.66 0 01-1.72 1l-1.27.66-.14.6a6.35 6.35 0 01-.22.81c-.1.25.07.26 1.27.08a49.08 49.08 0 019.46 0c.39.07.53.05.57-.08zm-4.7-.78a1.18 1.18 0 11-.82-2.05 1.2 1.2 0 01.82 2.05zm3 .09a1.18 1.18 0 11-.81-2 1.19 1.19 0 01.85 2z"/><path class="cls-2" d="M53.18 49.4c.11 0 .19-.06.19-.13 0-.08-.12-.12-.23-.11s-.16.07-.16.13.09.11.2.11zM54.54 48.66a.21.21 0 00-.23-.11c-.09 0-.16.07-.16.13s.08.13.19.13.2-.08.2-.15zM53.79 49.4a.21.21 0 00.22-.11c0-.07-.11-.12-.22-.11-.1 0-.17.07-.16.13a.16.16 0 00.16.09zM53.51 49.1c.11 0 .2-.06.2-.13a.21.21 0 00-.23-.11c-.09 0-.16.07-.16.13s.09.11.19.11zM54.15 49.07c.1 0 .19-.06.19-.13a.21.21 0 00-.23-.11c-.1 0-.16.07-.16.14s.05.1.2.1zM58.28 52.35c-.16.34-.29.65-.38.88A16.18 16.18 0 0056.79 59v.19a4.13 4.13 0 01-.06.95v.18l5.49 4zM42.34 49.91l-4.67 14.41 5.57-4a1.18 1.18 0 01-.09-.46 32.61 32.61 0 00-1.31-5.28 2 2 0 010-2.41l.05-.08a5.06 5.06 0 011.5-3.09l.49-.58c0-.08-.06-.19-.1-.3a6.41 6.41 0 010-3.73c.15-.48.18-.75.18-3.36H30.1zM54.6 41l-4.68-14.4L47.5 34a2.5 2.5 0 011.17 1.21 15.92 15.92 0 01.55 2.68c.12.8.21 1.39.27 1.74.48.28 1.67 1.11 6 4.54 2.33 1.83 3.8 3 4.68 3.72L69.74 41zM44.39 61.32l-1 .75 5.24 1.71v-3a20.25 20.25 0 00-4.19.51z"/><path class="cls-2" d="M34.01 69.35l2.09-6.43L8.43 53.9l39.76 39.76v-26.8l-7.43-2.42-6.75 4.91zM40.09 50.65l-2.81-2.04H14.85l33.34-37.23V6.37L5.31 49.25l31.85 10.39 2.93-8.99zM65.82 69.35l-6.75-4.91-7.43 2.42v26.8L91.4 53.9l-27.66 9.02 2.08 6.43zM51.64 63.66L56 62.23a12.16 12.16 0 00-4.37-1.37zM51.64 11.37l34.47 37.24H62.55l-.28.2a1.66 1.66 0 01.22.89 2 2 0 01-2.1 2.09h-.28l2.56 7.86 31.86-10.4L51.64 6.37z"/></svg>