<svg data-name="Layer 1" xmlns="http://www.w3.org/2000/svg" viewBox="0 0 150 150"><defs><radialGradient id="a" cx="75.641" cy="78.454" r="73.027" gradientUnits="userSpaceOnUse"><stop offset="0" stop-color="#ea1f79"/><stop offset="1" stop-color="#7c143f"/></radialGradient></defs><path d="M147.347 67.206a15.9 15.9 0 00-5.377-4.866 16.1 16.1 0 01-3.17 7.357L75 5.897l-63.8 63.8a16.1 16.1 0 01-3.17-7.357 15.899 15.899 0 00-5.376 4.866C1.294 69.33-1.313 77.54 4.03 86.23l.097 2.776a21.381 21.381 0 004.679 12.075c.843 5.338 3.363 13.458 8.963 17.092l2.65 5.234c.181.357 3.968 7.586 14.49 9.664l1.183 1.491c.215.271 5.394 6.638 16.168 6.638.418 0 .844-.01 1.28-.03 1.102-.05 2.158-.108 3.169-.165 2.04-.112 3.8-.21 5.381-.21 2.818 0 4.51.322 5.656 1.075a5.17 5.17 0 011.404 1.43c.057.08 1.533.797 1.533.797l4.316.007 4.316-.007s1.476-.716 1.533-.798a5.169 5.169 0 011.404-1.43c1.146-.752 2.838-1.074 5.656-1.074 1.58 0 3.341.098 5.381.21 1.011.057 2.067.115 3.169.165.437.02.862.03 1.28.03 10.775 0 15.953-6.367 16.168-6.638l1.183-1.49c10.522-2.08 14.309-9.308 14.49-9.665l2.65-5.234c5.6-3.634 8.12-11.754 8.963-17.092a21.382 21.382 0 004.679-12.075l.097-2.776c5.344-8.689 2.736-16.899 1.378-19.024z" fill="url(#a)"/><path d="M27.185 80.281c5.638 1.923 11.845 3.437 16.622 4.542 10.858 2.512 19.04 7.569 24.322 15.03a33.8 33.8 0 011.467 2.27l3.783 1.234v-41.28L60.111 76.819H29.15l44.23-49.387V13.484L13.475 73.388q4.382 3.707 13.709 6.893zM120.093 98.178a73.054 73.054 0 01-6.455.813 47.333 47.333 0 00-26.531 10.899c7.904-12.346 23.286-12.691 37.285-16.012a58.267 58.267 0 009.284-2.924c15.852-6.715 9.687-22.238 9.687-22.238-1.501 6.717-9.587 11.253-19.502 14.634-5.363 1.828-11.258 3.317-16.938 4.632-10.507 2.43-17.763 7.183-22.407 13.743a31.398 31.398 0 00-2.092 3.4l-5.525 1.801v34.446l.125-.126c.004.084.008.129.008.129.09-.143.183-.279.277-.413a9.212 9.212 0 012.505-2.506c3.737-2.464 9.088-1.718 16.65-1.374 9.688.44 14.059-5.064 14.059-5.064a33.054 33.054 0 01-12.627-.77 31.305 31.305 0 00-10.262-.612 24.444 24.444 0 00-3.61.611 10.926 10.926 0 014.91-1.911c3.745-.615 9.216-.348 18.32.15 14.09.77 18.495-7.928 18.495-7.928s-5.945 2.093-19.046.441a43.801 43.801 0 00-10.378-.054 40.326 40.326 0 00-12.52 3.357c3.814-4.088 9.357-5.773 15.718-6.555 6.487-.796 13.825-.652 21.051-1.151 14.312-.992 15.743-12.55 15.743-12.55s-3.963 5.504-23.229 5.284c-1.862-.02-3.623.03-5.29.142-15.574 1.035-22.673 7.233-22.673 7.233 4.854-6.353 13.25-9.24 26.255-10.815 3.219-.39 6.714-.702 10.515-.964 19.156-1.32 19.707-17.063 19.707-17.063-1.515 2.367-9.062 7.175-21.51 9.315z" fill="#fff"/><path d="M67.574 105.125a31.192 31.192 0 00-2.091-3.4c-4.643-6.56-11.899-11.313-22.406-13.743-5.68-1.315-11.576-2.805-16.938-4.633-9.916-3.38-18.002-7.916-19.502-14.633 0 0-6.166 15.523 9.688 22.238a58.048 58.048 0 009.278 2.923c14 3.322 29.386 3.665 37.29 16.013A47.33 47.33 0 0036.36 98.99a72.85 72.85 0 01-6.458-.814c-12.445-2.14-19.99-6.948-21.505-9.314 0 0 .55 15.742 19.706 17.063 3.798.262 7.293.573 10.51.963 13.009 1.577 21.406 4.462 26.26 10.816 0 0-7.1-6.199-22.677-7.233a67.573 67.573 0 00-5.285-.142c-19.266.22-23.23-5.284-23.23-5.284s1.432 11.558 15.743 12.55c7.225.5 14.561.355 21.048 1.15 6.362.783 11.906 2.467 15.722 6.556a40.31 40.31 0 00-12.525-3.357 43.816 43.816 0 00-10.373.054c-13.102 1.652-19.046-.44-19.046-.44s4.404 8.698 18.495 7.927c9.1-.498 14.571-.765 18.314-.15a10.922 10.922 0 014.916 1.911 24.534 24.534 0 00-3.615-.61 31.274 31.274 0 00-10.257.61 33.048 33.048 0 01-12.626.77s4.37 5.505 14.057 5.065c7.556-.344 12.904-1.088 16.64 1.368a9.2 9.2 0 012.524 2.523c.09.132.18.263.268.402l.008-.125c.027-.487.123-2.389.125-5.166v-29.158zM106.192 84.823c4.78-1.105 10.988-2.62 16.622-4.542q9.523-3.246 13.903-7.06L76.98 13.484v13.948l45.705 49.387H91.724L76.98 62.077v41.28l3.333-1.087c.49-.832 1.01-1.643 1.558-2.418 5.28-7.46 13.463-12.517 24.32-15.029z" fill="#fff"/></svg>